Bodoni-11-Book-Italic.ufo
<glyph name="exclam" format="2">
  <advance width="2552"/>
  <unicode hex="0021"/>
  <outline>
    <contour>
      <point x="2624" y="5512" type="curve" smooth="yes"/>
      <point x="2464" y="4664"/>
      <point x="1752" y="2864"/>
      <point x="1432" y="1664" type="curve"/>
      <point x="1272" y="1664" type="line"/>
      <point x="1512" y="2864"/>
      <point x="1680" y="4264"/>
      <point x="1680" y="5272" type="curve" smooth="yes"/>
      <point x="1680" y="5720"/>
      <point x="1800" y="6064"/>
      <point x="2192" y="6064" type="curve" smooth="yes"/>
      <point x="2472" y="6064"/>
      <point x="2688" y="5840"/>
    </contour>
    <contour>
      <point x="560" y="392" type="curve" smooth="yes"/>
      <point x="560" y="656"/>
      <point x="768" y="864"/>
      <point x="1032" y="864" type="curve" smooth="yes"/>
      <point x="1296" y="864"/>
      <point x="1504" y="656"/>
      <point x="1504" y="392" type="curve" smooth="yes"/>
      <point x="1504" y="128"/>
      <point x="1296" y="-80"/>
      <point x="1032" y="-80" type="curve" smooth="yes"/>
      <point x="768" y="-80"/>
      <point x="560" y="128"/>
    </contour>
  </outline>
</glyph>
<glyph name="dollar" format="2">
  <advance width="4440"/>
  <unicode hex="0024"/>
  <outline>
    <contour>
      <point x="2760" y="6640" type="line"/>
      <point x="2960" y="6640" type="line"/>
      <point x="1280" y="-640" type="line"/>
      <point x="1080" y="-640" type="line"/>
    </contour>
    <contour>
      <point x="3480" y="6640" type="line"/>
      <point x="3680" y="6640" type="line"/>
      <point x="2000" y="-640" type="line"/>
      <point x="1800" y="-640" type="line"/>
    </contour>
    <contour>
      <point x="1600" y="4840" type="curve" smooth="yes"/>
      <point x="1600" y="3360"/>
      <point x="4120" y="3840"/>
      <point x="4120" y="1680" type="curve" smooth="yes"/>
      <point x="4120" y="560"/>
      <point x="3168" y="-120"/>
      <point x="2040" y="-120" type="curve" smooth="yes"/>
      <point x="952" y="-120"/>
      <point x="240" y="600"/>
      <point x="240" y="1160" type="curve" smooth="yes"/>
      <point x="240" y="1528"/>
      <point x="448" y="1816"/>
      <point x="800" y="1816" type="curve" smooth="yes"/>
      <point x="1040" y="1816"/>
      <point x="1312" y="1640"/>
      <point x="1312" y="1288" type="curve" smooth="yes"/>
      <point x="1312" y="968"/>
      <point x="1048" y="768"/>
      <point x="776" y="768" type="curve" smooth="yes"/>
      <point x="648" y="768"/>
      <point x="552" y="816"/>
      <point x="520" y="824" type="curve"/>
      <point x="768" y="520"/>
      <point x="1168" y="48"/>
      <point x="2040" y="48" type="curve" smooth="yes"/>
      <point x="2888" y="48"/>
      <point x="3400" y="608"/>
      <point x="3400" y="1320" type="curve" smooth="yes"/>
      <point x="3400" y="3040"/>
      <point x="960" y="2360"/>
      <point x="960" y="4360" type="curve" smooth="yes"/>
      <point x="960" y="5320"/>
      <point x="1888" y="6080"/>
      <point x="2856" y="6080" type="curve" smooth="yes"/>
      <point x="3720" y="6080"/>
      <point x="4520" y="5488"/>
      <point x="4520" y="4840" type="curve" smooth="yes"/>
      <point x="4520" y="4472"/>
      <point x="4312" y="4184"/>
      <point x="3960" y="4184" type="curve" smooth="yes"/>
      <point x="3720" y="4184"/>
      <point x="3448" y="4360"/>
      <point x="3448" y="4712" type="curve" smooth="yes"/>
      <point x="3448" y="5032"/>
      <point x="3712" y="5232"/>
      <point x="3984" y="5232" type="curve" smooth="yes"/>
      <point x="4072" y="5232"/>
      <point x="4168" y="5168"/>
      <point x="4200" y="5160" type="curve"/>
      <point x="4112" y="5488"/>
      <point x="3608" y="5896"/>
      <point x="2936" y="5896" type="curve" smooth="yes"/>
      <point x="2088" y="5896"/>
      <point x="1600" y="5472"/>
    </contour>
  </outline>
</glyph>
<glyph name="percent" format="2">
  <advance width="1000"/>
  <unicode hex="0025"/>
  <outline>
    <contour>
      <point x="730" y="-10" type="curve" smooth="yes"/>
      <point x="637" y="-10"/>
      <point x="580" y="37"/>
      <point x="580" y="140" type="curve" smooth="yes"/>
      <point x="580" y="303"/>
      <point x="687" y="430"/>
      <point x="820" y="430" type="curve" smooth="yes"/>
      <point x="913" y="430"/>
      <point x="970" y="383"/>
      <point x="970" y="280" type="curve" smooth="yes"/>
      <point x="970" y="117"/>
      <point x="863" y="-10"/>
    </contour>
    <contour>
      <point x="820" y="410" type="curve" smooth="yes"/>
      <point x="746" y="410"/>
      <point x="680" y="252"/>
      <point x="680" y="120" type="curve" smooth="yes"/>
      <point x="680" y="58"/>
      <point x="696" y="10"/>
      <point x="730" y="10" type="curve" smooth="yes"/>
      <point x="804" y="10"/>
      <point x="870" y="168"/>
      <point x="870" y="300" type="curve" smooth="yes"/>
      <point x="870" y="362"/>
      <point x="854" y="410"/>
    </contour>
    <contour>
      <point x="868" y="750" type="line"/>
      <point x="895" y="750" type="line"/>
      <point x="220" y="0" type="line"/>
      <point x="193" y="0" type="line"/>
    </contour>
    <contour>
      <point x="275" y="320" type="curve" smooth="yes"/>
      <point x="182" y="320"/>
      <point x="125" y="367"/>
      <point x="125" y="470" type="curve" smooth="yes"/>
      <point x="125" y="633"/>
      <point x="232" y="760"/>
      <point x="365" y="760" type="curve" smooth="yes"/>
      <point x="458" y="760"/>
      <point x="515" y="713"/>
      <point x="515" y="610" type="curve" smooth="yes"/>
      <point x="515" y="447"/>
      <point x="408" y="320"/>
    </contour>
    <contour>
      <point x="365" y="740" type="curve" smooth="yes"/>
      <point x="291" y="740"/>
      <point x="225" y="582"/>
      <point x="225" y="450" type="curve" smooth="yes"/>
      <point x="225" y="388"/>
      <point x="241" y="340"/>
      <point x="275" y="340" type="curve" smooth="yes"/>
      <point x="349" y="340"/>
      <point x="415" y="498"/>
      <point x="415" y="630" type="curve" smooth="yes"/>
      <point x="415" y="692"/>
      <point x="399" y="740"/>
    </contour>
  </outline>
</glyph>
<glyph name="ampersand" format="2">
  <advance width="789"/>
  <unicode hex="0026"/>
  <outline>
    <contour>
      <point x="259" y="16" type="curve" smooth="yes"/>
      <point x="497" y="16"/>
      <point x="743" y="231"/>
      <point x="757" y="370" type="curve" smooth="yes"/>
      <point x="759" y="387" type="line" smooth="yes"/>
      <point x="756" y="367"/>
      <point x="735" y="335"/>
      <point x="701" y="335" type="curve" smooth="yes"/>
      <point x="661" y="335"/>
      <point x="648" y="367"/>
      <point x="648" y="392" type="curve" smooth="yes"/>
      <point x="648" y="422"/>
      <point x="673" y="449"/>
      <point x="710" y="449" type="curve" smooth="yes"/>
      <point x="758" y="449"/>
      <point x="779" y="412"/>
      <point x="779" y="376" type="curve" smooth="yes"/>
      <point x="779" y="236"/>
      <point x="514" y="-10"/>
      <point x="239" y="-10" type="curve" smooth="yes"/>
      <point x="96" y="-10"/>
      <point x="20" y="57"/>
      <point x="20" y="160" type="curve" smooth="yes"/>
      <point x="20" y="450"/>
      <point x="541" y="360"/>
      <point x="541" y="650" type="curve" smooth="yes"/>
      <point x="541" y="692"/>
      <point x="512" y="743"/>
      <point x="459" y="743" type="curve" smooth="yes"/>
      <point x="382" y="743"/>
      <point x="343" y="683"/>
      <point x="343" y="620" type="curve" smooth="yes"/>
      <point x="343" y="585"/>
      <point x="355" y="540"/>
      <point x="382" y="470" type="curve" smooth="yes"/>
      <point x="526" y="95" type="line" smooth="yes"/>
      <point x="540" y="54"/>
      <point x="552" y="16"/>
      <point x="592" y="16" type="curve" smooth="yes"/>
      <point x="633" y="16"/>
      <point x="664" y="40"/>
      <point x="684" y="75" type="curve"/>
      <point x="699" y="70" type="line"/>
      <point x="680" y="26"/>
      <point x="629" y="-10"/>
      <point x="550" y="-10" type="curve" smooth="yes"/>
      <point x="477" y="-10"/>
      <point x="437" y="23"/>
      <point x="411" y="91" type="curve" smooth="yes"/>
      <point x="264" y="470" type="line" smooth="yes"/>
      <point x="247" y="512"/>
      <point x="238" y="548"/>
      <point x="238" y="583" type="curve" smooth="yes"/>
      <point x="238" y="683"/>
      <point x="333" y="760"/>
      <point x="469" y="760" type="curve" smooth="yes"/>
      <point x="556" y="760"/>
      <point x="635" y="725"/>
      <point x="635" y="645" type="curve" smooth="yes"/>
      <point x="635" y="397"/>
      <point x="130" y="475"/>
      <point x="130" y="150" type="curve" smooth="yes"/>
      <point x="130" y="108"/>
      <point x="155" y="16"/>
    </contour>
  </outline>
</glyph>
<glyph name="parenleft" format="2">
  <advance width="362"/>
  <unicode hex="0028"/>
  <outline>
    <contour>
      <point x="282" y="-153" type="curve"/>
      <point x="273" y="-170" type="line"/>
      <point x="160" y="-120"/>
      <point x="82" y="12"/>
      <point x="82" y="185" type="curve" smooth="yes"/>
      <point x="82" y="478"/>
      <point x="290" y="720"/>
      <point x="483" y="800" type="curve"/>
      <point x="492" y="783" type="line"/>
      <point x="338" y="703"/>
      <point x="174" y="407"/>
      <point x="174" y="165" type="curve" smooth="yes"/>
      <point x="174" y="-17"/>
      <point x="208" y="-83"/>
    </contour>
  </outline>
</glyph>
<glyph name="asterisk" format="2">
  <advance width="635"/>
  <unicode hex="002A"/>
  <outline>
    <contour>
      <point x="257" y="667" type="curve" smooth="yes"/>
      <point x="316" y="620"/>
      <point x="287" y="582"/>
      <point x="382" y="527" type="curve"/>
      <point x="372" y="512" type="line"/>
      <point x="277" y="567"/>
      <point x="276" y="543"/>
      <point x="206" y="571" type="curve" smooth="yes"/>
      <point x="167" y="588"/>
      <point x="144" y="625"/>
      <point x="162" y="657" type="curve" smooth="yes"/>
      <point x="181" y="692"/>
      <point x="223" y="689"/>
    </contour>
    <contour>
      <point x="155" y="457" type="curve" smooth="yes"/>
      <point x="225" y="485"/>
      <point x="276" y="474"/>
      <point x="371" y="529" type="curve"/>
      <point x="381" y="512" type="line"/>
      <point x="286" y="457"/>
      <point x="263" y="419"/>
      <point x="204" y="372" type="curve" smooth="yes"/>
      <point x="172" y="350"/>
      <point x="131" y="339"/>
      <point x="111" y="375" type="curve" smooth="yes"/>
      <point x="93" y="407"/>
      <point x="117" y="441"/>
    </contour>
    <contour>
      <point x="292" y="327" type="curve" smooth="yes"/>
      <point x="313" y="402"/>
      <point x="353" y="430"/>
      <point x="368" y="520" type="curve"/>
      <point x="386" y="520" type="line"/>
      <point x="366" y="410"/>
      <point x="390" y="402"/>
      <point x="390" y="327" type="curve" smooth="yes"/>
      <point x="390" y="280"/>
      <point x="369" y="248"/>
      <point x="334" y="248" type="curve" smooth="yes"/>
      <point x="299" y="248"/>
      <point x="279" y="282"/>
    </contour>
    <contour>
      <point x="499" y="376" type="curve" smooth="yes"/>
      <point x="440" y="423"/>
      <point x="467" y="458"/>
      <point x="372" y="513" type="curve"/>
      <point x="382" y="528" type="line"/>
      <point x="477" y="473"/>
      <point x="478" y="497"/>
      <point x="548" y="469" type="curve" smooth="yes"/>
      <point x="587" y="452"/>
      <point x="610" y="415"/>
      <point x="592" y="383" type="curve" smooth="yes"/>
      <point x="573" y="349"/>
      <point x="531" y="355"/>
    </contour>
    <contour>
      <point x="599" y="583" type="curve" smooth="yes"/>
      <point x="529" y="555"/>
      <point x="478" y="566"/>
      <point x="383" y="511" type="curve"/>
      <point x="373" y="528" type="line"/>
      <point x="468" y="583"/>
      <point x="491" y="621"/>
      <point x="550" y="668" type="curve" smooth="yes"/>
      <point x="582" y="690"/>
      <point x="623" y="701"/>
      <point x="643" y="665" type="curve" smooth="yes"/>
      <point x="661" y="633"/>
      <point x="637" y="599"/>
    </contour>
    <contour>
      <point x="462" y="713" type="curve" smooth="yes"/>
      <point x="441" y="638"/>
      <point x="401" y="610"/>
      <point x="386" y="520" type="curve"/>
      <point x="368" y="520" type="line"/>
      <point x="388" y="630"/>
      <point x="364" y="638"/>
      <point x="364" y="713" type="curve" smooth="yes"/>
      <point x="364" y="760"/>
      <point x="385" y="792"/>
      <point x="420" y="792" type="curve" smooth="yes"/>
      <point x="455" y="792"/>
      <point x="475" y="758"/>
    </contour>
  </outline>
</glyph>
<glyph name="comma" format="2">
  <advance width="1720"/>
  <unicode hex="002C"/>
  <outline>
    <contour>
      <point x="80" y="368" type="curve" smooth="yes"/>
      <point x="80" y="632"/>
      <point x="312" y="864"/>
      <point x="616" y="864" type="curve" smooth="yes"/>
      <point x="928" y="864"/>
      <point x="1152" y="672"/>
      <point x="1152" y="248" type="curve" smooth="yes"/>
      <point x="1152" y="-472"/>
      <point x="424" y="-1248"/>
      <point x="-296" y="-1248" type="curve"/>
      <point x="-296" y="-1088" type="line"/>
      <point x="192" y="-1088"/>
      <point x="832" y="-600"/>
      <point x="936" y="56" type="curve"/>
      <point x="848" y="-32"/>
      <point x="752" y="-80"/>
      <point x="576" y="-80" type="curve" smooth="yes"/>
      <point x="232" y="-80"/>
      <point x="80" y="128"/>
    </contour>
  </outline>
</glyph>
<glyph name="two" format="2">
  <advance width="550"/>
  <unicode hex="0032"/>
  <outline>
    <contour>
      <point x="120" y="560" type="curve"/>
      <point x="131" y="573"/>
      <point x="142" y="582"/>
      <point x="159" y="582" type="curve" smooth="yes"/>
      <point x="188" y="582"/>
      <point x="218" y="561"/>
      <point x="218" y="526" type="curve" smooth="yes"/>
      <point x="218" y="486"/>
      <point x="190" y="462"/>
      <point x="155" y="462" type="curve" smooth="yes"/>
      <point x="120" y="462"/>
      <point x="91" y="487"/>
      <point x="91" y="529" type="curve" smooth="yes"/>
      <point x="91" y="646"/>
      <point x="198" y="760"/>
      <point x="335" y="760" type="curve" smooth="yes"/>
      <point x="456" y="760"/>
      <point x="537" y="700"/>
      <point x="537" y="600" type="curve" smooth="yes"/>
      <point x="537" y="500"/>
      <point x="420" y="412"/>
      <point x="361" y="365" type="curve" smooth="yes"/>
      <point x="36" y="90" type="line"/>
      <point x="413" y="90" type="line"/>
      <point x="429" y="165" type="line"/>
      <point x="449" y="165" type="line"/>
      <point x="414" y="0" type="line"/>
      <point x="-41" y="0" type="line"/>
      <point x="-27" y="65" type="line"/>
      <point x="238" y="296" type="line" smooth="yes"/>
      <point x="323" y="370"/>
      <point x="437" y="486"/>
      <point x="437" y="580" type="curve" smooth="yes"/>
      <point x="437" y="684"/>
      <point x="391" y="729"/>
      <point x="303" y="729" type="curve" smooth="yes"/>
      <point x="219" y="729"/>
      <point x="129" y="647"/>
    </contour>
  </outline>
</glyph>
<glyph name="three" format="2">
  <advance width="4168"/>
  <unicode hex="0033"/>
  <outline>
    <contour>
      <point x="1160" y="4880" type="curve" smooth="yes"/>
      <point x="1160" y="5456"/>
      <point x="1832" y="6072"/>
      <point x="2808" y="6072" type="curve" smooth="yes"/>
      <point x="3536" y="6072"/>
      <point x="4248" y="5848"/>
      <point x="4248" y="4968" type="curve" smooth="yes"/>
      <point x="4248" y="4168"/>
      <point x="3592" y="3208"/>
      <point x="1744" y="3208" type="curve"/>
      <point x="1744" y="3320" type="line"/>
      <point x="3016" y="3320"/>
      <point x="3440" y="4456"/>
      <point x="3440" y="4968" type="curve" smooth="yes"/>
      <point x="3440" y="5560"/>
      <point x="3160" y="5864"/>
      <point x="2528" y="5864" type="curve" smooth="yes"/>
      <point x="2016" y="5864"/>
      <point x="1568" y="5560"/>
      <point x="1448" y="5256" type="curve"/>
      <point x="1480" y="5264"/>
      <point x="1552" y="5272"/>
      <point x="1616" y="5272" type="curve" smooth="yes"/>
      <point x="1848" y="5272"/>
      <point x="2072" y="5112"/>
      <point x="2072" y="4832" type="curve" smooth="yes"/>
      <point x="2072" y="4512"/>
      <point x="1816" y="4384"/>
      <point x="1616" y="4384" type="curve" smooth="yes"/>
      <point x="1376" y="4384"/>
      <point x="1160" y="4552"/>
    </contour>
    <contour>
      <point x="40" y="1088" type="curve" smooth="yes"/>
      <point x="40" y="1416"/>
      <point x="240" y="1608"/>
      <point x="520" y="1608" type="curve" smooth="yes"/>
      <point x="760" y="1608"/>
      <point x="952" y="1448"/>
      <point x="952" y="1160" type="curve" smooth="yes"/>
      <point x="952" y="904"/>
      <point x="728" y="720"/>
      <point x="496" y="720" type="curve" smooth="yes"/>
      <point x="408" y="720"/>
      <point x="352" y="744"/>
      <point x="320" y="752" type="curve"/>
      <point x="360" y="528"/>
      <point x="768" y="136"/>
      <point x="1528" y="136" type="curve" smooth="yes"/>
      <point x="2480" y="136"/>
      <point x="3040" y="1088"/>
      <point x="3040" y="1840" type="curve" smooth="yes"/>
      <point x="3040" y="2432"/>
      <point x="2856" y="3168"/>
      <point x="1744" y="3168" type="curve"/>
      <point x="1744" y="3280" type="line"/>
      <point x="3432" y="3280"/>
      <point x="3848" y="2720"/>
      <point x="3848" y="1840" type="curve" smooth="yes"/>
      <point x="3848" y="800"/>
      <point x="2816" y="-80"/>
      <point x="1688" y="-80" type="curve" smooth="yes"/>
      <point x="552" y="-80"/>
      <point x="40" y="512"/>
    </contour>
  </outline>
</glyph>
<glyph name="four" format="2">
  <advance width="4760"/>
  <unicode hex="0034"/>
  <outline>
    <contour>
      <point x="4080" y="160" type="line"/>
      <point x="4080" y="0" type="line"/>
      <point x="1960" y="0" type="line"/>
      <point x="1960" y="160" type="line"/>
    </contour>
    <contour>
      <point x="4680" y="6000" type="line"/>
      <point x="3400" y="0" type="line"/>
      <point x="2640" y="0" type="line"/>
      <point x="3840" y="5688" type="line"/>
      <point x="632" y="1800" type="line"/>
      <point x="4680" y="1800" type="line"/>
      <point x="4680" y="1640" type="line"/>
      <point x="280" y="1640" type="line"/>
      <point x="3880" y="6000" type="line"/>
    </contour>
  </outline>
</glyph>
<glyph name="four" format="1">
  <advance width="595"/>
  <unicode hex="0034"/>
  <outline>
    <contour>
      <point x="510" y="20" type="line"/>
      <point x="510" y="0" type="line"/>
      <point x="245" y="0" type="line"/>
      <point x="245" y="20" type="line"/>
    </contour>
    <contour>
      <point x="585" y="750" type="line"/>
      <point x="425" y="0" type="line"/>
      <point x="330" y="0" type="line"/>
      <point x="480" y="711" type="line"/>
      <point x="79" y="225" type="line"/>
      <point x="585" y="225" type="line"/>
      <point x="585" y="205" type="line"/>
      <point x="35" y="205" type="line"/>
      <point x="485" y="750" type="line"/>
    </contour>
  </outline>
</glyph>
<glyph name="five" format="2">
  <advance width="500"/>
  <unicode hex="0035"/>
  <outline>
    <contour>
      <point x="470" y="280" type="curve" smooth="yes"/>
      <point x="470" y="130"/>
      <point x="327" y="-10"/>
      <point x="176" y="-10" type="curve" smooth="yes"/>
      <point x="74" y="-10"/>
      <point x="0" y="57"/>
      <point x="0" y="129" type="curve" smooth="yes"/>
      <point x="0" y="170"/>
      <point x="27" y="191"/>
      <point x="57" y="191" type="curve" smooth="yes"/>
      <point x="82" y="191"/>
      <point x="114" y="175"/>
      <point x="114" y="135" type="curve" smooth="yes"/>
      <point x="114" y="100"/>
      <point x="86" y="80"/>
      <point x="57" y="80" type="curve" smooth="yes"/>
      <point x="46" y="80"/>
      <point x="39" y="83"/>
      <point x="35" y="84" type="curve"/>
      <point x="45" y="61"/>
      <point x="82" y="11"/>
      <point x="166" y="11" type="curve" smooth="yes"/>
      <point x="295" y="11"/>
      <point x="365" y="166"/>
      <point x="365" y="280" type="curve" smooth="yes"/>
      <point x="365" y="374"/>
      <point x="329" y="446"/>
      <point x="250" y="446" type="curve" smooth="yes"/>
      <point x="195" y="446"/>
      <point x="129" y="420"/>
      <point x="94" y="377" type="curve"/>
      <point x="75" y="377" type="line"/>
      <point x="111" y="434"/>
      <point x="181" y="470"/>
      <point x="272" y="470" type="curve" smooth="yes"/>
      <point x="393" y="470"/>
      <point x="470" y="410"/>
    </contour>
    <contour>
      <point x="525" y="660" type="line"/>
      <point x="187" y="660" type="line"/>
      <point x="87" y="377" type="line"/>
      <point x="67" y="377" type="line"/>
      <point x="197" y="750" type="line"/>
      <point x="524" y="750" type="line"/>
      <point x="535" y="805" type="line"/>
      <point x="555" y="805" type="line"/>
    </contour>
  </outline>
</glyph>
<glyph name="six" format="2">
  <advance width="4480"/>
  <unicode hex="0036"/>
  <outline>
    <contour>
      <point x="3520" y="2400" type="curve" smooth="yes"/>
      <point x="3520" y="3232"/>
      <point x="3344" y="3688"/>
      <point x="2872" y="3688" type="curve" smooth="yes"/>
      <point x="1888" y="3688"/>
      <point x="1200" y="2240"/>
      <point x="1200" y="1360" type="curve"/>
      <point x="1088" y="1360" type="line"/>
      <point x="1088" y="2296"/>
      <point x="1760" y="3920"/>
      <point x="3048" y="3920" type="curve" smooth="yes"/>
      <point x="3696" y="3920"/>
      <point x="4320" y="3520"/>
      <point x="4320" y="2400" type="curve" smooth="yes"/>
      <point x="4320" y="1200"/>
      <point x="3160" y="-80"/>
      <point x="1952" y="-80" type="curve" smooth="yes"/>
      <point x="1064" y="-80"/>
      <point x="400" y="480"/>
      <point x="400" y="1760" type="curve" smooth="yes"/>
      <point x="400" y="3464"/>
      <point x="2256" y="6080"/>
      <point x="4520" y="6080" type="curve"/>
      <point x="4520" y="5944" type="line"/>
      <point x="2648" y="5944"/>
      <point x="1240" y="3456"/>
      <point x="1240" y="2080" type="curve"/>
      <point x="1200" y="1360" type="line"/>
      <point x="1200" y="608"/>
      <point x="1424" y="80"/>
      <point x="1976" y="80" type="curve" smooth="yes"/>
      <point x="2848" y="80"/>
      <point x="3520" y="1408"/>
    </contour>
  </outline>
</glyph>
<glyph name="seven" format="2">
  <advance width="4040"/>
  <unicode hex="0037"/>
  <outline>
    <contour>
      <point x="1184" y="528" type="curve" smooth="yes"/>
      <point x="1184" y="1080"/>
      <point x="1976" y="2296"/>
      <point x="2584" y="3184" type="curve" smooth="yes"/>
      <point x="2944" y="3720"/>
      <point x="3608" y="4600"/>
      <point x="4096" y="5240" type="curve"/>
      <point x="1200" y="5240" type="line"/>
      <point x="1072" y="4640" type="line"/>
      <point x="912" y="4640" type="line"/>
      <point x="1200" y="6000" type="line"/>
      <point x="4840" y="6000" type="line"/>
      <point x="4840" y="6000"/>
      <point x="3512" y="4200"/>
      <point x="2792" y="3184" type="curve" smooth="yes"/>
      <point x="2256" y="2432"/>
      <point x="1728" y="1656"/>
      <point x="1728" y="1296" type="curve" smooth="yes"/>
      <point x="1728" y="952"/>
      <point x="2224" y="992"/>
      <point x="2224" y="464" type="curve" smooth="yes"/>
      <point x="2224" y="168"/>
      <point x="2064" y="-80"/>
      <point x="1712" y="-80" type="curve" smooth="yes"/>
      <point x="1440" y="-80"/>
      <point x="1184" y="136"/>
    </contour>
  </outline>
</glyph>
<glyph name="eight" format="2">
  <advance width="550"/>
  <unicode hex="0038"/>
  <outline>
    <contour>
      <point x="220" y="530" type="curve" smooth="yes"/>
      <point x="220" y="476"/>
      <point x="236" y="395"/>
      <point x="305" y="395" type="curve" smooth="yes"/>
      <point x="394" y="395"/>
      <point x="450" y="496"/>
      <point x="450" y="590" type="curve" smooth="yes"/>
      <point x="450" y="644"/>
      <point x="434" y="740"/>
      <point x="365" y="740" type="curve" smooth="yes"/>
      <point x="276" y="740"/>
      <point x="220" y="624"/>
    </contour>
    <contour>
      <point x="120" y="525" type="curve" smooth="yes"/>
      <point x="120" y="645"/>
      <point x="224" y="760"/>
      <point x="365" y="760" type="curve" smooth="yes"/>
      <point x="486" y="760"/>
      <point x="550" y="675"/>
      <point x="550" y="595" type="curve" smooth="yes"/>
      <point x="550" y="475"/>
      <point x="446" y="380"/>
      <point x="305" y="380" type="curve" smooth="yes"/>
      <point x="184" y="380"/>
      <point x="120" y="445"/>
    </contour>
    <contour>
      <point x="130" y="160" type="curve" smooth="yes"/>
      <point x="130" y="86"/>
      <point x="166" y="10"/>
      <point x="245" y="10" type="curve" smooth="yes"/>
      <point x="344" y="10"/>
      <point x="400" y="126"/>
      <point x="400" y="220" type="curve" smooth="yes"/>
      <point x="400" y="294"/>
      <point x="364" y="375"/>
      <point x="285" y="375" type="curve" smooth="yes"/>
      <point x="186" y="375"/>
      <point x="130" y="254"/>
    </contour>
    <contour>
      <point x="30" y="150" type="curve" smooth="yes"/>
      <point x="30" y="270"/>
      <point x="114" y="390"/>
      <point x="285" y="390" type="curve" smooth="yes"/>
      <point x="426" y="390"/>
      <point x="500" y="330"/>
      <point x="500" y="230" type="curve" smooth="yes"/>
      <point x="500" y="110"/>
      <point x="416" y="-10"/>
      <point x="245" y="-10" type="curve" smooth="yes"/>
      <point x="104" y="-10"/>
      <point x="30" y="50"/>
    </contour>
  </outline>
</glyph>
<glyph name="less" format="1">
  <advance width="560"/>
  <unicode hex="003C"/>
  <outline>
    <contour>
      <point x="110" y="380" type="line"/>
      <point x="110" y="400" type="line"/>
      <point x="590" y="600" type="line"/>
      <point x="590" y="580" type="line"/>
    </contour>
    <contour>
      <point x="110" y="375" type="line"/>
      <point x="110" y="395" type="line"/>
      <point x="500" y="195" type="line"/>
      <point x="500" y="175" type="line"/>
    </contour>
  </outline>
</glyph>
<glyph name="question" format="2">
  <advance width="4400"/>
  <unicode hex="003F"/>
  <outline>
    <contour>
      <point x="2352" y="2680" type="curve"/>
      <point x="2136" y="1672" type="line"/>
      <point x="1976" y="1672" type="line"/>
      <point x="2216" y="2792" type="line"/>
      <point x="3152" y="3040"/>
      <point x="3952" y="3896"/>
      <point x="3952" y="4880" type="curve" smooth="yes"/>
      <point x="3952" y="5472"/>
      <point x="3800" y="5912"/>
      <point x="3088" y="5912" type="curve" smooth="yes"/>
      <point x="2256" y="5912"/>
      <point x="1720" y="5392"/>
      <point x="1640" y="5088" type="curve"/>
      <point x="1672" y="5096"/>
      <point x="1728" y="5120"/>
      <point x="1816" y="5120" type="curve" smooth="yes"/>
      <point x="2048" y="5120"/>
      <point x="2272" y="4960"/>
      <point x="2272" y="4680" type="curve" smooth="yes"/>
      <point x="2272" y="4360"/>
      <point x="2016" y="4232"/>
      <point x="1816" y="4232" type="curve" smooth="yes"/>
      <point x="1576" y="4232"/>
      <point x="1360" y="4400"/>
      <point x="1360" y="4728" type="curve" smooth="yes"/>
      <point x="1360" y="5384"/>
      <point x="2112" y="6080"/>
      <point x="3168" y="6080" type="curve" smooth="yes"/>
      <point x="4056" y="6080"/>
      <point x="4760" y="5680"/>
      <point x="4760" y="4720" type="curve" smooth="yes"/>
      <point x="4760" y="3640"/>
      <point x="3592" y="2744"/>
    </contour>
    <component base="period" xOffset="1192"/>
  </outline>
</glyph>
<glyph name="question" format="1">
  <advance width="550"/>
  <unicode hex="003F"/>
  <outline>
    <contour>
      <point x="294" y="335" type="curve"/>
      <point x="267" y="209" type="line"/>
      <point x="247" y="209" type="line"/>
      <point x="277" y="349" type="line"/>
      <point x="394" y="380"/>
      <point x="494" y="487"/>
      <point x="494" y="610" type="curve" smooth="yes"/>
      <point x="494" y="684"/>
      <point x="475" y="739"/>
      <point x="386" y="739" type="curve" smooth="yes"/>
      <point x="282" y="739"/>
      <point x="215" y="674"/>
      <point x="205" y="636" type="curve"/>
      <point x="209" y="637"/>
      <point x="216" y="640"/>
      <point x="227" y="640" type="curve" smooth="yes"/>
      <point x="256" y="640"/>
      <point x="284" y="620"/>
      <point x="284" y="585" type="curve" smooth="yes"/>
      <point x="284" y="545"/>
      <point x="252" y="529"/>
      <point x="227" y="529" type="curve" smooth="yes"/>
      <point x="197" y="529"/>
      <point x="170" y="550"/>
      <point x="170" y="591" type="curve" smooth="yes"/>
      <point x="170" y="673"/>
      <point x="264" y="760"/>
      <point x="396" y="760" type="curve" smooth="yes"/>
      <point x="507" y="760"/>
      <point x="595" y="710"/>
      <point x="595" y="590" type="curve" smooth="yes"/>
      <point x="595" y="455"/>
      <point x="449" y="343"/>
    </contour>
    <component base="period" xOffset="149"/>
  </outline>
</glyph>
<glyph name="at" format="1">
  <advance width="1010"/>
  <unicode hex="0040"/>
  <outline>
    <contour>
      <point x="630" y="356" type="curve" smooth="yes"/>
      <point x="630" y="194"/>
      <point x="534" y="70"/>
      <point x="434" y="70" type="curve" smooth="yes"/>
      <point x="355" y="70"/>
      <point x="284" y="126"/>
      <point x="284" y="230" type="curve" smooth="yes"/>
      <point x="284" y="380"/>
      <point x="399" y="529"/>
      <point x="518" y="529" type="curve" smooth="yes"/>
      <point x="599" y="529"/>
      <point x="630" y="438"/>
    </contour>
    <contour>
      <point x="614" y="346" type="curve" smooth="yes"/>
      <point x="614" y="388"/>
      <point x="600" y="503"/>
      <point x="534" y="503" type="curve" smooth="yes"/>
      <point x="460" y="503"/>
      <point x="385" y="364"/>
      <point x="385" y="240" type="curve" smooth="yes"/>
      <point x="385" y="173"/>
      <point x="400" y="97"/>
      <point x="464" y="97" type="curve" smooth="yes"/>
      <point x="525" y="97"/>
      <point x="614" y="218"/>
    </contour>
    <contour>
      <point x="590" y="210" type="curve" smooth="yes"/>
      <point x="662" y="520" type="line"/>
      <point x="752" y="520" type="line"/>
      <point x="680" y="210" type="line" smooth="yes"/>
      <point x="677" y="197"/>
      <point x="634" y="91"/>
      <point x="711" y="91" type="curve" smooth="yes"/>
      <point x="834" y="91"/>
      <point x="935" y="247"/>
      <point x="935" y="401" type="curve" smooth="yes"/>
      <point x="935" y="578"/>
      <point x="828" y="770"/>
      <point x="584" y="770" type="curve" smooth="yes"/>
      <point x="305" y="770"/>
      <point x="75" y="513"/>
      <point x="75" y="211" type="curve" smooth="yes"/>
      <point x="75" y="-86"/>
      <point x="245" y="-194"/>
      <point x="419" y="-194" type="curve" smooth="yes"/>
      <point x="583" y="-194"/>
      <point x="680" y="-147"/>
      <point x="770" y="-49" type="curve"/>
      <point x="785" y="-64" type="line"/>
      <point x="701" y="-162"/>
      <point x="582" y="-214"/>
      <point x="419" y="-214" type="curve" smooth="yes"/>
      <point x="236" y="-214"/>
      <point x="55" y="-102"/>
      <point x="55" y="211" type="curve" smooth="yes"/>
      <point x="55" y="524"/>
      <point x="292" y="790"/>
      <point x="585" y="790" type="curve" smooth="yes"/>
      <point x="838" y="790"/>
      <point x="955" y="584"/>
      <point x="955" y="401" type="curve" smooth="yes"/>
      <point x="955" y="241"/>
      <point x="862" y="68"/>
      <point x="691" y="68" type="curve" smooth="yes"/>
      <point x="602" y="68"/>
      <point x="576" y="148"/>
    </contour>
  </outline>
</glyph>
<glyph name="A" format="2">
  <advance width="5800"/>
  <unicode hex="0041"/>
  <outline>
    <contour>
      <point x="-360" y="160" type="line"/>
      <point x="1400" y="160" type="line"/>
      <point x="1400" y="0" type="line"/>
      <point x="-360" y="0" type="line"/>
    </contour>
    <contour>
      <point x="2920" y="160" type="line"/>
      <point x="5240" y="160" type="line"/>
      <point x="5240" y="0" type="line"/>
      <point x="2920" y="0" type="line"/>
    </contour>
    <contour>
      <point x="1480" y="2040" type="line"/>
      <point x="4120" y="2040" type="line"/>
      <point x="4120" y="1880" type="line"/>
      <point x="1480" y="1880" type="line"/>
    </contour>
    <contour>
      <point x="3328" y="5072" type="line"/>
      <point x="432" y="0" type="line"/>
      <point x="232" y="0" type="line"/>
      <point x="3760" y="6120" type="line"/>
      <point x="3920" y="6120" type="line"/>
      <point x="4680" y="0" type="line"/>
      <point x="3840" y="0" type="line"/>
    </contour>
  </outline>
</glyph>
<glyph name="B" format="2">
  <advance width="625"/>
  <unicode hex="0042"/>
  <outline>
    <contour>
      <point x="265" y="0" type="curve" smooth="yes"/>
      <point x="-45" y="0" type="line"/>
      <point x="-45" y="20" type="line"/>
      <point x="265" y="20" type="line" smooth="yes"/>
      <point x="386" y="20"/>
      <point x="465" y="131"/>
      <point x="465" y="260" type="curve" smooth="yes"/>
      <point x="465" y="349"/>
      <point x="417" y="375"/>
      <point x="341" y="375" type="curve" smooth="yes"/>
      <point x="215" y="375" type="line"/>
      <point x="215" y="390" type="line"/>
      <point x="351" y="390" type="line" smooth="yes"/>
      <point x="492" y="390"/>
      <point x="575" y="340"/>
      <point x="575" y="240" type="curve" smooth="yes"/>
      <point x="575" y="90"/>
      <point x="436" y="0"/>
    </contour>
    <contour>
      <point x="220" y="750" type="line"/>
      <point x="315" y="750" type="line"/>
      <point x="140" y="0" type="line"/>
      <point x="45" y="0" type="line"/>
    </contour>
    <contour>
      <point x="335" y="380" type="curve" smooth="yes"/>
      <point x="215" y="380" type="line"/>
      <point x="215" y="395" type="line"/>
      <point x="335" y="395" type="line" smooth="yes"/>
      <point x="411" y="395"/>
      <point x="530" y="466"/>
      <point x="530" y="615" type="curve" smooth="yes"/>
      <point x="530" y="684"/>
      <point x="496" y="730"/>
      <point x="410" y="730" type="curve" smooth="yes"/>
      <point x="130" y="730" type="line"/>
      <point x="130" y="750" type="line"/>
      <point x="410" y="750" type="line" smooth="yes"/>
      <point x="571" y="750"/>
      <point x="630" y="705"/>
      <point x="630" y="605" type="curve" smooth="yes"/>
      <point x="630" y="485"/>
      <point x="496" y="380"/>
    </contour>
  </outline>
</glyph>
<glyph name="C" format="2">
  <advance width="5304"/>
  <unicode hex="0043"/>
  <outline>
    <contour>
      <point x="2480" y="-80" type="curve" smooth="yes"/>
      <point x="1256" y="-80"/>
      <point x="440" y="736"/>
      <point x="440" y="2040" type="curve" smooth="yes"/>
      <point x="440" y="4224"/>
      <point x="2056" y="6080"/>
      <point x="3920" y="6080" type="curve" smooth="yes"/>
      <point x="4864" y="6080"/>
      <point x="5584" y="5504"/>
      <point x="5440" y="4360" type="curve"/>
      <point x="5280" y="4360" type="line"/>
      <point x="5424" y="5416"/>
      <point x="4672" y="5888"/>
      <point x="4000" y="5888" type="curve" smooth="yes"/>
      <point x="2288" y="5888"/>
      <point x="1320" y="3416"/>
      <point x="1320" y="1560" type="curve" smooth="yes"/>
      <point x="1320" y="744"/>
      <point x="1728" y="112"/>
      <point x="2560" y="112" type="curve" smooth="yes"/>
      <point x="3632" y="112"/>
      <point x="4320" y="824"/>
      <point x="4720" y="1640" type="curve"/>
      <point x="4880" y="1640" type="line"/>
      <point x="4560" y="656"/>
      <point x="3624" y="-80"/>
    </contour>
    <contour>
      <point x="5280" y="4360" type="line"/>
      <point x="5376" y="4856" type="line"/>
      <point x="5200" y="5400" type="line"/>
      <point x="5704" y="6000" type="line"/>
      <point x="5824" y="6000" type="line"/>
      <point x="5440" y="4360" type="line"/>
    </contour>
    <contour>
      <point x="4720" y="1640" type="line"/>
      <point x="4880" y="1640" type="line"/>
      <point x="4440" y="0" type="line"/>
      <point x="4320" y="0" type="line"/>
      <point x="4160" y="560" type="line"/>
      <point x="4600" y="1144" type="line"/>
    </contour>
  </outline>
</glyph>
<glyph name="E" format="2">
  <advance width="574"/>
  <unicode hex="0045"/>
  <outline>
    <contour>
      <point x="124" y="750" type="line"/>
      <point x="649" y="750" type="line"/>
      <point x="601" y="545" type="line"/>
      <point x="581" y="545" type="line"/>
      <point x="606" y="652"/>
      <point x="591" y="730"/>
      <point x="474" y="730" type="curve" smooth="yes"/>
      <point x="124" y="730" type="line"/>
    </contour>
    <contour>
      <point x="214" y="750" type="line"/>
      <point x="309" y="750" type="line"/>
      <point x="135" y="0" type="line"/>
      <point x="40" y="0" type="line"/>
    </contour>
    <contour>
      <point x="283" y="378" type="curve" smooth="yes"/>
      <point x="212" y="378" type="line"/>
      <point x="212" y="398" type="line"/>
      <point x="283" y="398" type="line" smooth="yes"/>
      <point x="340" y="398"/>
      <point x="384" y="426"/>
      <point x="399" y="493" type="curve"/>
      <point x="419" y="493" type="line"/>
      <point x="370" y="278" type="line"/>
      <point x="350" y="278" type="line"/>
      <point x="365" y="345"/>
      <point x="340" y="378"/>
    </contour>
    <contour>
      <point x="485" y="0" type="line"/>
      <point x="-45" y="0" type="line"/>
      <point x="-45" y="20" type="line"/>
      <point x="300" y="20" type="line" smooth="yes"/>
      <point x="437" y="20"/>
      <point x="488" y="98"/>
      <point x="517" y="225" type="curve"/>
      <point x="537" y="225" type="line"/>
    </contour>
  </outline>
</glyph>
<glyph name="F" format="2">
  <advance width="554"/>
  <unicode hex="0046"/>
  <outline>
    <contour>
      <point x="264" y="363" type="curve" smooth="yes"/>
      <point x="209" y="363" type="line"/>
      <point x="209" y="383" type="line"/>
      <point x="264" y="383" type="line" smooth="yes"/>
      <point x="350" y="383"/>
      <point x="392" y="406"/>
      <point x="405" y="473" type="curve"/>
      <point x="425" y="473" type="line"/>
      <point x="377" y="268" type="line"/>
      <point x="357" y="268" type="line"/>
      <point x="372" y="335"/>
      <point x="351" y="363"/>
    </contour>
    <contour>
      <point x="-45" y="20" type="line"/>
      <point x="235" y="20" type="line"/>
      <point x="235" y="0" type="line"/>
      <point x="-45" y="0" type="line"/>
    </contour>
    <contour>
      <point x="214" y="750" type="line"/>
      <point x="309" y="750" type="line"/>
      <point x="135" y="0" type="line"/>
      <point x="40" y="0" type="line"/>
    </contour>
    <contour>
      <point x="124" y="750" type="line"/>
      <point x="639" y="750" type="line"/>
      <point x="591" y="545" type="line"/>
      <point x="571" y="545" type="line"/>
      <point x="596" y="652"/>
      <point x="581" y="730"/>
      <point x="464" y="730" type="curve" smooth="yes"/>
      <point x="124" y="730" type="line"/>
    </contour>
  </outline>
</glyph>
<glyph name="G" format="2">
  <advance width="5824"/>
  <unicode hex="0047"/>
  <outline>
    <contour>
      <point x="4344" y="2240" type="line"/>
      <point x="5176" y="2240" type="line"/>
      <point x="4936" y="1320" type="line"/>
      <point x="4576" y="816"/>
      <point x="3784" y="-80"/>
      <point x="2480" y="-80" type="curve" smooth="yes"/>
      <point x="1256" y="-80"/>
      <point x="440" y="736"/>
      <point x="440" y="2040" type="curve" smooth="yes"/>
      <point x="440" y="4224"/>
      <point x="2056" y="6080"/>
      <point x="3920" y="6080" type="curve" smooth="yes"/>
      <point x="4864" y="6080"/>
      <point x="5584" y="5504"/>
      <point x="5440" y="4360" type="curve"/>
      <point x="5280" y="4360" type="line"/>
      <point x="5424" y="5416"/>
      <point x="4672" y="5864"/>
      <point x="4000" y="5864" type="curve" smooth="yes"/>
      <point x="2288" y="5864"/>
      <point x="1320" y="3416"/>
      <point x="1320" y="1560" type="curve" smooth="yes"/>
      <point x="1320" y="744"/>
      <point x="1568" y="80"/>
      <point x="2400" y="80" type="curve" smooth="yes"/>
      <point x="3392" y="80"/>
      <point x="3896" y="824"/>
      <point x="4016" y="1000" type="curve"/>
    </contour>
    <contour>
      <point x="3640" y="2360" type="line"/>
      <point x="5800" y="2360" type="line"/>
      <point x="5800" y="2200" type="line"/>
      <point x="3640" y="2200" type="line"/>
    </contour>
    <contour>
      <point x="5704" y="6000" type="line"/>
      <point x="5824" y="6000" type="line"/>
      <point x="5440" y="4360" type="line"/>
      <point x="5280" y="4360" type="line"/>
      <point x="5384" y="4768" type="line"/>
      <point x="5200" y="5400" type="line"/>
    </contour>
  </outline>
</glyph>
<glyph name="J" format="1">
  <advance width="421"/>
  <unicode hex="004A"/>
  <outline>
    <contour>
      <point x="186" y="750" type="line"/>
      <point x="516" y="750" type="line"/>
      <point x="516" y="730" type="line"/>
      <point x="186" y="730" type="line"/>
    </contour>
    <contour>
      <point x="7" y="34" type="curve"/>
      <point x="16" y="18"/>
      <point x="36" y="-10"/>
      <point x="76" y="-10" type="curve" smooth="yes"/>
      <point x="137" y="-10"/>
      <point x="162" y="50"/>
      <point x="194" y="190" type="curve" smooth="yes"/>
      <point x="321" y="750" type="line"/>
      <point x="416" y="750" type="line"/>
      <point x="285" y="169" type="line"/>
      <point x="245" y="99"/>
      <point x="177" y="-30"/>
      <point x="76" y="-30" type="curve" smooth="yes"/>
      <point x="9" y="-30"/>
      <point x="-30" y="35"/>
      <point x="-30" y="85" type="curve" smooth="yes"/>
      <point x="-30" y="127"/>
      <point x="-3" y="150"/>
      <point x="27" y="150" type="curve" smooth="yes"/>
      <point x="52" y="150"/>
      <point x="83" y="132"/>
      <point x="83" y="91" type="curve" smooth="yes"/>
      <point x="83" y="51"/>
      <point x="54" y="33"/>
      <point x="20" y="33" type="curve" smooth="yes"/>
      <point x="17" y="33"/>
      <point x="9" y="34"/>
    </contour>
  </outline>
</glyph>
<glyph name="K" format="2">
  <advance width="5376"/>
  <unicode hex="004B"/>
  <outline>
    <contour>
      <point x="-320" y="160" type="line"/>
      <point x="1840" y="160" type="line"/>
      <point x="1840" y="0" type="line"/>
      <point x="-320" y="0" type="line"/>
    </contour>
    <contour>
      <point x="1000" y="6000" type="line"/>
      <point x="3160" y="6000" type="line"/>
      <point x="3160" y="5840" type="line"/>
      <point x="1000" y="5840" type="line"/>
    </contour>
    <contour>
      <point x="1720" y="6000" type="line"/>
      <point x="2480" y="6000" type="line"/>
      <point x="1120" y="0" type="line"/>
      <point x="360" y="0" type="line"/>
    </contour>
    <contour>
      <point x="1152" y="1736" type="line"/>
      <point x="872" y="1736" type="line"/>
      <point x="4904" y="5984" type="line"/>
      <point x="5184" y="5984" type="line"/>
    </contour>
    <contour>
      <point x="2376" y="160" type="line"/>
      <point x="4856" y="160" type="line"/>
      <point x="4856" y="0" type="line"/>
      <point x="2376" y="0" type="line"/>
    </contour>
    <contour>
      <point x="5856" y="5840" type="line"/>
      <point x="3936" y="5840" type="line"/>
      <point x="3936" y="6000" type="line"/>
      <point x="5856" y="6000" type="line"/>
    </contour>
    <contour>
      <point x="4232" y="0" type="line"/>
      <point x="3328" y="0" type="line"/>
      <point x="2304" y="3120" type="line"/>
      <point x="2880" y="3704" type="line"/>
    </contour>
  </outline>
</glyph>
<glyph name="L" format="1">
  <advance width="562"/>
  <unicode hex="004C"/>
  <outline>
    <contour>
      <point x="214" y="750" type="line"/>
      <point x="309" y="750" type="line"/>
      <point x="135" y="0" type="line"/>
      <point x="40" y="0" type="line"/>
    </contour>
    <contour>
      <point x="124" y="750" type="line"/>
      <point x="399" y="750" type="line"/>
      <point x="399" y="730" type="line"/>
      <point x="124" y="730" type="line"/>
    </contour>
    <contour>
      <point x="480" y="0" type="line"/>
      <point x="-45" y="0" type="line"/>
      <point x="-45" y="20" type="line"/>
      <point x="295" y="20" type="line" smooth="yes"/>
      <point x="452" y="20"/>
      <point x="483" y="98"/>
      <point x="512" y="225" type="curve"/>
      <point x="532" y="225" type="line"/>
    </contour>
  </outline>
</glyph>
<glyph name="M" format="2">
  <advance width="835"/>
  <unicode hex="004D"/>
  <outline>
    <contour>
      <point x="520" y="20" type="line"/>
      <point x="765" y="20" type="line"/>
      <point x="765" y="0" type="line"/>
      <point x="520" y="0" type="line"/>
    </contour>
    <contour>
      <point x="841" y="730" type="line"/>
      <point x="685" y="0" type="line"/>
      <point x="590" y="0" type="line"/>
      <point x="750" y="750" type="line"/>
      <point x="905" y="750" type="line"/>
      <point x="905" y="730" type="line"/>
    </contour>
    <contour>
      <point x="399" y="131" type="line"/>
      <point x="738" y="750" type="line"/>
      <point x="763" y="750" type="line"/>
      <point x="346" y="-10" type="line"/>
      <point x="321" y="-10" type="line"/>
      <point x="203" y="750" type="line"/>
      <point x="299" y="750" type="line"/>
    </contour>
    <contour>
      <point x="196" y="730" type="line"/>
      <point x="125" y="730" type="line"/>
      <point x="125" y="750" type="line"/>
      <point x="222" y="750" type="line"/>
      <point x="62" y="0" type="line"/>
      <point x="40" y="0" type="line"/>
    </contour>
    <contour>
      <point x="-25" y="20" type="line"/>
      <point x="137" y="20" type="line"/>
      <point x="137" y="0" type="line"/>
      <point x="-25" y="0" type="line"/>
    </contour>
  </outline>
</glyph>
<glyph name="N" format="2">
  <advance width="715"/>
  <unicode hex="004E"/>
  <outline>
    <contour>
      <point x="693" y="750" type="line"/>
      <point x="715" y="750" type="line"/>
      <point x="542" y="-10" type="line"/>
      <point x="507" y="-10" type="line"/>
      <point x="225" y="750" type="line"/>
      <point x="340" y="750" type="line"/>
      <point x="558" y="157" type="line"/>
    </contour>
    <contour>
      <point x="573" y="750" type="line"/>
      <point x="810" y="750" type="line"/>
      <point x="810" y="730" type="line"/>
      <point x="573" y="730" type="line"/>
    </contour>
    <contour>
      <point x="-35" y="20" type="line"/>
      <point x="207" y="20" type="line"/>
      <point x="207" y="0" type="line"/>
      <point x="-35" y="0" type="line"/>
    </contour>
    <contour>
      <point x="226" y="730" type="line"/>
      <point x="125" y="730" type="line"/>
      <point x="125" y="750" type="line"/>
      <point x="252" y="750" type="line"/>
      <point x="82" y="0" type="line"/>
      <point x="60" y="0" type="line"/>
    </contour>
  </outline>
</glyph>
<glyph name="P" format="2">
  <advance width="4840"/>
  <unicode hex="0050"/>
  <outline>
    <contour>
      <point x="1720" y="6000" type="line"/>
      <point x="2480" y="6000" type="line"/>
      <point x="1080" y="0" type="line"/>
      <point x="320" y="0" type="line"/>
    </contour>
    <contour>
      <point x="-320" y="160" type="line"/>
      <point x="1880" y="160" type="line"/>
      <point x="1880" y="0" type="line"/>
      <point x="-320" y="0" type="line"/>
    </contour>
    <contour>
      <point x="2480" y="2640" type="curve" smooth="yes"/>
      <point x="1600" y="2640" type="line"/>
      <point x="1600" y="2800" type="line"/>
      <point x="2480" y="2800" type="line" smooth="yes"/>
      <point x="3568" y="2800"/>
      <point x="4200" y="3848"/>
      <point x="4200" y="4720" type="curve" smooth="yes"/>
      <point x="4200" y="5192"/>
      <point x="4048" y="5840"/>
      <point x="3280" y="5840" type="curve" smooth="yes"/>
      <point x="1000" y="5840" type="line"/>
      <point x="1000" y="6000" type="line"/>
      <point x="3280" y="6000" type="line" smooth="yes"/>
      <point x="4328" y="6000"/>
      <point x="5080" y="5600"/>
      <point x="5080" y="4640" type="curve" smooth="yes"/>
      <point x="5080" y="3440"/>
      <point x="4088" y="2640"/>
    </contour>
  </outline>
</glyph>
<glyph name="Q" format="1">
  <advance width="715"/>
  <unicode hex="0051"/>
  <outline>
    <contour>
      <point x="425" y="-230" type="curve"/>
      <point x="425" y="-250" type="line"/>
      <point x="232" y="-250"/>
      <point x="195" y="-173"/>
      <point x="245" y="0" type="curve"/>
      <point x="283" y="0"/>
      <point x="322" y="0"/>
      <point x="360" y="0" type="curve"/>
      <point x="310" y="-182"/>
      <point x="351" y="-230"/>
    </contour>
    <contour>
      <point x="470" y="743" type="curve" smooth="yes"/>
      <point x="286" y="743"/>
      <point x="165" y="427"/>
      <point x="165" y="195" type="curve" smooth="yes"/>
      <point x="165" y="93"/>
      <point x="196" y="7"/>
      <point x="300" y="7" type="curve" smooth="yes"/>
      <point x="494" y="7"/>
      <point x="605" y="323"/>
      <point x="605" y="555" type="curve" smooth="yes"/>
      <point x="605" y="637"/>
      <point x="574" y="743"/>
    </contour>
    <contour>
      <point x="300" y="-10" type="curve" smooth="yes"/>
      <point x="147" y="-10"/>
      <point x="55" y="92"/>
      <point x="55" y="255" type="curve" smooth="yes"/>
      <point x="55" y="528"/>
      <point x="257" y="760"/>
      <point x="470" y="760" type="curve" smooth="yes"/>
      <point x="613" y="760"/>
      <point x="715" y="658"/>
      <point x="715" y="495" type="curve" smooth="yes"/>
      <point x="715" y="222"/>
      <point x="523" y="-10"/>
    </contour>
  </outline>
</glyph>
<glyph name="R" format="2">
  <advance width="5720"/>
  <unicode hex="0052"/>
  <outline>
    <contour>
      <point x="5200" y="96" type="line"/>
      <point x="4912" y="-16"/>
      <point x="4768" y="-40"/>
      <point x="4480" y="-40" type="curve" smooth="yes"/>
      <point x="2616" y="-40"/>
      <point x="4608" y="3000"/>
      <point x="2640" y="3000" type="curve" smooth="yes"/>
      <point x="1720" y="3000" type="line"/>
      <point x="1720" y="3080" type="line"/>
      <point x="2800" y="3080" type="line" smooth="yes"/>
      <point x="5544" y="3080"/>
      <point x="3776" y="152"/>
      <point x="4760" y="152" type="curve" smooth="yes"/>
      <point x="4928" y="152"/>
      <point x="5040" y="200"/>
      <point x="5152" y="248" type="curve"/>
    </contour>
    <contour>
      <point x="1880" y="6000" type="line"/>
      <point x="2640" y="6000" type="line"/>
      <point x="1240" y="0" type="line"/>
      <point x="480" y="0" type="line"/>
    </contour>
    <contour>
      <point x="-320" y="160" type="line"/>
      <point x="2120" y="160" type="line"/>
      <point x="2120" y="0" type="line"/>
      <point x="-320" y="0" type="line"/>
    </contour>
    <contour>
      <point x="2880" y="3056" type="curve" smooth="yes"/>
      <point x="1720" y="3056" type="line"/>
      <point x="1720" y="3160" type="line"/>
      <point x="2880" y="3160" type="line" smooth="yes"/>
      <point x="3968" y="3160"/>
      <point x="4520" y="4088"/>
      <point x="4520" y="4880" type="curve" smooth="yes"/>
      <point x="4520" y="5272"/>
      <point x="4448" y="5840"/>
      <point x="3680" y="5840" type="curve" smooth="yes"/>
      <point x="1000" y="5840" type="line"/>
      <point x="1000" y="6000" type="line"/>
      <point x="3680" y="6000" type="line" smooth="yes"/>
      <point x="4728" y="6000"/>
      <point x="5400" y="5680"/>
      <point x="5400" y="4800" type="curve" smooth="yes"/>
      <point x="5400" y="3680"/>
      <point x="4488" y="3056"/>
    </contour>
  </outline>
</glyph>
<glyph name="S" format="2">
  <advance width="4448"/>
  <unicode hex="0053"/>
  <outline>
    <contour>
      <point x="4296" y="4928" type="line"/>
      <point x="4088" y="5480" type="line"/>
      <point x="4608" y="6080" type="line"/>
      <point x="4728" y="6080" type="line"/>
      <point x="4368" y="4440" type="line"/>
      <point x="4208" y="4440" type="line"/>
    </contour>
    <contour>
      <point x="4368" y="4440" type="curve"/>
      <point x="4208" y="4440" type="line"/>
      <point x="4208" y="5312"/>
      <point x="3752" y="5896"/>
      <point x="2920" y="5896" type="curve" smooth="yes"/>
      <point x="2312" y="5896"/>
      <point x="1584" y="5472"/>
      <point x="1584" y="4840" type="curve" smooth="yes"/>
      <point x="1584" y="3360"/>
      <point x="4024" y="3920"/>
      <point x="4024" y="1760" type="curve" smooth="yes"/>
      <point x="4024" y="640"/>
      <point x="2992" y="-120"/>
      <point x="1864" y="-120" type="curve" smooth="yes"/>
      <point x="616" y="-120"/>
      <point x="256" y="600"/>
      <point x="224" y="1560" type="curve"/>
      <point x="384" y="1560" type="line"/>
      <point x="384" y="768"/>
      <point x="752" y="56"/>
      <point x="1784" y="56" type="curve" smooth="yes"/>
      <point x="2632" y="56"/>
      <point x="3384" y="528"/>
      <point x="3384" y="1320" type="curve" smooth="yes"/>
      <point x="3384" y="2960"/>
      <point x="944" y="2520"/>
      <point x="944" y="4280" type="curve" smooth="yes"/>
      <point x="944" y="5480"/>
      <point x="2112" y="6080"/>
      <point x="2840" y="6080" type="curve" smooth="yes"/>
      <point x="3864" y="6080"/>
      <point x="4368" y="5488"/>
    </contour>
    <contour>
      <point x="-40" y="-80" type="line"/>
      <point x="-160" y="-80" type="line"/>
      <point x="224" y="1560" type="line"/>
      <point x="384" y="1560" type="line"/>
      <point x="368" y="1048" type="line"/>
      <point x="520" y="592" type="line"/>
    </contour>
  </outline>
</glyph>
<glyph name="T" format="2">
  <advance width="622"/>
  <unicode hex="0054"/>
  <outline>
    <contour>
      <point x="103" y="20" type="line"/>
      <point x="418" y="20" type="line"/>
      <point x="418" y="0" type="line"/>
      <point x="103" y="0" type="line"/>
    </contour>
    <contour>
      <point x="377" y="750" type="line"/>
      <point x="472" y="750" type="line"/>
      <point x="298" y="0" type="line"/>
      <point x="203" y="0" type="line"/>
    </contour>
    <contour>
      <point x="567" y="730" type="curve" smooth="yes"/>
      <point x="272" y="730" type="line" smooth="yes"/>
      <point x="155" y="730"/>
      <point x="124" y="651"/>
      <point x="95" y="525" type="curve"/>
      <point x="75" y="525" type="line"/>
      <point x="127" y="750" type="line"/>
      <point x="722" y="750" type="line"/>
      <point x="670" y="525" type="line"/>
      <point x="650" y="525" type="line"/>
      <point x="679" y="652"/>
      <point x="684" y="730"/>
    </contour>
  </outline>
</glyph>
<glyph name="U" format="2">
  <advance width="684"/>
  <unicode hex="0055"/>
  <outline>
    <contour>
      <point x="584" y="750" type="line"/>
      <point x="779" y="750" type="line"/>
      <point x="779" y="730" type="line"/>
      <point x="584" y="730" type="line"/>
    </contour>
    <contour>
      <point x="124" y="750" type="line"/>
      <point x="409" y="750" type="line"/>
      <point x="409" y="730" type="line"/>
      <point x="124" y="730" type="line"/>
    </contour>
    <contour>
      <point x="679" y="750" type="line"/>
      <point x="699" y="750" type="line"/>
      <point x="579" y="230" type="line" smooth="yes"/>
      <point x="543" y="73"/>
      <point x="467" y="-15"/>
      <point x="309" y="-15" type="curve" smooth="yes"/>
      <point x="146" y="-15"/>
      <point x="61" y="66"/>
      <point x="99" y="230" type="curve" smooth="yes"/>
      <point x="219" y="750" type="line"/>
      <point x="314" y="750" type="line"/>
      <point x="194" y="240" type="line" smooth="yes"/>
      <point x="165" y="115"/>
      <point x="195" y="10"/>
      <point x="329" y="10" type="curve" smooth="yes"/>
      <point x="443" y="10"/>
      <point x="526" y="86"/>
      <point x="559" y="230" type="curve" smooth="yes"/>
    </contour>
  </outline>
</glyph>
<glyph name="V" format="2">
  <advance width="5760"/>
  <unicode hex="0056"/>
  <outline>
    <contour>
      <point x="6560" y="5840" type="line"/>
      <point x="4800" y="5840" type="line"/>
      <point x="4800" y="6000" type="line"/>
      <point x="6560" y="6000" type="line"/>
    </contour>
    <contour>
      <point x="3280" y="5840" type="line"/>
      <point x="960" y="5840" type="line"/>
      <point x="960" y="6000" type="line"/>
      <point x="3280" y="6000" type="line"/>
    </contour>
    <contour>
      <point x="2872" y="928" type="line"/>
      <point x="5768" y="6000" type="line"/>
      <point x="5968" y="6000" type="line"/>
      <point x="2456" y="-120" type="line"/>
      <point x="2280" y="-120" type="line"/>
      <point x="1520" y="6000" type="line"/>
      <point x="2360" y="6000" type="line"/>
    </contour>
  </outline>
</glyph>
<glyph name="W" format="2">
  <advance width="7704"/>
  <unicode hex="0057"/>
  <outline>
    <contour>
      <point x="2816" y="1096" type="line"/>
      <point x="4096" y="3336" type="line"/>
      <point x="4288" y="3336" type="line"/>
      <point x="2344" y="-80" type="line"/>
      <point x="2144" y="-80" type="line"/>
      <point x="1696" y="6000" type="line"/>
      <point x="2456" y="6000" type="line"/>
    </contour>
    <contour>
      <point x="4608" y="3336" type="line"/>
      <point x="4416" y="3336" type="line"/>
      <point x="5936" y="6000" type="line"/>
      <point x="6128" y="6000" type="line"/>
    </contour>
    <contour>
      <point x="8504" y="5840" type="line"/>
      <point x="6984" y="5840" type="line"/>
      <point x="6984" y="6000" type="line"/>
      <point x="8504" y="6000" type="line"/>
    </contour>
    <contour>
      <point x="6600" y="5840" type="line"/>
      <point x="960" y="5840" type="line"/>
      <point x="960" y="6000" type="line"/>
      <point x="6600" y="6000" type="line"/>
    </contour>
    <contour>
      <point x="4904" y="1096" type="line"/>
      <point x="7704" y="6000" type="line"/>
      <point x="7896" y="6000" type="line"/>
      <point x="4432" y="-80" type="line"/>
      <point x="4232" y="-80" type="line"/>
      <point x="3784" y="6000" type="line"/>
      <point x="4544" y="6000" type="line"/>
    </contour>
  </outline>
</glyph>
<glyph name="X" format="2">
  <advance width="725"/>
  <unicode hex="0058"/>
  <outline>
    <contour>
      <point x="399" y="377" type="line"/>
      <point x="366" y="377" type="line"/>
      <point x="673" y="748" type="line"/>
      <point x="701" y="748" type="line"/>
    </contour>
    <contour>
      <point x="64" y="0" type="line"/>
      <point x="33" y="0" type="line"/>
      <point x="380" y="417" type="line"/>
      <point x="410" y="417" type="line"/>
    </contour>
    <contour>
      <point x="380" y="20" type="line"/>
      <point x="660" y="20" type="line"/>
      <point x="660" y="0" type="line"/>
      <point x="380" y="0" type="line"/>
    </contour>
    <contour>
      <point x="-50" y="20" type="line"/>
      <point x="190" y="20" type="line"/>
      <point x="190" y="0" type="line"/>
      <point x="-50" y="0" type="line"/>
    </contour>
    <contour>
      <point x="435" y="730" type="line"/>
      <point x="155" y="730" type="line"/>
      <point x="155" y="750" type="line"/>
      <point x="435" y="750" type="line"/>
    </contour>
    <contour>
      <point x="785" y="730" type="line"/>
      <point x="565" y="730" type="line"/>
      <point x="565" y="750" type="line"/>
      <point x="785" y="750" type="line"/>
    </contour>
    <contour>
      <point x="591" y="0" type="line"/>
      <point x="476" y="0" type="line"/>
      <point x="225" y="750" type="line"/>
      <point x="336" y="750" type="line"/>
    </contour>
  </outline>
</glyph>
<glyph name="Z" format="2">
  <advance width="4392"/>
  <unicode hex="005A"/>
  <outline>
    <contour>
      <point x="3952" y="5840" type="line"/>
      <point x="2512" y="5840" type="line" smooth="yes"/>
      <point x="1416" y="5840"/>
      <point x="1152" y="5496"/>
      <point x="952" y="4640" type="curve"/>
      <point x="792" y="4640" type="line"/>
      <point x="1112" y="6000" type="line"/>
      <point x="4912" y="6000" type="line"/>
      <point x="4912" y="5840" type="line"/>
      <point x="560" y="160" type="line"/>
      <point x="2240" y="160" type="line" smooth="yes"/>
      <point x="3336" y="160"/>
      <point x="3600" y="512"/>
      <point x="3832" y="1520" type="curve"/>
      <point x="3992" y="1520" type="line"/>
      <point x="3640" y="0" type="line"/>
      <point x="-400" y="0" type="line"/>
      <point x="-400" y="160" type="line"/>
    </contour>
  </outline>
</glyph>
<glyph name="bracketleft" format="2">
  <advance width="2680"/>
  <unicode hex="005B"/>
  <outline>
    <contour>
      <point x="1600" y="6240" type="line"/>
      <point x="3520" y="6240" type="line"/>
      <point x="3520" y="6080" type="line"/>
      <point x="2280" y="6080" type="line"/>
      <point x="680" y="-1040" type="line"/>
      <point x="1840" y="-1040" type="line"/>
      <point x="1840" y="-1200" type="line"/>
      <point x="-80" y="-1200" type="line"/>
    </contour>
  </outline>
</glyph>
<glyph name="grave" format="2">
  <advance width="395"/>
  <unicode hex="0060"/>
  <outline>
    <contour>
      <point x="224" y="720" type="line" smooth="yes"/>
      <point x="205" y="721"/>
      <point x="189" y="736"/>
      <point x="189" y="755" type="curve" smooth="yes"/>
      <point x="189" y="774"/>
      <point x="206" y="795"/>
      <point x="234" y="788" type="curve" smooth="yes"/>
      <point x="474" y="730" type="line"/>
      <point x="469" y="710" type="line"/>
    </contour>
  </outline>
</glyph>
<glyph name="a" format="2">
  <advance width="4880"/>
  <unicode hex="0061"/>
  <outline>
    <contour>
      <point x="3032" y="2512" type="curve" smooth="yes"/>
      <point x="3032" y="3096"/>
      <point x="2752" y="3448"/>
      <point x="2424" y="3448" type="curve" smooth="yes"/>
      <point x="1672" y="3448"/>
      <point x="992" y="2192"/>
      <point x="992" y="1120" type="curve" smooth="yes"/>
      <point x="992" y="528"/>
      <point x="1184" y="152"/>
      <point x="1592" y="152" type="curve" smooth="yes"/>
      <point x="2480" y="152"/>
      <point x="3032" y="1680"/>
    </contour>
    <contour>
      <point x="3160" y="2512" type="curve" smooth="yes"/>
      <point x="3160" y="1648"/>
      <point x="2560" y="-80"/>
      <point x="1432" y="-80" type="curve" smooth="yes"/>
      <point x="880" y="-80"/>
      <point x="160" y="240"/>
      <point x="160" y="1280" type="curve" smooth="yes"/>
      <point x="160" y="2880"/>
      <point x="1416" y="3760"/>
      <point x="2208" y="3760" type="curve" smooth="yes"/>
      <point x="2816" y="3760"/>
      <point x="3160" y="3248"/>
    </contour>
    <contour>
      <point x="4680" y="1304" type="line"/>
      <point x="4376" y="504"/>
      <point x="3904" y="-80"/>
      <point x="3256" y="-80" type="curve" smooth="yes"/>
      <point x="2880" y="-80"/>
      <point x="2688" y="104"/>
      <point x="2688" y="504" type="curve" smooth="yes"/>
      <point x="2688" y="544"/>
      <point x="2696" y="632"/>
      <point x="2704" y="680" type="curve" smooth="yes"/>
      <point x="2880" y="1456" type="line"/>
      <point x="3080" y="2104" type="line"/>
      <point x="3128" y="2592" type="line"/>
      <point x="3384" y="3680" type="line"/>
      <point x="4104" y="3680" type="line"/>
      <point x="3352" y="448" type="line" smooth="yes"/>
      <point x="3344" y="400"/>
      <point x="3336" y="344"/>
      <point x="3336" y="304" type="curve" smooth="yes"/>
      <point x="3336" y="216"/>
      <point x="3376" y="152"/>
      <point x="3480" y="152" type="curve" smooth="yes"/>
      <point x="3912" y="152"/>
      <point x="4336" y="824"/>
      <point x="4520" y="1352" type="curve"/>
    </contour>
  </outline>
</glyph>
<glyph name="b" format="1">
  <advance width="568"/>
  <unicode hex="0062"/>
  <outline>
    <contour>
      <point x="209" y="730" type="line"/>
      <point x="136" y="730" type="line"/>
      <point x="136" y="750" type="line"/>
      <point x="304" y="750" type="line"/>
      <point x="164" y="140" type="line"/>
      <point x="164" y="66"/>
      <point x="182" y="7"/>
      <point x="243" y="7" type="curve" smooth="yes"/>
      <point x="347" y="7"/>
      <point x="429" y="195"/>
      <point x="429" y="329" type="curve" smooth="yes"/>
      <point x="429" y="403"/>
      <point x="405" y="440"/>
      <point x="354" y="440" type="curve" smooth="yes"/>
      <point x="278" y="440"/>
      <point x="211" y="344"/>
      <point x="184" y="230" type="curve"/>
      <point x="174" y="230" type="line"/>
      <point x="211" y="402"/>
      <point x="295" y="469"/>
      <point x="376" y="469" type="curve" smooth="yes"/>
      <point x="443" y="469"/>
      <point x="533" y="438"/>
      <point x="533" y="310" type="curve" smooth="yes"/>
      <point x="533" y="100"/>
      <point x="390" y="-10"/>
      <point x="241" y="-10" type="curve" smooth="yes"/>
      <point x="140" y="-10"/>
      <point x="90" y="57"/>
      <point x="70" y="120" type="curve"/>
    </contour>
  </outline>
</glyph>
<glyph name="c" format="2">
  <advance width="474"/>
  <unicode hex="0063"/>
  <outline>
    <contour>
      <point x="422" y="381" type="curve"/>
      <point x="417" y="409"/>
      <point x="382" y="449"/>
      <point x="318" y="449" type="curve" smooth="yes"/>
      <point x="189" y="449"/>
      <point x="124" y="264"/>
      <point x="124" y="140" type="curve" smooth="yes"/>
      <point x="124" y="56"/>
      <point x="145" y="14"/>
      <point x="199" y="14" type="curve" smooth="yes"/>
      <point x="264" y="14"/>
      <point x="345" y="60"/>
      <point x="390" y="143" type="curve"/>
      <point x="409" y="143" type="line"/>
      <point x="363" y="46"/>
      <point x="270" y="-10"/>
      <point x="179" y="-10" type="curve" smooth="yes"/>
      <point x="108" y="-10"/>
      <point x="20" y="30"/>
      <point x="20" y="160" type="curve" smooth="yes"/>
      <point x="20" y="350"/>
      <point x="167" y="470"/>
      <point x="298" y="470" type="curve" smooth="yes"/>
      <point x="390" y="470"/>
      <point x="449" y="423"/>
      <point x="449" y="351" type="curve" smooth="yes"/>
      <point x="449" y="300"/>
      <point x="417" y="279"/>
      <point x="387" y="279" type="curve" smooth="yes"/>
      <point x="362" y="279"/>
      <point x="330" y="295"/>
      <point x="330" y="335" type="curve" smooth="yes"/>
      <point x="330" y="370"/>
      <point x="358" y="390"/>
      <point x="387" y="390" type="curve" smooth="yes"/>
      <point x="408" y="390"/>
      <point x="418" y="382"/>
    </contour>
  </outline>
</glyph>
<glyph name="d" format="2">
  <advance width="4880"/>
  <unicode hex="0064"/>
  <outline>
    <contour>
      <point x="4720" y="1304" type="line"/>
      <point x="4416" y="504"/>
      <point x="3944" y="-80"/>
      <point x="3296" y="-80" type="curve" smooth="yes"/>
      <point x="2920" y="-80"/>
      <point x="2728" y="104"/>
      <point x="2728" y="504" type="curve" smooth="yes"/>
      <point x="2728" y="544"/>
      <point x="2736" y="632"/>
      <point x="2744" y="680" type="curve" smooth="yes"/>
      <point x="2880" y="1456" type="line"/>
      <point x="3080" y="2104" type="line"/>
      <point x="3128" y="2592" type="line"/>
      <point x="3848" y="5840" type="line"/>
      <point x="3136" y="5840" type="line"/>
      <point x="3136" y="6000" type="line"/>
      <point x="4600" y="6000" type="line"/>
      <point x="3392" y="448" type="line" smooth="yes"/>
      <point x="3384" y="400"/>
      <point x="3376" y="344"/>
      <point x="3376" y="304" type="curve" smooth="yes"/>
      <point x="3376" y="216"/>
      <point x="3416" y="152"/>
      <point x="3520" y="152" type="curve" smooth="yes"/>
      <point x="3952" y="152"/>
      <point x="4376" y="824"/>
      <point x="4560" y="1352" type="curve"/>
    </contour>
    <contour>
      <point x="3032" y="2512" type="curve" smooth="yes"/>
      <point x="3032" y="3096"/>
      <point x="2752" y="3448"/>
      <point x="2424" y="3448" type="curve" smooth="yes"/>
      <point x="1672" y="3448"/>
      <point x="992" y="2192"/>
      <point x="992" y="1120" type="curve" smooth="yes"/>
      <point x="992" y="528"/>
      <point x="1184" y="152"/>
      <point x="1592" y="152" type="curve" smooth="yes"/>
      <point x="2480" y="152"/>
      <point x="3032" y="1680"/>
    </contour>
    <contour>
      <point x="3160" y="2512" type="curve" smooth="yes"/>
      <point x="3160" y="1648"/>
      <point x="2560" y="-80"/>
      <point x="1432" y="-80" type="curve" smooth="yes"/>
      <point x="880" y="-80"/>
      <point x="160" y="240"/>
      <point x="160" y="1280" type="curve" smooth="yes"/>
      <point x="160" y="2880"/>
      <point x="1416" y="3760"/>
      <point x="2208" y="3760" type="curve" smooth="yes"/>
      <point x="2816" y="3760"/>
      <point x="3160" y="3248"/>
    </contour>
  </outline>
</glyph>
<glyph name="e" format="2">
  <advance width="3792"/>
  <unicode hex="0065"/>
  <outline>
    <contour>
      <point x="992" y="1120" type="curve" smooth="yes"/>
      <point x="992" y="528"/>
      <point x="1120" y="120"/>
      <point x="1592" y="120" type="curve" smooth="yes"/>
      <point x="2256" y="120"/>
      <point x="2816" y="584"/>
      <point x="3120" y="1144" type="curve"/>
      <point x="3272" y="1144" type="line"/>
      <point x="2960" y="528"/>
      <point x="2320" y="-80"/>
      <point x="1432" y="-80" type="curve" smooth="yes"/>
      <point x="784" y="-80"/>
      <point x="160" y="320"/>
      <point x="160" y="1280" type="curve" smooth="yes"/>
      <point x="160" y="2824"/>
      <point x="1360" y="3760"/>
      <point x="2408" y="3760" type="curve" smooth="yes"/>
      <point x="3144" y="3760"/>
      <point x="3632" y="3552"/>
      <point x="3632" y="2976" type="curve" smooth="yes"/>
      <point x="3632" y="1696"/>
      <point x="1728" y="1696"/>
      <point x="840" y="1696" type="curve"/>
      <point x="840" y="1856" type="line"/>
      <point x="1712" y="1856"/>
      <point x="2864" y="1904"/>
      <point x="2864" y="2976" type="curve" smooth="yes"/>
      <point x="2864" y="3352"/>
      <point x="2776" y="3616"/>
      <point x="2488" y="3616" type="curve" smooth="yes"/>
      <point x="1776" y="3616"/>
      <point x="992" y="2432"/>
    </contour>
  </outline>
</glyph>
<glyph name="f" format="2">
  <advance width="2768"/>
  <unicode hex="0066"/>
  <outline>
    <contour>
      <point x="456" y="3680" type="line"/>
      <point x="3016" y="3680" type="line"/>
      <point x="3016" y="3520" type="line"/>
      <point x="456" y="3520" type="line"/>
    </contour>
    <contour>
      <point x="3720" y="5648" type="curve"/>
      <point x="3648" y="5744"/>
      <point x="3520" y="5920"/>
      <point x="3104" y="5920" type="curve" smooth="yes"/>
      <point x="2544" y="5920"/>
      <point x="2152" y="5296"/>
      <point x="1976" y="4320" type="curve" smooth="yes"/>
      <point x="1168" y="-96" type="line" smooth="yes"/>
      <point x="984" y="-1096"/>
      <point x="344" y="-2080"/>
      <point x="-696" y="-2080" type="curve" smooth="yes"/>
      <point x="-1344" y="-2080"/>
      <point x="-1600" y="-1624"/>
      <point x="-1600" y="-1288" type="curve" smooth="yes"/>
      <point x="-1600" y="-960"/>
      <point x="-1384" y="-792"/>
      <point x="-1144" y="-792" type="curve" smooth="yes"/>
      <point x="-944" y="-792"/>
      <point x="-696" y="-904"/>
      <point x="-696" y="-1224" type="curve" smooth="yes"/>
      <point x="-696" y="-1544"/>
      <point x="-944" y="-1672"/>
      <point x="-1176" y="-1672" type="curve" smooth="yes"/>
      <point x="-1256" y="-1672"/>
      <point x="-1296" y="-1648"/>
      <point x="-1312" y="-1648" type="curve"/>
      <point x="-1240" y="-1744"/>
      <point x="-1112" y="-1920"/>
      <point x="-696" y="-1920" type="curve" smooth="yes"/>
      <point x="-136" y="-1920"/>
      <point x="264" y="-1296"/>
      <point x="432" y="-320" type="curve" smooth="yes"/>
      <point x="1200" y="4096" type="line" smooth="yes"/>
      <point x="1376" y="5104"/>
      <point x="2064" y="6080"/>
      <point x="3104" y="6080" type="curve" smooth="yes"/>
      <point x="3752" y="6080"/>
      <point x="4008" y="5624"/>
      <point x="4008" y="5288" type="curve" smooth="yes"/>
      <point x="4008" y="4960"/>
      <point x="3792" y="4792"/>
      <point x="3552" y="4792" type="curve" smooth="yes"/>
      <point x="3352" y="4792"/>
      <point x="3104" y="4904"/>
      <point x="3104" y="5224" type="curve" smooth="yes"/>
      <point x="3104" y="5544"/>
      <point x="3352" y="5672"/>
      <point x="3584" y="5672" type="curve" smooth="yes"/>
      <point x="3664" y="5672"/>
      <point x="3704" y="5648"/>
    </contour>
  </outline>
</glyph>
<glyph name="g" format="2">
  <advance width="562"/>
  <unicode hex="0067"/>
  <outline>
    <contour>
      <point x="139" y="-2" type="line"/>
      <point x="94" y="-17"/>
      <point x="55" y="-80"/>
      <point x="55" y="-142" type="curve" smooth="yes"/>
      <point x="55" y="-200"/>
      <point x="75" y="-237"/>
      <point x="151" y="-237" type="curve" smooth="yes"/>
      <point x="250" y="-237"/>
      <point x="347" y="-179"/>
      <point x="347" y="-87" type="curve" smooth="yes"/>
      <point x="347" y="-33"/>
      <point x="320" y="-9"/>
      <point x="265" y="-9" type="curve" smooth="yes"/>
      <point x="244" y="-9"/>
      <point x="223" y="-9"/>
      <point x="201" y="-9" type="curve" smooth="yes"/>
      <point x="111" y="-9"/>
      <point x="38" y="-3"/>
      <point x="38" y="59" type="curve" smooth="yes"/>
      <point x="38" y="133"/>
      <point x="142" y="177"/>
      <point x="247" y="177" type="curve"/>
      <point x="245" y="168" type="line"/>
      <point x="212" y="168"/>
      <point x="110" y="150"/>
      <point x="110" y="96" type="curve" smooth="yes"/>
      <point x="110" y="69"/>
      <point x="162" y="69"/>
      <point x="217" y="69" type="curve" smooth="yes"/>
      <point x="252" y="69"/>
      <point x="260" y="70"/>
      <point x="288" y="70" type="curve" smooth="yes"/>
      <point x="363" y="70"/>
      <point x="405" y="44"/>
      <point x="405" y="-42" type="curve" smooth="yes"/>
      <point x="405" y="-163"/>
      <point x="285" y="-260"/>
      <point x="145" y="-260" type="curve" smooth="yes"/>
      <point x="32" y="-260"/>
      <point x="-40" y="-230"/>
      <point x="-40" y="-155" type="curve" smooth="yes"/>
      <point x="-40" y="-54"/>
      <point x="84" y="-2"/>
      <point x="129" y="-2" type="curve" smooth="yes"/>
    </contour>
    <contour>
      <point x="577" y="394" type="curve" smooth="yes"/>
      <point x="577" y="349"/>
      <point x="551" y="334"/>
      <point x="526" y="334" type="curve" smooth="yes"/>
      <point x="501" y="334"/>
      <point x="476" y="351"/>
      <point x="476" y="384" type="curve" smooth="yes"/>
      <point x="476" y="412"/>
      <point x="496" y="431"/>
      <point x="524" y="431" type="curve" smooth="yes"/>
      <point x="535" y="431"/>
      <point x="542" y="427"/>
      <point x="546" y="425" type="curve"/>
      <point x="536" y="441"/>
      <point x="520" y="445"/>
      <point x="498" y="445" type="curve" smooth="yes"/>
      <point x="461" y="445"/>
      <point x="410" y="412"/>
      <point x="370" y="335" type="curve"/>
      <point x="353" y="347" type="line"/>
      <point x="393" y="428"/>
      <point x="458" y="465"/>
      <point x="498" y="465" type="curve" smooth="yes"/>
      <point x="549" y="465"/>
      <point x="577" y="432"/>
    </contour>
    <contour>
      <point x="204" y="180" type="curve" smooth="yes"/>
      <point x="293" y="180"/>
      <point x="333" y="301"/>
      <point x="333" y="375" type="curve" smooth="yes"/>
      <point x="333" y="419"/>
      <point x="313" y="450"/>
      <point x="274" y="450" type="curve" smooth="yes"/>
      <point x="185" y="450"/>
      <point x="145" y="329"/>
      <point x="145" y="255" type="curve" smooth="yes"/>
      <point x="145" y="211"/>
      <point x="165" y="180"/>
    </contour>
    <contour>
      <point x="204" y="160" type="curve" smooth="yes"/>
      <point x="123" y="160"/>
      <point x="56" y="195"/>
      <point x="56" y="285" type="curve" smooth="yes"/>
      <point x="56" y="395"/>
      <point x="163" y="470"/>
      <point x="274" y="470" type="curve" smooth="yes"/>
      <point x="355" y="470"/>
      <point x="422" y="435"/>
      <point x="422" y="345" type="curve" smooth="yes"/>
      <point x="422" y="235"/>
      <point x="315" y="160"/>
    </contour>
  </outline>
</glyph>
<glyph name="h" format="2">
  <advance width="580"/>
  <unicode hex="0068"/>
  <outline>
    <contour>
      <point x="382" y="308" type="line" smooth="yes"/>
      <point x="408" y="385"/>
      <point x="400" y="440"/>
      <point x="354" y="440" type="curve" smooth="yes"/>
      <point x="296" y="440"/>
      <point x="189" y="326"/>
      <point x="154" y="173" type="curve"/>
      <point x="139" y="173" type="line"/>
      <point x="174" y="325"/>
      <point x="270" y="470"/>
      <point x="383" y="470" type="curve" smooth="yes"/>
      <point x="480" y="470"/>
      <point x="501" y="399"/>
      <point x="475" y="319" type="curve" smooth="yes"/>
      <point x="389" y="56" type="line" smooth="yes"/>
      <point x="387" y="50"/>
      <point x="386" y="43"/>
      <point x="386" y="38" type="curve" smooth="yes"/>
      <point x="386" y="27"/>
      <point x="392" y="19"/>
      <point x="405" y="19" type="curve" smooth="yes"/>
      <point x="459" y="19"/>
      <point x="512" y="103"/>
      <point x="535" y="169" type="curve"/>
      <point x="555" y="163" type="line"/>
      <point x="517" y="63"/>
      <point x="458" y="-10"/>
      <point x="377" y="-10" type="curve" smooth="yes"/>
      <point x="330" y="-10"/>
      <point x="304" y="15"/>
      <point x="304" y="58" type="curve" smooth="yes"/>
      <point x="304" y="73"/>
      <point x="307" y="85"/>
      <point x="309" y="92" type="curve" smooth="yes"/>
    </contour>
    <contour>
      <point x="190" y="730" type="line"/>
      <point x="125" y="730" type="line"/>
      <point x="125" y="750" type="line"/>
      <point x="285" y="750" type="line"/>
      <point x="115" y="0" type="line"/>
      <point x="25" y="0" type="line"/>
    </contour>
  </outline>
</glyph>
<glyph name="i" format="2">
  <advance width="2872"/>
  <unicode hex="0069"/>
  <outline>
    <contour>
      <point x="1296" y="5600" type="curve" smooth="yes"/>
      <point x="1296" y="5864"/>
      <point x="1512" y="6080"/>
      <point x="1776" y="6080" type="curve" smooth="yes"/>
      <point x="2040" y="6080"/>
      <point x="2256" y="5864"/>
      <point x="2256" y="5600" type="curve" smooth="yes"/>
      <point x="2256" y="5336"/>
      <point x="2040" y="5120"/>
      <point x="1776" y="5120" type="curve" smooth="yes"/>
      <point x="1512" y="5120"/>
      <point x="1296" y="5336"/>
    </contour>
    <contour>
      <point x="2432" y="1304" type="line"/>
      <point x="2128" y="504"/>
      <point x="1656" y="-80"/>
      <point x="1008" y="-80" type="curve" smooth="yes"/>
      <point x="632" y="-80"/>
      <point x="440" y="104"/>
      <point x="440" y="504" type="curve" smooth="yes"/>
      <point x="440" y="544"/>
      <point x="448" y="632"/>
      <point x="456" y="680" type="curve" smooth="yes"/>
      <point x="1096" y="3520" type="line"/>
      <point x="560" y="3520" type="line"/>
      <point x="560" y="3680" type="line"/>
      <point x="1856" y="3680" type="line"/>
      <point x="1104" y="448" type="line" smooth="yes"/>
      <point x="1096" y="400"/>
      <point x="1088" y="344"/>
      <point x="1088" y="304" type="curve" smooth="yes"/>
      <point x="1088" y="216"/>
      <point x="1128" y="152"/>
      <point x="1232" y="152" type="curve" smooth="yes"/>
      <point x="1664" y="152"/>
      <point x="2088" y="824"/>
      <point x="2272" y="1352" type="curve"/>
    </contour>
  </outline>
</glyph>
<glyph name="j" format="2">
  <advance width="2176"/>
  <unicode hex="006A"/>
  <outline>
    <contour>
      <point x="1376" y="5600" type="curve" smooth="yes"/>
      <point x="1376" y="5864"/>
      <point x="1592" y="6080"/>
      <point x="1856" y="6080" type="curve" smooth="yes"/>
      <point x="2120" y="6080"/>
      <point x="2336" y="5864"/>
      <point x="2336" y="5600" type="curve" smooth="yes"/>
      <point x="2336" y="5336"/>
      <point x="2120" y="5120"/>
      <point x="1856" y="5120" type="curve" smooth="yes"/>
      <point x="1592" y="5120"/>
      <point x="1376" y="5336"/>
    </contour>
    <contour>
      <point x="-1120" y="-1560" type="curve"/>
      <point x="-1024" y="-1744"/>
      <point x="-832" y="-1920"/>
      <point x="-576" y="-1920" type="curve" smooth="yes"/>
      <point x="144" y="-1920"/>
      <point x="176" y="-800"/>
      <point x="400" y="160" type="curve" smooth="yes"/>
      <point x="1184" y="3520" type="line"/>
      <point x="464" y="3520" type="line"/>
      <point x="464" y="3680" type="line"/>
      <point x="1904" y="3680" type="line"/>
      <point x="1120" y="-96" type="line" smooth="yes"/>
      <point x="912" y="-1096"/>
      <point x="504" y="-2080"/>
      <point x="-536" y="-2080" type="curve" smooth="yes"/>
      <point x="-1104" y="-2080"/>
      <point x="-1360" y="-1544"/>
      <point x="-1360" y="-1248" type="curve" smooth="yes"/>
      <point x="-1360" y="-920"/>
      <point x="-1104" y="-712"/>
      <point x="-864" y="-712" type="curve" smooth="yes"/>
      <point x="-664" y="-712"/>
      <point x="-456" y="-848"/>
      <point x="-456" y="-1144" type="curve" smooth="yes"/>
      <point x="-456" y="-1440"/>
      <point x="-688" y="-1592"/>
      <point x="-960" y="-1592" type="curve" smooth="yes"/>
      <point x="-984" y="-1592"/>
      <point x="-1072" y="-1584"/>
    </contour>
  </outline>
</glyph>
<glyph name="k" format="2">
  <advance width="4496"/>
  <unicode hex="006B"/>
  <outline>
    <contour>
      <point x="4296" y="1304" type="line"/>
      <point x="3992" y="504"/>
      <point x="3520" y="-80"/>
      <point x="2872" y="-80" type="curve" smooth="yes"/>
      <point x="2496" y="-80"/>
      <point x="2328" y="104"/>
      <point x="2328" y="504" type="curve" smooth="yes"/>
      <point x="2328" y="544"/>
      <point x="2336" y="632"/>
      <point x="2344" y="680" type="curve" smooth="yes"/>
      <point x="2440" y="1120" type="line" smooth="yes"/>
      <point x="2544" y="1584"/>
      <point x="2816" y="2168"/>
      <point x="2224" y="2168" type="curve" smooth="yes"/>
      <point x="1656" y="2168"/>
      <point x="1544" y="1792"/>
      <point x="1472" y="1520" type="curve"/>
      <point x="1352" y="1520" type="line"/>
      <point x="1528" y="2256"/>
      <point x="1960" y="2312"/>
      <point x="2288" y="2312" type="curve" smooth="yes"/>
      <point x="2840" y="2312"/>
      <point x="3336" y="2008"/>
      <point x="3096" y="968" type="curve" smooth="yes"/>
      <point x="2952" y="352" type="line" smooth="yes"/>
      <point x="2952" y="336"/>
      <point x="2944" y="296"/>
      <point x="2944" y="280" type="curve" smooth="yes"/>
      <point x="2944" y="192"/>
      <point x="3000" y="152"/>
      <point x="3104" y="152" type="curve" smooth="yes"/>
      <point x="3528" y="152"/>
      <point x="3952" y="824"/>
      <point x="4136" y="1352" type="curve"/>
    </contour>
    <contour>
      <point x="1344" y="2584" type="curve"/>
      <point x="1536" y="2496" type="line"/>
      <point x="1560" y="2256"/>
      <point x="1680" y="2088"/>
      <point x="1936" y="2088" type="curve" smooth="yes"/>
      <point x="2256" y="2088"/>
      <point x="2416" y="2384"/>
      <point x="2624" y="2896" type="curve" smooth="yes"/>
      <point x="2848" y="3440"/>
      <point x="3120" y="3760"/>
      <point x="3520" y="3760" type="curve" smooth="yes"/>
      <point x="3880" y="3760"/>
      <point x="4176" y="3528"/>
      <point x="4176" y="3112" type="curve" smooth="yes"/>
      <point x="4176" y="2752"/>
      <point x="3968" y="2632"/>
      <point x="3768" y="2632" type="curve" smooth="yes"/>
      <point x="3568" y="2632"/>
      <point x="3368" y="2768"/>
      <point x="3368" y="3032" type="curve" smooth="yes"/>
      <point x="3368" y="3256"/>
      <point x="3528" y="3408"/>
      <point x="3752" y="3408" type="curve" smooth="yes"/>
      <point x="3840" y="3408"/>
      <point x="3896" y="3376"/>
      <point x="3928" y="3360" type="curve"/>
      <point x="3880" y="3544"/>
      <point x="3688" y="3600"/>
      <point x="3544" y="3600" type="curve" smooth="yes"/>
      <point x="3200" y="3600"/>
      <point x="3000" y="3368"/>
      <point x="2792" y="2848" type="curve" smooth="yes"/>
      <point x="2576" y="2304"/>
      <point x="2336" y="1936"/>
      <point x="1936" y="1936" type="curve" smooth="yes"/>
      <point x="1608" y="1936"/>
      <point x="1344" y="2168"/>
    </contour>
    <contour>
      <point x="1752" y="5840" type="line"/>
      <point x="1072" y="5840" type="line"/>
      <point x="1072" y="6000" type="line"/>
      <point x="2512" y="6000" type="line"/>
      <point x="1120" y="0" type="line"/>
      <point x="400" y="0" type="line"/>
    </contour>
  </outline>
</glyph>
<glyph name="l" format="2">
  <advance width="2552"/>
  <unicode hex="006C"/>
  <outline>
    <contour>
      <point x="2352" y="1304" type="line"/>
      <point x="2048" y="504"/>
      <point x="1576" y="-80"/>
      <point x="928" y="-80" type="curve" smooth="yes"/>
      <point x="552" y="-80"/>
      <point x="360" y="104"/>
      <point x="360" y="504" type="curve" smooth="yes"/>
      <point x="360" y="544"/>
      <point x="368" y="632"/>
      <point x="376" y="680" type="curve" smooth="yes"/>
      <point x="1560" y="5840" type="line"/>
      <point x="848" y="5840" type="line"/>
      <point x="848" y="6000" type="line"/>
      <point x="2312" y="6000" type="line"/>
      <point x="1024" y="448" type="line" smooth="yes"/>
      <point x="1016" y="400"/>
      <point x="1008" y="344"/>
      <point x="1008" y="304" type="curve" smooth="yes"/>
      <point x="1008" y="216"/>
      <point x="1048" y="152"/>
      <point x="1152" y="152" type="curve" smooth="yes"/>
      <point x="1584" y="152"/>
      <point x="2008" y="824"/>
      <point x="2192" y="1352" type="curve"/>
    </contour>
  </outline>
</glyph>
<glyph name="m" format="2">
  <advance width="6792"/>
  <unicode hex="006D"/>
  <outline>
    <contour>
      <point x="5208" y="2464" type="line" smooth="yes"/>
      <point x="5416" y="3080"/>
      <point x="5400" y="3520"/>
      <point x="5032" y="3520" type="curve" smooth="yes"/>
      <point x="4568" y="3520"/>
      <point x="3760" y="2608"/>
      <point x="3456" y="1384" type="curve"/>
      <point x="3336" y="1384" type="line"/>
      <point x="3640" y="2600"/>
      <point x="4360" y="3760"/>
      <point x="5264" y="3760" type="curve" smooth="yes"/>
      <point x="6040" y="3760"/>
      <point x="6160" y="3192"/>
      <point x="5952" y="2552" type="curve" smooth="yes"/>
      <point x="5264" y="448" type="line" smooth="yes"/>
      <point x="5248" y="400"/>
      <point x="5240" y="344"/>
      <point x="5240" y="304" type="curve" smooth="yes"/>
      <point x="5240" y="216"/>
      <point x="5288" y="152"/>
      <point x="5392" y="152" type="curve" smooth="yes"/>
      <point x="5824" y="152"/>
      <point x="6248" y="824"/>
      <point x="6432" y="1352" type="curve"/>
      <point x="6592" y="1304" type="line"/>
      <point x="6288" y="504"/>
      <point x="5816" y="-80"/>
      <point x="5168" y="-80" type="curve" smooth="yes"/>
      <point x="4792" y="-80"/>
      <point x="4584" y="120"/>
      <point x="4584" y="464" type="curve" smooth="yes"/>
      <point x="4584" y="584"/>
      <point x="4608" y="680"/>
      <point x="4624" y="736" type="curve" smooth="yes"/>
    </contour>
    <contour>
      <point x="3120" y="0" type="line"/>
      <point x="2400" y="0" type="line"/>
      <point x="3000" y="2464" type="line" smooth="yes"/>
      <point x="3152" y="3096"/>
      <point x="3192" y="3520"/>
      <point x="2824" y="3520" type="curve" smooth="yes"/>
      <point x="2360" y="3520"/>
      <point x="1552" y="2608"/>
      <point x="1248" y="1384" type="curve"/>
      <point x="1128" y="1384" type="line"/>
      <point x="1432" y="2600"/>
      <point x="2152" y="3760"/>
      <point x="3056" y="3760" type="curve" smooth="yes"/>
      <point x="3832" y="3760"/>
      <point x="3904" y="3200"/>
      <point x="3744" y="2552" type="curve" smooth="yes"/>
    </contour>
    <contour>
      <point x="1040" y="3520" type="line"/>
      <point x="520" y="3520" type="line"/>
      <point x="520" y="3680" type="line"/>
      <point x="1800" y="3680" type="line"/>
      <point x="920" y="0" type="line"/>
      <point x="200" y="0" type="line"/>
    </contour>
  </outline>
</glyph>
<glyph name="n" format="2">
  <advance width="4680"/>
  <unicode hex="006E"/>
  <outline>
    <contour>
      <point x="1040" y="3520" type="line"/>
      <point x="520" y="3520" type="line"/>
      <point x="520" y="3680" type="line"/>
      <point x="1800" y="3680" type="line"/>
      <point x="920" y="0" type="line"/>
      <point x="200" y="0" type="line"/>
    </contour>
    <contour>
      <point x="3096" y="2464" type="line" smooth="yes"/>
      <point x="3304" y="3080"/>
      <point x="3240" y="3520"/>
      <point x="2872" y="3520" type="curve" smooth="yes"/>
      <point x="2408" y="3520"/>
      <point x="1552" y="2608"/>
      <point x="1248" y="1384" type="curve"/>
      <point x="1128" y="1384" type="line"/>
      <point x="1432" y="2600"/>
      <point x="2200" y="3760"/>
      <point x="3104" y="3760" type="curve" smooth="yes"/>
      <point x="3880" y="3760"/>
      <point x="4048" y="3192"/>
      <point x="3840" y="2552" type="curve" smooth="yes"/>
      <point x="3152" y="448" type="line" smooth="yes"/>
      <point x="3136" y="400"/>
      <point x="3128" y="344"/>
      <point x="3128" y="304" type="curve" smooth="yes"/>
      <point x="3128" y="216"/>
      <point x="3176" y="152"/>
      <point x="3280" y="152" type="curve" smooth="yes"/>
      <point x="3712" y="152"/>
      <point x="4136" y="824"/>
      <point x="4320" y="1352" type="curve"/>
      <point x="4480" y="1304" type="line"/>
      <point x="4176" y="504"/>
      <point x="3704" y="-80"/>
      <point x="3056" y="-80" type="curve" smooth="yes"/>
      <point x="2680" y="-80"/>
      <point x="2464" y="120"/>
      <point x="2464" y="464" type="curve" smooth="yes"/>
      <point x="2464" y="584"/>
      <point x="2488" y="664"/>
      <point x="2512" y="736" type="curve" smooth="yes"/>
    </contour>
  </outline>
</glyph>
<glyph name="o" format="2">
  <advance width="4256"/>
  <unicode hex="006F"/>
  <outline>
    <contour>
      <point x="1592" y="-80" type="curve" smooth="yes"/>
      <point x="864" y="-80"/>
      <point x="160" y="240"/>
      <point x="160" y="1280" type="curve" smooth="yes"/>
      <point x="160" y="2800"/>
      <point x="1336" y="3760"/>
      <point x="2544" y="3760" type="curve" smooth="yes"/>
      <point x="3272" y="3760"/>
      <point x="3976" y="3440"/>
      <point x="3976" y="2400" type="curve" smooth="yes"/>
      <point x="3976" y="880"/>
      <point x="2800" y="-80"/>
    </contour>
    <contour>
      <point x="1592" y="88" type="curve" smooth="yes"/>
      <point x="2624" y="88"/>
      <point x="3144" y="1568"/>
      <point x="3144" y="2560" type="curve" smooth="yes"/>
      <point x="3144" y="3232"/>
      <point x="2976" y="3592"/>
      <point x="2544" y="3592" type="curve" smooth="yes"/>
      <point x="1512" y="3592"/>
      <point x="992" y="2112"/>
      <point x="992" y="1120" type="curve" smooth="yes"/>
      <point x="992" y="448"/>
      <point x="1160" y="88"/>
    </contour>
  </outline>
</glyph>
<glyph name="p" format="2">
  <advance width="4480"/>
  <unicode hex="0070"/>
  <outline>
    <contour>
      <point x="1368" y="1160" type="curve" smooth="yes"/>
      <point x="1368" y="576"/>
      <point x="1648" y="224"/>
      <point x="1976" y="224" type="curve" smooth="yes"/>
      <point x="2728" y="224"/>
      <point x="3408" y="1480"/>
      <point x="3408" y="2552" type="curve" smooth="yes"/>
      <point x="3408" y="3144"/>
      <point x="3216" y="3520"/>
      <point x="2808" y="3520" type="curve" smooth="yes"/>
      <point x="1920" y="3520"/>
      <point x="1368" y="1992"/>
    </contour>
    <contour>
      <point x="1240" y="1160" type="curve" smooth="yes"/>
      <point x="1240" y="2024"/>
      <point x="1840" y="3760"/>
      <point x="2968" y="3760" type="curve" smooth="yes"/>
      <point x="3520" y="3760"/>
      <point x="4240" y="3432"/>
      <point x="4240" y="2392" type="curve" smooth="yes"/>
      <point x="4240" y="792"/>
      <point x="2984" y="-80"/>
      <point x="2192" y="-80" type="curve" smooth="yes"/>
      <point x="1584" y="-80"/>
      <point x="1240" y="424"/>
    </contour>
    <contour>
      <point x="-720" y="-1840" type="line"/>
      <point x="1080" y="-1840" type="line"/>
      <point x="1080" y="-2000" type="line"/>
      <point x="-720" y="-2000" type="line"/>
    </contour>
    <contour>
      <point x="1072" y="3520" type="line"/>
      <point x="536" y="3520" type="line"/>
      <point x="536" y="3680" type="line"/>
      <point x="1832" y="3680" type="line"/>
      <point x="1520" y="2352" type="line"/>
      <point x="1320" y="1704" type="line"/>
      <point x="1272" y="1216" type="line"/>
      <point x="520" y="-2000" type="line"/>
      <point x="-200" y="-2000" type="line"/>
    </contour>
  </outline>
</glyph>
<glyph name="q" format="2">
  <advance width="4440"/>
  <unicode hex="0071"/>
  <outline>
    <contour>
      <point x="3352" y="-1840" type="line"/>
      <point x="3352" y="-2000" type="line"/>
      <point x="1552" y="-2000" type="line"/>
      <point x="1552" y="-1840" type="line"/>
    </contour>
    <contour>
      <point x="2792" y="-2000" type="line"/>
      <point x="2072" y="-2000" type="line"/>
      <point x="2880" y="1456" type="line"/>
      <point x="3080" y="2104" type="line"/>
      <point x="3128" y="2592" type="line"/>
      <point x="3368" y="3600" type="line"/>
      <point x="4120" y="3760" type="line"/>
    </contour>
    <contour>
      <point x="3032" y="2512" type="curve" smooth="yes"/>
      <point x="3032" y="3096"/>
      <point x="2752" y="3448"/>
      <point x="2424" y="3448" type="curve" smooth="yes"/>
      <point x="1672" y="3448"/>
      <point x="992" y="2192"/>
      <point x="992" y="1120" type="curve" smooth="yes"/>
      <point x="992" y="528"/>
      <point x="1184" y="152"/>
      <point x="1592" y="152" type="curve" smooth="yes"/>
      <point x="2480" y="152"/>
      <point x="3032" y="1680"/>
    </contour>
    <contour>
      <point x="3160" y="2512" type="curve" smooth="yes"/>
      <point x="3160" y="1648"/>
      <point x="2560" y="-80"/>
      <point x="1432" y="-80" type="curve" smooth="yes"/>
      <point x="880" y="-80"/>
      <point x="160" y="240"/>
      <point x="160" y="1280" type="curve" smooth="yes"/>
      <point x="160" y="2880"/>
      <point x="1416" y="3760"/>
      <point x="2208" y="3760" type="curve" smooth="yes"/>
      <point x="2816" y="3760"/>
      <point x="3160" y="3248"/>
    </contour>
  </outline>
</glyph>
<glyph name="r" format="2">
  <advance width="405"/>
  <unicode hex="0072"/>
  <outline>
    <contour>
      <point x="425" y="389" type="curve" smooth="yes"/>
      <point x="425" y="355"/>
      <point x="405" y="328"/>
      <point x="367" y="328" type="curve" smooth="yes"/>
      <point x="334" y="328"/>
      <point x="308" y="346"/>
      <point x="308" y="383" type="curve" smooth="yes"/>
      <point x="308" y="418"/>
      <point x="336" y="441"/>
      <point x="365" y="441" type="curve" smooth="yes"/>
      <point x="370" y="441"/>
      <point x="373" y="440"/>
      <point x="376" y="440" type="curve"/>
      <point x="366" y="448"/>
      <point x="348" y="452"/>
      <point x="333" y="452" type="curve" smooth="yes"/>
      <point x="238" y="452"/>
      <point x="183" y="271"/>
      <point x="159" y="173" type="curve"/>
      <point x="144" y="173" type="line"/>
      <point x="168" y="295"/>
      <point x="231" y="470"/>
      <point x="333" y="470" type="curve" smooth="yes"/>
      <point x="379" y="470"/>
      <point x="425" y="438"/>
    </contour>
    <contour>
      <point x="135" y="440" type="line"/>
      <point x="65" y="440" type="line"/>
      <point x="65" y="460" type="line"/>
      <point x="225" y="460" type="line"/>
      <point x="120" y="0" type="line"/>
      <point x="30" y="0" type="line"/>
    </contour>
  </outline>
</glyph>
<glyph name="s" format="2">
  <advance width="3216"/>
  <unicode hex="0073"/>
  <outline>
    <contour>
      <point x="2552" y="3280" type="curve"/>
      <point x="2440" y="3408"/>
      <point x="2184" y="3592"/>
      <point x="1752" y="3592" type="curve" smooth="yes"/>
      <point x="1328" y="3592"/>
      <point x="976" y="3392"/>
      <point x="976" y="3024" type="curve" smooth="yes"/>
      <point x="976" y="2224"/>
      <point x="2696" y="2200"/>
      <point x="2696" y="1136" type="curve" smooth="yes"/>
      <point x="2696" y="384"/>
      <point x="1976" y="-96"/>
      <point x="1200" y="-96" type="curve" smooth="yes"/>
      <point x="408" y="-96"/>
      <point x="0" y="400"/>
      <point x="0" y="840" type="curve" smooth="yes"/>
      <point x="0" y="1168"/>
      <point x="256" y="1336"/>
      <point x="496" y="1336" type="curve" smooth="yes"/>
      <point x="696" y="1336"/>
      <point x="952" y="1208"/>
      <point x="952" y="888" type="curve" smooth="yes"/>
      <point x="952" y="608"/>
      <point x="728" y="448"/>
      <point x="496" y="448" type="curve" smooth="yes"/>
      <point x="328" y="448"/>
      <point x="288" y="512"/>
      <point x="256" y="520" type="curve"/>
      <point x="352" y="352"/>
      <point x="544" y="64"/>
      <point x="1200" y="64" type="curve" smooth="yes"/>
      <point x="1760" y="64"/>
      <point x="2112" y="456"/>
      <point x="2112" y="784" type="curve" smooth="yes"/>
      <point x="2112" y="1560"/>
      <point x="448" y="1448"/>
      <point x="448" y="2616" type="curve" smooth="yes"/>
      <point x="448" y="3408"/>
      <point x="1168" y="3752"/>
      <point x="1752" y="3752" type="curve" smooth="yes"/>
      <point x="2376" y="3752"/>
      <point x="2816" y="3376"/>
      <point x="2816" y="3000" type="curve" smooth="yes"/>
      <point x="2816" y="2672"/>
      <point x="2616" y="2544"/>
      <point x="2376" y="2544" type="curve" smooth="yes"/>
      <point x="2176" y="2544"/>
      <point x="1960" y="2672"/>
      <point x="1960" y="2952" type="curve" smooth="yes"/>
      <point x="1960" y="3192"/>
      <point x="2152" y="3352"/>
      <point x="2336" y="3352" type="curve" smooth="yes"/>
      <point x="2504" y="3352"/>
      <point x="2520" y="3288"/>
    </contour>
  </outline>
</glyph>
<glyph name="t" format="2">
  <advance width="2600"/>
  <unicode hex="0074"/>
  <outline>
    <contour>
      <point x="320" y="3680" type="line"/>
      <point x="2480" y="3680" type="line"/>
      <point x="2480" y="3520" type="line"/>
      <point x="320" y="3520" type="line"/>
    </contour>
    <contour>
      <point x="2384" y="1304" type="line"/>
      <point x="2080" y="504"/>
      <point x="1608" y="-80"/>
      <point x="960" y="-80" type="curve" smooth="yes"/>
      <point x="584" y="-80"/>
      <point x="392" y="104"/>
      <point x="392" y="504" type="curve" smooth="yes"/>
      <point x="392" y="544"/>
      <point x="400" y="632"/>
      <point x="408" y="680" type="curve" smooth="yes"/>
      <point x="1192" y="4480" type="line"/>
      <point x="1904" y="4480" type="line"/>
      <point x="1056" y="448" type="line" smooth="yes"/>
      <point x="1048" y="400"/>
      <point x="1040" y="344"/>
      <point x="1040" y="304" type="curve" smooth="yes"/>
      <point x="1040" y="216"/>
      <point x="1080" y="152"/>
      <point x="1184" y="152" type="curve" smooth="yes"/>
      <point x="1616" y="152"/>
      <point x="2040" y="824"/>
      <point x="2224" y="1352" type="curve"/>
    </contour>
  </outline>
</glyph>
<glyph name="u" format="2">
  <advance width="4936"/>
  <unicode hex="0075"/>
  <outline>
    <contour>
      <point x="1840" y="3680" type="line"/>
      <point x="1264" y="1216" type="line" smooth="yes"/>
      <point x="1120" y="584"/>
      <point x="1136" y="160"/>
      <point x="1504" y="160" type="curve" smooth="yes"/>
      <point x="1968" y="160"/>
      <point x="2824" y="1072"/>
      <point x="3128" y="2296" type="curve"/>
      <point x="3248" y="2296" type="line"/>
      <point x="2944" y="1080"/>
      <point x="2176" y="-80"/>
      <point x="1272" y="-80" type="curve" smooth="yes"/>
      <point x="496" y="-80"/>
      <point x="392" y="472"/>
      <point x="536" y="1128" type="curve" smooth="yes"/>
      <point x="1072" y="3520" type="line"/>
      <point x="544" y="3520" type="line"/>
      <point x="544" y="3680" type="line"/>
    </contour>
    <contour>
      <point x="4736" y="1304" type="line"/>
      <point x="4432" y="504"/>
      <point x="3960" y="-80"/>
      <point x="3312" y="-80" type="curve" smooth="yes"/>
      <point x="2936" y="-80"/>
      <point x="2744" y="104"/>
      <point x="2744" y="504" type="curve" smooth="yes"/>
      <point x="2744" y="544"/>
      <point x="2752" y="632"/>
      <point x="2760" y="680" type="curve" smooth="yes"/>
      <point x="3432" y="3680" type="line"/>
      <point x="4160" y="3680" type="line"/>
      <point x="3408" y="448" type="line" smooth="yes"/>
      <point x="3400" y="400"/>
      <point x="3392" y="344"/>
      <point x="3392" y="304" type="curve" smooth="yes"/>
      <point x="3392" y="216"/>
      <point x="3432" y="152"/>
      <point x="3536" y="152" type="curve" smooth="yes"/>
      <point x="3968" y="152"/>
      <point x="4392" y="824"/>
      <point x="4576" y="1352" type="curve"/>
    </contour>
  </outline>
</glyph>
<glyph name="u" format="1">
  <advance width="617"/>
  <unicode hex="0075"/>
  <outline>
    <contour>
      <point x="230" y="460" type="line"/>
      <point x="158" y="152" type="line" smooth="yes"/>
      <point x="140" y="73"/>
      <point x="142" y="20"/>
      <point x="188" y="20" type="curve" smooth="yes"/>
      <point x="246" y="20"/>
      <point x="353" y="134"/>
      <point x="391" y="287" type="curve"/>
      <point x="406" y="287" type="line"/>
      <point x="368" y="135"/>
      <point x="272" y="-10"/>
      <point x="159" y="-10" type="curve" smooth="yes"/>
      <point x="62" y="-10"/>
      <point x="49" y="59"/>
      <point x="67" y="141" type="curve" smooth="yes"/>
      <point x="134" y="440" type="line"/>
      <point x="68" y="440" type="line"/>
      <point x="68" y="460" type="line"/>
    </contour>
    <contour>
      <point x="592" y="163" type="line"/>
      <point x="554" y="63"/>
      <point x="495" y="-10"/>
      <point x="414" y="-10" type="curve" smooth="yes"/>
      <point x="367" y="-10"/>
      <point x="343" y="13"/>
      <point x="343" y="63" type="curve" smooth="yes"/>
      <point x="343" y="68"/>
      <point x="344" y="79"/>
      <point x="345" y="85" type="curve" smooth="yes"/>
      <point x="429" y="460" type="line"/>
      <point x="520" y="460" type="line"/>
      <point x="426" y="56" type="line" smooth="yes"/>
      <point x="425" y="50"/>
      <point x="424" y="43"/>
      <point x="424" y="38" type="curve" smooth="yes"/>
      <point x="424" y="27"/>
      <point x="429" y="19"/>
      <point x="442" y="19" type="curve" smooth="yes"/>
      <point x="496" y="19"/>
      <point x="549" y="103"/>
      <point x="572" y="169" type="curve"/>
    </contour>
  </outline>
</glyph>
<glyph name="v" format="2">
  <advance width="536"/>
  <unicode hex="0076"/>
  <outline>
    <contour>
      <point x="225" y="142" type="line" smooth="yes"/>
      <point x="212" y="63"/>
      <point x="200" y="16"/>
      <point x="256" y="16" type="curve" smooth="yes"/>
      <point x="334" y="16"/>
      <point x="496" y="191"/>
      <point x="496" y="344" type="curve" smooth="yes"/>
      <point x="496" y="371"/>
      <point x="493" y="388"/>
      <point x="488" y="400" type="curve"/>
      <point x="485" y="381"/>
      <point x="466" y="355"/>
      <point x="433" y="355" type="curve" smooth="yes"/>
      <point x="393" y="355"/>
      <point x="377" y="387"/>
      <point x="377" y="412" type="curve" smooth="yes"/>
      <point x="377" y="442"/>
      <point x="401" y="469"/>
      <point x="438" y="469" type="curve" smooth="yes"/>
      <point x="501" y="469"/>
      <point x="516" y="405"/>
      <point x="516" y="344" type="curve" smooth="yes"/>
      <point x="516" y="192"/>
      <point x="360" y="-10"/>
      <point x="237" y="-10" type="curve" smooth="yes"/>
      <point x="140" y="-10"/>
      <point x="117" y="49"/>
      <point x="132" y="131" type="curve" smooth="yes"/>
      <point x="182" y="404" type="line" smooth="yes"/>
      <point x="183" y="410"/>
      <point x="184" y="417"/>
      <point x="184" y="422" type="curve" smooth="yes"/>
      <point x="184" y="433"/>
      <point x="178" y="441"/>
      <point x="165" y="441" type="curve" smooth="yes"/>
      <point x="111" y="441"/>
      <point x="58" y="357"/>
      <point x="35" y="291" type="curve"/>
      <point x="15" y="297" type="line"/>
      <point x="53" y="397"/>
      <point x="112" y="470"/>
      <point x="193" y="470" type="curve" smooth="yes"/>
      <point x="240" y="470"/>
      <point x="266" y="445"/>
      <point x="266" y="402" type="curve" smooth="yes"/>
      <point x="266" y="387"/>
      <point x="263" y="375"/>
      <point x="262" y="368" type="curve" smooth="yes"/>
    </contour>
  </outline>
</glyph>
<glyph name="w" format="2">
  <advance width="6472"/>
  <unicode hex="0077"/>
  <outline>
    <contour>
      <point x="1504" y="1216" type="line" smooth="yes"/>
      <point x="1296" y="600"/>
      <point x="1360" y="160"/>
      <point x="1728" y="160" type="curve" smooth="yes"/>
      <point x="2192" y="160"/>
      <point x="3048" y="1072"/>
      <point x="3352" y="2296" type="curve"/>
      <point x="3472" y="2296" type="line"/>
      <point x="3168" y="1080"/>
      <point x="2400" y="-80"/>
      <point x="1496" y="-80" type="curve" smooth="yes"/>
      <point x="720" y="-80"/>
      <point x="552" y="488"/>
      <point x="760" y="1128" type="curve" smooth="yes"/>
      <point x="1448" y="3232" type="line" smooth="yes"/>
      <point x="1464" y="3280"/>
      <point x="1472" y="3336"/>
      <point x="1472" y="3376" type="curve" smooth="yes"/>
      <point x="1472" y="3464"/>
      <point x="1424" y="3528"/>
      <point x="1320" y="3528" type="curve" smooth="yes"/>
      <point x="888" y="3528"/>
      <point x="464" y="2856"/>
      <point x="280" y="2328" type="curve"/>
      <point x="120" y="2376" type="line"/>
      <point x="424" y="3176"/>
      <point x="896" y="3760"/>
      <point x="1544" y="3760" type="curve" smooth="yes"/>
      <point x="1920" y="3760"/>
      <point x="2128" y="3560"/>
      <point x="2128" y="3216" type="curve" smooth="yes"/>
      <point x="2128" y="3096"/>
      <point x="2104" y="3000"/>
      <point x="2088" y="2944" type="curve" smooth="yes"/>
    </contour>
    <contour>
      <point x="3680" y="3680" type="line"/>
      <point x="4400" y="3680" type="line"/>
      <point x="3888" y="1512" type="line" smooth="yes"/>
      <point x="3728" y="840"/>
      <point x="3760" y="120"/>
      <point x="4432" y="120" type="curve" smooth="yes"/>
      <point x="5520" y="120"/>
      <point x="6144" y="1888"/>
      <point x="6144" y="2752" type="curve" smooth="yes"/>
      <point x="6144" y="2960"/>
      <point x="6120" y="3120"/>
      <point x="6080" y="3200" type="curve"/>
      <point x="6056" y="3048"/>
      <point x="5904" y="2840"/>
      <point x="5640" y="2840" type="curve" smooth="yes"/>
      <point x="5320" y="2840"/>
      <point x="5192" y="3096"/>
      <point x="5192" y="3296" type="curve" smooth="yes"/>
      <point x="5192" y="3536"/>
      <point x="5384" y="3752"/>
      <point x="5680" y="3752" type="curve" smooth="yes"/>
      <point x="6184" y="3752"/>
      <point x="6312" y="3240"/>
      <point x="6312" y="2752" type="curve" smooth="yes"/>
      <point x="6312" y="1872"/>
      <point x="5752" y="-80"/>
      <point x="4272" y="-80" type="curve" smooth="yes"/>
      <point x="3560" y="-80"/>
      <point x="3144" y="304"/>
      <point x="3144" y="1424" type="curve"/>
    </contour>
  </outline>
</glyph>
<glyph name="x" format="2">
  <advance width="4216"/>
  <unicode hex="0078"/>
  <outline>
    <contour>
      <point x="2040" y="1968" type="line"/>
      <point x="2520" y="2752"/>
      <point x="2976" y="3760"/>
      <point x="3608" y="3760" type="curve" smooth="yes"/>
      <point x="4096" y="3760"/>
      <point x="4256" y="3408"/>
      <point x="4256" y="3152" type="curve" smooth="yes"/>
      <point x="4256" y="2864"/>
      <point x="4096" y="2672"/>
      <point x="3792" y="2672" type="curve" smooth="yes"/>
      <point x="3472" y="2672"/>
      <point x="3352" y="2928"/>
      <point x="3352" y="3128" type="curve" smooth="yes"/>
      <point x="3352" y="3344"/>
      <point x="3512" y="3568"/>
      <point x="3760" y="3568" type="curve" smooth="yes"/>
      <point x="3808" y="3568"/>
      <point x="3856" y="3560"/>
      <point x="3896" y="3544" type="curve"/>
      <point x="3792" y="3584"/>
      <point x="3760" y="3608"/>
      <point x="3664" y="3608" type="curve" smooth="yes"/>
      <point x="3072" y="3608"/>
      <point x="2656" y="2648"/>
      <point x="2192" y="1888" type="curve"/>
    </contour>
    <contour>
      <point x="2272" y="2192" type="line"/>
      <point x="1616" y="1088"/>
      <point x="1040" y="-80"/>
      <point x="408" y="-80" type="curve" smooth="yes"/>
      <point x="-80" y="-80"/>
      <point x="-240" y="272"/>
      <point x="-240" y="528" type="curve" smooth="yes"/>
      <point x="-240" y="816"/>
      <point x="-80" y="1008"/>
      <point x="224" y="1008" type="curve" smooth="yes"/>
      <point x="544" y="1008"/>
      <point x="664" y="752"/>
      <point x="664" y="552" type="curve" smooth="yes"/>
      <point x="664" y="336"/>
      <point x="504" y="112"/>
      <point x="256" y="112" type="curve" smooth="yes"/>
      <point x="208" y="112"/>
      <point x="160" y="120"/>
      <point x="120" y="136" type="curve"/>
      <point x="224" y="96"/>
      <point x="256" y="72"/>
      <point x="352" y="72" type="curve" smooth="yes"/>
      <point x="944" y="72"/>
      <point x="1480" y="1192"/>
      <point x="2120" y="2272" type="curve"/>
    </contour>
    <contour>
      <point x="3848" y="872" type="line"/>
      <point x="3584" y="152"/>
      <point x="3224" y="-80"/>
      <point x="2808" y="-80" type="curve" smooth="yes"/>
      <point x="2352" y="-80"/>
      <point x="2104" y="200"/>
      <point x="2000" y="584" type="curve" smooth="yes"/>
      <point x="1816" y="1272"/>
      <point x="1480" y="2752"/>
      <point x="1272" y="3328" type="curve" smooth="yes"/>
      <point x="1240" y="3416"/>
      <point x="1200" y="3520"/>
      <point x="1056" y="3520" type="curve" smooth="yes"/>
      <point x="808" y="3520"/>
      <point x="568" y="3168"/>
      <point x="416" y="2720" type="curve"/>
      <point x="264" y="2792" type="line"/>
      <point x="528" y="3512"/>
      <point x="832" y="3776"/>
      <point x="1328" y="3776" type="curve" smooth="yes"/>
      <point x="1784" y="3776"/>
      <point x="2000" y="3496"/>
      <point x="2104" y="3112" type="curve" smooth="yes"/>
      <point x="2296" y="2392"/>
      <point x="2552" y="1168"/>
      <point x="2832" y="392" type="curve" smooth="yes"/>
      <point x="2864" y="304"/>
      <point x="2968" y="200"/>
      <point x="3072" y="200" type="curve" smooth="yes"/>
      <point x="3256" y="200"/>
      <point x="3552" y="488"/>
      <point x="3704" y="936" type="curve"/>
    </contour>
  </outline>
</glyph>
<glyph name="y" format="2">
  <advance width="4496"/>
  <unicode hex="0079"/>
  <outline>
    <contour>
      <point x="2568" y="-456" type="line"/>
      <point x="1984" y="552"/>
      <point x="1456" y="2736"/>
      <point x="1240" y="3312" type="curve" smooth="yes"/>
      <point x="1208" y="3400"/>
      <point x="1168" y="3504"/>
      <point x="1024" y="3504" type="curve" smooth="yes"/>
      <point x="784" y="3504"/>
      <point x="536" y="3152"/>
      <point x="384" y="2704" type="curve"/>
      <point x="232" y="2776" type="line"/>
      <point x="496" y="3496"/>
      <point x="800" y="3760"/>
      <point x="1296" y="3760" type="curve" smooth="yes"/>
      <point x="1752" y="3760"/>
      <point x="1968" y="3472"/>
      <point x="2080" y="3088" type="curve" smooth="yes"/>
      <point x="2296" y="2368"/>
      <point x="2568" y="1040"/>
      <point x="3088" y="264" type="curve"/>
    </contour>
    <contour>
      <point x="448" y="-2080" type="curve" smooth="yes"/>
      <point x="-88" y="-2080"/>
      <point x="-432" y="-1728"/>
      <point x="-432" y="-1208" type="curve" smooth="yes"/>
      <point x="-432" y="-944"/>
      <point x="-240" y="-680"/>
      <point x="64" y="-680" type="curve" smooth="yes"/>
      <point x="264" y="-680"/>
      <point x="512" y="-808"/>
      <point x="512" y="-1112" type="curve" smooth="yes"/>
      <point x="512" y="-1376"/>
      <point x="312" y="-1544"/>
      <point x="112" y="-1544" type="curve" smooth="yes"/>
      <point x="-64" y="-1544"/>
      <point x="-168" y="-1480"/>
      <point x="-232" y="-1368" type="curve"/>
      <point x="-232" y="-1600"/>
      <point x="16" y="-1920"/>
      <point x="440" y="-1920" type="curve" smooth="yes"/>
      <point x="1816" y="-1920"/>
      <point x="4200" y="2056"/>
      <point x="4200" y="2920" type="curve" smooth="yes"/>
      <point x="4200" y="3032"/>
      <point x="4168" y="3208"/>
      <point x="4136" y="3288" type="curve"/>
      <point x="4128" y="3136"/>
      <point x="3960" y="2848"/>
      <point x="3672" y="2848" type="curve" smooth="yes"/>
      <point x="3352" y="2848"/>
      <point x="3248" y="3104"/>
      <point x="3248" y="3304" type="curve" smooth="yes"/>
      <point x="3248" y="3544"/>
      <point x="3448" y="3760"/>
      <point x="3744" y="3760" type="curve" smooth="yes"/>
      <point x="4232" y="3760"/>
      <point x="4376" y="3256"/>
      <point x="4376" y="2928" type="curve" smooth="yes"/>
      <point x="4376" y="1888"/>
      <point x="1928" y="-2080"/>
    </contour>
  </outline>
</glyph>
<glyph name="y" format="1">
  <advance width="562"/>
  <unicode hex="0079"/>
  <outline>
    <contour>
      <point x="321" y="-57" type="line"/>
      <point x="248" y="69"/>
      <point x="182" y="342"/>
      <point x="155" y="414" type="curve" smooth="yes"/>
      <point x="151" y="425"/>
      <point x="146" y="438"/>
      <point x="128" y="438" type="curve" smooth="yes"/>
      <point x="98" y="438"/>
      <point x="67" y="394"/>
      <point x="48" y="338" type="curve"/>
      <point x="29" y="347" type="line"/>
      <point x="62" y="437"/>
      <point x="100" y="470"/>
      <point x="162" y="470" type="curve" smooth="yes"/>
      <point x="219" y="470"/>
      <point x="246" y="434"/>
      <point x="260" y="386" type="curve" smooth="yes"/>
      <point x="287" y="296"/>
      <point x="321" y="130"/>
      <point x="386" y="33" type="curve"/>
    </contour>
    <contour>
      <point x="56" y="-260" type="curve" smooth="yes"/>
      <point x="-11" y="-260"/>
      <point x="-54" y="-216"/>
      <point x="-54" y="-151" type="curve" smooth="yes"/>
      <point x="-54" y="-118"/>
      <point x="-30" y="-85"/>
      <point x="8" y="-85" type="curve" smooth="yes"/>
      <point x="33" y="-85"/>
      <point x="64" y="-101"/>
      <point x="64" y="-139" type="curve" smooth="yes"/>
      <point x="64" y="-172"/>
      <point x="39" y="-193"/>
      <point x="14" y="-193" type="curve" smooth="yes"/>
      <point x="-8" y="-193"/>
      <point x="-21" y="-185"/>
      <point x="-29" y="-171" type="curve"/>
      <point x="-29" y="-200"/>
      <point x="2" y="-240"/>
      <point x="55" y="-240" type="curve" smooth="yes"/>
      <point x="227" y="-240"/>
      <point x="525" y="257"/>
      <point x="525" y="365" type="curve" smooth="yes"/>
      <point x="525" y="379"/>
      <point x="521" y="401"/>
      <point x="517" y="411" type="curve"/>
      <point x="516" y="392"/>
      <point x="495" y="356"/>
      <point x="459" y="356" type="curve" smooth="yes"/>
      <point x="419" y="356"/>
      <point x="406" y="388"/>
      <point x="406" y="413" type="curve" smooth="yes"/>
      <point x="406" y="443"/>
      <point x="431" y="470"/>
      <point x="468" y="470" type="curve" smooth="yes"/>
      <point x="529" y="470"/>
      <point x="547" y="407"/>
      <point x="547" y="366" type="curve" smooth="yes"/>
      <point x="547" y="236"/>
      <point x="241" y="-260"/>
    </contour>
  </outline>
</glyph>
<glyph name="z" format="2">
  <advance width="3168"/>
  <unicode hex="007A"/>
  <outline>
    <contour>
      <point x="216" y="2240" type="line"/>
      <point x="552" y="3680" type="line"/>
      <point x="984" y="3440"/>
      <point x="1464" y="3368"/>
      <point x="1832" y="3368" type="curve" smooth="yes"/>
      <point x="2216" y="3368"/>
      <point x="2840" y="3424"/>
      <point x="3096" y="3680" type="curve"/>
      <point x="3248" y="3520" type="line"/>
      <point x="2416" y="3040"/>
      <point x="1992" y="2760"/>
      <point x="1432" y="2760" type="curve" smooth="yes"/>
      <point x="1080" y="2760"/>
      <point x="792" y="2864"/>
      <point x="584" y="3024" type="curve"/>
      <point x="376" y="2240" type="line"/>
    </contour>
    <contour>
      <point x="-80" y="160" type="line"/>
      <point x="-400" y="80" type="line"/>
      <point x="2928" y="3440" type="line"/>
      <point x="3248" y="3520" type="line"/>
    </contour>
    <contour>
      <point x="2816" y="1064" type="curve"/>
      <point x="2752" y="976"/>
      <point x="2680" y="928"/>
      <point x="2512" y="928" type="curve" smooth="yes"/>
      <point x="2328" y="928"/>
      <point x="2136" y="1088"/>
      <point x="2136" y="1328" type="curve" smooth="yes"/>
      <point x="2136" y="1608"/>
      <point x="2352" y="1736"/>
      <point x="2552" y="1736" type="curve" smooth="yes"/>
      <point x="2792" y="1736"/>
      <point x="2992" y="1608"/>
      <point x="2992" y="1280" type="curve" smooth="yes"/>
      <point x="2992" y="880"/>
      <point x="2552" y="-80"/>
      <point x="1896" y="-80" type="curve" smooth="yes"/>
      <point x="1408" y="-80"/>
      <point x="1224" y="312"/>
      <point x="696" y="312" type="curve" smooth="yes"/>
      <point x="312" y="312"/>
      <point x="8" y="176"/>
      <point x="-248" y="-80" type="curve"/>
      <point x="-400" y="80" type="line"/>
      <point x="432" y="560"/>
      <point x="776" y="760"/>
      <point x="1336" y="760" type="curve" smooth="yes"/>
      <point x="1768" y="760"/>
      <point x="1944" y="416"/>
      <point x="2320" y="416" type="curve" smooth="yes"/>
      <point x="2640" y="416"/>
      <point x="2792" y="904"/>
    </contour>
  </outline>
</glyph>
<glyph name="braceleft" format="1">
  <advance width="272"/>
  <unicode hex="007B"/>
  <outline>
    <contour>
      <point x="382" y="780" type="curve"/>
      <point x="382" y="760" type="line"/>
      <point x="290" y="760"/>
      <point x="245" y="670"/>
      <point x="245" y="607" type="curve" smooth="yes"/>
      <point x="245" y="551"/>
      <point x="254" y="531"/>
      <point x="254" y="451" type="curve" smooth="yes"/>
      <point x="254" y="368"/>
      <point x="159" y="320"/>
      <point x="85" y="310" type="curve"/>
      <point x="85" y="325" type="line"/>
      <point x="115" y="335"/>
      <point x="170" y="356"/>
      <point x="170" y="407" type="curve" smooth="yes"/>
      <point x="170" y="460"/>
      <point x="152" y="484"/>
      <point x="152" y="571" type="curve" smooth="yes"/>
      <point x="152" y="690"/>
      <point x="217" y="780"/>
    </contour>
    <contour>
      <point x="172" y="-150" type="line"/>
      <point x="47" y="-150"/>
      <point x="5" y="-119"/>
      <point x="5" y="-40" type="curve" smooth="yes"/>
      <point x="5" y="77"/>
      <point x="135" y="182"/>
      <point x="135" y="245" type="curve" smooth="yes"/>
      <point x="135" y="286"/>
      <point x="115" y="295"/>
      <point x="85" y="305" type="curve"/>
      <point x="85" y="320" type="line"/>
      <point x="159" y="310"/>
      <point x="192" y="283"/>
      <point x="192" y="220" type="curve" smooth="yes"/>
      <point x="192" y="120"/>
      <point x="98" y="30"/>
      <point x="98" y="-46" type="curve" smooth="yes"/>
      <point x="98" y="-89"/>
      <point x="110" y="-130"/>
      <point x="172" y="-130" type="curve"/>
    </contour>
  </outline>
</glyph>
<glyph name="bar" format="1">
  <advance width="230"/>
  <unicode hex="007C"/>
  <outline>
    <contour>
      <point x="246" y="780" type="line"/>
      <point x="265" y="780" type="line"/>
      <point x="25" y="-250" type="line"/>
      <point x="6" y="-250" type="line"/>
    </contour>
  </outline>
</glyph>
<glyph name="cent" format="2">
  <advance width="3792"/>
  <unicode hex="00A2"/>
  <outline>
    <contour>
      <point x="2760" y="4440" type="line"/>
      <point x="1400" y="-680" type="line"/>
      <point x="1240" y="-680" type="line"/>
      <point x="2600" y="4440" type="line"/>
    </contour>
    <component base="c"/>
  </outline>
</glyph>
<glyph name="section" format="2">
  <advance width="474"/>
  <unicode hex="00A7"/>
  <outline>
    <contour>
      <point x="201" y="634" type="curve" smooth="yes"/>
      <point x="201" y="528"/>
      <point x="458" y="553"/>
      <point x="458" y="400" type="curve" smooth="yes"/>
      <point x="458" y="318"/>
      <point x="375" y="290"/>
      <point x="321" y="254" type="curve"/>
      <point x="306" y="260" type="line"/>
      <point x="330" y="282"/>
      <point x="372" y="313"/>
      <point x="372" y="353" type="curve" smooth="yes"/>
      <point x="372" y="464"/>
      <point x="143" y="426"/>
      <point x="143" y="598" type="curve" smooth="yes"/>
      <point x="143" y="702"/>
      <point x="243" y="760"/>
      <point x="338" y="760" type="curve" smooth="yes"/>
      <point x="436" y="760"/>
      <point x="492" y="692"/>
      <point x="492" y="626" type="curve" smooth="yes"/>
      <point x="492" y="565"/>
      <point x="467" y="540"/>
      <point x="432" y="540" type="curve" smooth="yes"/>
      <point x="402" y="540"/>
      <point x="378" y="560"/>
      <point x="378" y="596" type="curve" smooth="yes"/>
      <point x="378" y="628"/>
      <point x="406" y="651"/>
      <point x="435" y="651" type="curve" smooth="yes"/>
      <point x="446" y="651"/>
      <point x="465" y="644"/>
      <point x="469" y="643" type="curve"/>
      <point x="468" y="676"/>
      <point x="435" y="740"/>
      <point x="338" y="740" type="curve" smooth="yes"/>
      <point x="265" y="740"/>
      <point x="201" y="701"/>
    </contour>
    <contour>
      <point x="400" y="162" type="curve" smooth="yes"/>
      <point x="400" y="58"/>
      <point x="300" y="-10"/>
      <point x="185" y="-10" type="curve" smooth="yes"/>
      <point x="97" y="-10"/>
      <point x="11" y="35"/>
      <point x="11" y="131" type="curve" smooth="yes"/>
      <point x="11" y="172"/>
      <point x="41" y="213"/>
      <point x="81" y="213" type="curve" smooth="yes"/>
      <point x="111" y="213"/>
      <point x="135" y="193"/>
      <point x="135" y="157" type="curve" smooth="yes"/>
      <point x="135" y="125"/>
      <point x="107" y="102"/>
      <point x="78" y="102" type="curve" smooth="yes"/>
      <point x="47" y="102"/>
      <point x="38" y="118"/>
      <point x="34" y="119" type="curve"/>
      <point x="34" y="53"/>
      <point x="103" y="10"/>
      <point x="185" y="10" type="curve" smooth="yes"/>
      <point x="288" y="10"/>
      <point x="332" y="74"/>
      <point x="332" y="121" type="curve" smooth="yes"/>
      <point x="332" y="237"/>
      <point x="69" y="202"/>
      <point x="69" y="345" type="curve" smooth="yes"/>
      <point x="69" y="417"/>
      <point x="148" y="474"/>
      <point x="192" y="500" type="curve"/>
      <point x="211" y="500" type="line"/>
      <point x="207" y="488"/>
      <point x="170" y="447"/>
      <point x="170" y="407" type="curve" smooth="yes"/>
      <point x="170" y="276"/>
      <point x="400" y="344"/>
    </contour>
  </outline>
</glyph>
<glyph name="guillemotleft" format="1">
  <advance width="695"/>
  <unicode hex="00AB"/>
  <outline>
    <contour>
      <point x="481" y="388" type="line"/>
      <point x="645" y="155" type="line"/>
      <point x="635" y="145" type="line"/>
      <point x="355" y="375" type="line"/>
      <point x="355" y="400" type="line"/>
      <point x="745" y="630" type="line"/>
      <point x="755" y="620" type="line"/>
    </contour>
    <contour>
      <point x="201" y="388" type="line"/>
      <point x="365" y="155" type="line"/>
      <point x="355" y="145" type="line"/>
      <point x="75" y="375" type="line"/>
      <point x="75" y="400" type="line"/>
      <point x="465" y="630" type="line"/>
      <point x="475" y="620" type="line"/>
    </contour>
  </outline>
</glyph>
<glyph name="degree" format="1">
  <advance width="320"/>
  <unicode hex="00B0"/>
  <outline>
    <contour>
      <point x="194" y="680" type="curve" smooth="yes"/>
      <point x="194" y="746"/>
      <point x="248" y="800"/>
      <point x="314" y="800" type="curve" smooth="yes"/>
      <point x="380" y="800"/>
      <point x="434" y="746"/>
      <point x="434" y="680" type="curve" smooth="yes"/>
      <point x="434" y="614"/>
      <point x="380" y="560"/>
      <point x="314" y="560" type="curve" smooth="yes"/>
      <point x="248" y="560"/>
      <point x="194" y="614"/>
    </contour>
    <contour>
      <point x="249" y="680" type="curve" smooth="yes"/>
      <point x="249" y="643"/>
      <point x="277" y="615"/>
      <point x="314" y="615" type="curve" smooth="yes"/>
      <point x="351" y="615"/>
      <point x="379" y="643"/>
      <point x="379" y="680" type="curve" smooth="yes"/>
      <point x="379" y="717"/>
      <point x="351" y="745"/>
      <point x="314" y="745" type="curve" smooth="yes"/>
      <point x="277" y="745"/>
      <point x="249" y="717"/>
    </contour>
  </outline>
</glyph>
<glyph name="mu" format="1">
  <advance width="617"/>
  <unicode hex="00B5"/>
  <outline>
    <contour>
      <point x="33" y="-91" type="line" smooth="yes"/>
      <point x="13" y="-179"/>
      <point x="20" y="-238"/>
      <point x="103" y="-245" type="curve"/>
      <point x="103" y="-244" type="line"/>
      <point x="76" y="-221"/>
      <point x="76" y="-194"/>
      <point x="76" y="-176" type="curve" smooth="yes"/>
      <point x="76" y="-143"/>
      <point x="102" y="-123"/>
      <point x="135" y="-123" type="curve" smooth="yes"/>
      <point x="168" y="-123"/>
      <point x="194" y="-152"/>
      <point x="194" y="-190" type="curve" smooth="yes"/>
      <point x="194" y="-229"/>
      <point x="173" y="-260"/>
      <point x="100" y="-260" type="curve" smooth="yes"/>
      <point x="10" y="-260"/>
      <point x="-9" y="-186"/>
      <point x="13" y="-91" type="curve" smooth="yes"/>
      <point x="108" y="321" type="line"/>
      <point x="128" y="321" type="line"/>
    </contour>
    <component base="u"/>
  </outline>
</glyph>
<glyph name="cedilla" format="2">
  <advance width="4400"/>
  <unicode hex="00B8"/>
  <outline>
    <contour>
      <point x="1896" y="-632" type="line"/>
      <point x="2856" y="328" type="line"/>
      <point x="3080" y="328" type="line"/>
      <point x="2120" y="-632" type="line"/>
    </contour>
    <contour>
      <point x="1896" y="-632" type="curve"/>
      <point x="2296" y="-312" type="line"/>
      <point x="2944" y="-312"/>
      <point x="3312" y="-480"/>
      <point x="3312" y="-880" type="curve" smooth="yes"/>
      <point x="3312" y="-1360"/>
      <point x="2656" y="-1760"/>
      <point x="1848" y="-1760" type="curve"/>
      <point x="1848" y="-1600" type="line"/>
      <point x="2320" y="-1600"/>
      <point x="2712" y="-1392"/>
      <point x="2712" y="-1040" type="curve" smooth="yes"/>
      <point x="2712" y="-696"/>
      <point x="2416" y="-632"/>
    </contour>
  </outline>
</glyph>
<glyph name="AE" format="2">
  <advance width="8000"/>
  <unicode hex="00C6"/>
  <outline>
    <contour>
      <point x="5432" y="6000" type="line"/>
      <point x="8752" y="6000" type="line"/>
      <point x="8368" y="4360" type="line"/>
      <point x="8208" y="4360" type="line"/>
      <point x="8408" y="5216"/>
      <point x="8288" y="5840"/>
      <point x="7352" y="5840" type="curve" smooth="yes"/>
      <point x="5432" y="5840" type="line"/>
    </contour>
    <contour>
      <point x="5824" y="3024" type="curve" smooth="yes"/>
      <point x="5256" y="3024" type="line"/>
      <point x="5256" y="3184" type="line"/>
      <point x="5824" y="3184" type="line" smooth="yes"/>
      <point x="6280" y="3184"/>
      <point x="6632" y="3408"/>
      <point x="6752" y="3944" type="curve"/>
      <point x="6912" y="3944" type="line"/>
      <point x="6520" y="2224" type="line"/>
      <point x="6360" y="2224" type="line"/>
      <point x="6480" y="2760"/>
      <point x="6280" y="3024"/>
    </contour>
    <contour>
      <point x="7440" y="0" type="line"/>
      <point x="3200" y="0" type="line"/>
      <point x="3200" y="160" type="line"/>
      <point x="5960" y="160" type="line" smooth="yes"/>
      <point x="7056" y="160"/>
      <point x="7464" y="784"/>
      <point x="7696" y="1800" type="curve"/>
      <point x="7856" y="1800" type="line"/>
    </contour>
    <contour>
      <point x="5272" y="6000" type="line"/>
      <point x="6032" y="6000" type="line"/>
      <point x="4640" y="0" type="line"/>
      <point x="3880" y="0" type="line"/>
    </contour>
    <contour>
      <point x="2040" y="2040" type="line"/>
      <point x="4440" y="2040" type="line"/>
      <point x="4440" y="1880" type="line"/>
      <point x="2040" y="1880" type="line"/>
    </contour>
    <contour>
      <point x="5160" y="6000" type="line"/>
      <point x="5360" y="6000" type="line"/>
      <point x="600" y="0" type="line"/>
      <point x="360" y="0" type="line"/>
    </contour>
    <contour>
      <point x="-200" y="160" type="line"/>
      <point x="1560" y="160" type="line"/>
      <point x="1560" y="0" type="line"/>
      <point x="-200" y="0" type="line"/>
    </contour>
  </outline>
</glyph>
<glyph name="multiply" format="2">
  <advance width="4240"/>
  <unicode hex="00D7"/>
  <outline>
    <contour>
      <point x="3224" y="1304" type="line"/>
      <point x="1424" y="3624" type="line"/>
      <point x="1536" y="3736" type="line"/>
      <point x="3336" y="1416" type="line"/>
    </contour>
    <contour>
      <point x="896" y="1424" type="line"/>
      <point x="3736" y="3744" type="line"/>
      <point x="3848" y="3632" type="line"/>
      <point x="1008" y="1312" type="line"/>
    </contour>
  </outline>
</glyph>
<glyph name="Thorn" format="2">
  <advance width="605"/>
  <unicode hex="00DE"/>
  <outline>
    <contour>
      <point x="300" y="180" type="curve" smooth="yes"/>
      <point x="190" y="180" type="line"/>
      <point x="190" y="200" type="line"/>
      <point x="300" y="200" type="line" smooth="yes"/>
      <point x="436" y="200"/>
      <point x="515" y="331"/>
      <point x="515" y="440" type="curve" smooth="yes"/>
      <point x="515" y="499"/>
      <point x="496" y="580"/>
      <point x="400" y="580" type="curve" smooth="yes"/>
      <point x="255" y="580" type="line"/>
      <point x="255" y="600" type="line"/>
      <point x="400" y="600" type="line" smooth="yes"/>
      <point x="531" y="600"/>
      <point x="625" y="550"/>
      <point x="625" y="430" type="curve" smooth="yes"/>
      <point x="625" y="280"/>
      <point x="501" y="180"/>
    </contour>
    <contour>
      <point x="-25" y="20" type="line"/>
      <point x="250" y="20" type="line"/>
      <point x="250" y="0" type="line"/>
      <point x="-25" y="0" type="line"/>
    </contour>
    <contour>
      <point x="148" y="750" type="line"/>
      <point x="423" y="750" type="line"/>
      <point x="423" y="730" type="line"/>
      <point x="148" y="730" type="line"/>
    </contour>
    <contour>
      <point x="238" y="750" type="line"/>
      <point x="333" y="750" type="line"/>
      <point x="160" y="0" type="line"/>
      <point x="65" y="0" type="line"/>
    </contour>
  </outline>
</glyph>
<glyph name="germandbls" format="2">
  <advance width="681"/>
  <unicode hex="00DF"/>
  <outline>
    <contour>
      <point x="651" y="190" type="curve" smooth="yes"/>
      <point x="651" y="50"/>
      <point x="537" y="-10"/>
      <point x="446" y="-10" type="curve" smooth="yes"/>
      <point x="357" y="-10"/>
      <point x="308" y="44"/>
      <point x="308" y="116" type="curve" smooth="yes"/>
      <point x="308" y="172"/>
      <point x="340" y="201"/>
      <point x="375" y="201" type="curve" smooth="yes"/>
      <point x="405" y="201"/>
      <point x="429" y="181"/>
      <point x="429" y="145" type="curve" smooth="yes"/>
      <point x="429" y="113"/>
      <point x="401" y="90"/>
      <point x="372" y="90" type="curve" smooth="yes"/>
      <point x="361" y="90"/>
      <point x="343" y="92"/>
      <point x="331" y="102" type="curve"/>
      <point x="334" y="53"/>
      <point x="369" y="12"/>
      <point x="436" y="12" type="curve" smooth="yes"/>
      <point x="525" y="12"/>
      <point x="550" y="96"/>
      <point x="550" y="190" type="curve" smooth="yes"/>
      <point x="550" y="284"/>
      <point x="512" y="396"/>
      <point x="393" y="396" type="curve"/>
      <point x="393" y="410" type="line"/>
      <point x="574" y="410"/>
      <point x="651" y="320"/>
    </contour>
    <contour>
      <point x="-25" y="20" type="line"/>
      <point x="245" y="20" type="line"/>
      <point x="245" y="0" type="line"/>
      <point x="-25" y="0" type="line"/>
    </contour>
    <contour>
      <point x="393" y="401" type="curve"/>
      <point x="393" y="415" type="line"/>
      <point x="522" y="415"/>
      <point x="610" y="517"/>
      <point x="610" y="601" type="curve" smooth="yes"/>
      <point x="610" y="673"/>
      <point x="587" y="743"/>
      <point x="483" y="743" type="curve" smooth="yes"/>
      <point x="339" y="743"/>
      <point x="296" y="616"/>
      <point x="265" y="481" type="curve" smooth="yes"/>
      <point x="155" y="0" type="line"/>
      <point x="65" y="0" type="line"/>
      <point x="175" y="491" type="line" smooth="yes"/>
      <point x="212" y="656"/>
      <point x="310" y="760"/>
      <point x="483" y="760" type="curve" smooth="yes"/>
      <point x="616" y="760"/>
      <point x="711" y="704"/>
      <point x="711" y="601" type="curve" smooth="yes"/>
      <point x="711" y="491"/>
      <point x="594" y="401"/>
    </contour>
  </outline>
</glyph>
<glyph name="ae" format="2">
  <advance width="6104"/>
  <unicode hex="00E6"/>
  <outline>
    <contour>
      <point x="2192" y="2088" type="curve" smooth="yes"/>
      <point x="2784" y="2088" type="line"/>
      <point x="2784" y="1928" type="line"/>
      <point x="2192" y="1928" type="line" smooth="yes"/>
      <point x="1504" y="1928"/>
      <point x="960" y="1440"/>
      <point x="960" y="704" type="curve" smooth="yes"/>
      <point x="960" y="248"/>
      <point x="1160" y="80"/>
      <point x="1440" y="80" type="curve" smooth="yes"/>
      <point x="1896" y="80"/>
      <point x="2368" y="664"/>
      <point x="2544" y="1448" type="curve" smooth="yes"/>
      <point x="2768" y="2440" type="line" smooth="yes"/>
      <point x="2880" y="2952"/>
      <point x="2904" y="3584"/>
      <point x="2264" y="3584" type="curve" smooth="yes"/>
      <point x="1912" y="3584"/>
      <point x="1528" y="3448"/>
      <point x="1416" y="3352" type="curve"/>
      <point x="1640" y="3328"/>
      <point x="1792" y="3200"/>
      <point x="1792" y="2944" type="curve" smooth="yes"/>
      <point x="1792" y="2624"/>
      <point x="1520" y="2488"/>
      <point x="1320" y="2488" type="curve" smooth="yes"/>
      <point x="1080" y="2488"/>
      <point x="904" y="2640"/>
      <point x="904" y="2928" type="curve" smooth="yes"/>
      <point x="904" y="3424"/>
      <point x="1616" y="3744"/>
      <point x="2344" y="3744" type="curve" smooth="yes"/>
      <point x="3384" y="3744"/>
      <point x="3456" y="3088"/>
      <point x="3328" y="2440" type="curve"/>
      <point x="2984" y="1448" type="line"/>
      <point x="2800" y="456"/>
      <point x="2248" y="-80"/>
      <point x="1360" y="-80" type="curve" smooth="yes"/>
      <point x="728" y="-80"/>
      <point x="144" y="152"/>
      <point x="144" y="744" type="curve" smooth="yes"/>
      <point x="144" y="1496"/>
      <point x="896" y="2088"/>
    </contour>
    <contour>
      <point x="5304" y="2976" type="curve" smooth="yes"/>
      <point x="5304" y="3352"/>
      <point x="5216" y="3616"/>
      <point x="4928" y="3616" type="curve" smooth="yes"/>
      <point x="4216" y="3616"/>
      <point x="3352" y="2432"/>
      <point x="3352" y="1120" type="curve" smooth="yes"/>
      <point x="3352" y="528"/>
      <point x="3560" y="120"/>
      <point x="4032" y="120" type="curve" smooth="yes"/>
      <point x="4696" y="120"/>
      <point x="5256" y="584"/>
      <point x="5560" y="1144" type="curve"/>
      <point x="5712" y="1144" type="line"/>
      <point x="5400" y="528"/>
      <point x="4760" y="-80"/>
      <point x="3872" y="-80" type="curve" smooth="yes"/>
      <point x="3224" y="-80"/>
      <point x="2680" y="320"/>
      <point x="2680" y="1280" type="curve"/>
      <point x="2840" y="1240" type="line"/>
      <point x="2856" y="2760"/>
      <point x="3888" y="3760"/>
      <point x="4928" y="3760" type="curve" smooth="yes"/>
      <point x="5584" y="3760"/>
      <point x="6072" y="3552"/>
      <point x="6072" y="2976" type="curve" smooth="yes"/>
      <point x="6072" y="1696"/>
      <point x="4168" y="1696"/>
      <point x="3280" y="1696" type="curve"/>
      <point x="3280" y="1856" type="line"/>
      <point x="4152" y="1856"/>
      <point x="5304" y="1904"/>
    </contour>
  </outline>
</glyph>
<glyph name="eth" format="1">
  <advance width="560"/>
  <unicode hex="00F0"/>
  <outline>
    <contour>
      <point x="210" y="630" type="line"/>
      <point x="630" y="630" type="line"/>
      <point x="630" y="610" type="line"/>
      <point x="210" y="610" type="line"/>
    </contour>
    <contour>
      <point x="557" y="400" type="curve" smooth="yes"/>
      <point x="557" y="190"/>
      <point x="407" y="-10"/>
      <point x="236" y="-10" type="curve" smooth="yes"/>
      <point x="115" y="-10"/>
      <point x="40" y="40"/>
      <point x="40" y="170" type="curve" smooth="yes"/>
      <point x="40" y="380"/>
      <point x="208" y="490"/>
      <point x="329" y="490" type="curve" smooth="yes"/>
      <point x="460" y="490"/>
      <point x="461" y="407"/>
      <point x="461" y="290" type="curve"/>
      <point x="444" y="330" type="line"/>
      <point x="444" y="400"/>
      <point x="414" y="461"/>
      <point x="351" y="461" type="curve" smooth="yes"/>
      <point x="242" y="461"/>
      <point x="140" y="324"/>
      <point x="140" y="150" type="curve" smooth="yes"/>
      <point x="140" y="76"/>
      <point x="154" y="10"/>
      <point x="233" y="10" type="curve" smooth="yes"/>
      <point x="342" y="10"/>
      <point x="444" y="216"/>
      <point x="444" y="330" type="curve"/>
      <point x="457" y="360" type="line"/>
      <point x="457" y="532"/>
      <point x="439" y="743"/>
      <point x="235" y="743" type="curve"/>
      <point x="235" y="760" type="line"/>
      <point x="458" y="760"/>
      <point x="557" y="593"/>
    </contour>
  </outline>
</glyph>
<glyph name="thorn" format="2">
  <advance width="4584"/>
  <unicode hex="00FE"/>
  <outline>
    <contour>
      <point x="1488" y="1296" type="curve" smooth="yes"/>
      <point x="1488" y="712"/>
      <point x="1768" y="360"/>
      <point x="2096" y="360" type="curve" smooth="yes"/>
      <point x="2848" y="360"/>
      <point x="3528" y="1616"/>
      <point x="3528" y="2688" type="curve" smooth="yes"/>
      <point x="3528" y="3280"/>
      <point x="3336" y="3656"/>
      <point x="2928" y="3656" type="curve" smooth="yes"/>
      <point x="2040" y="3656"/>
      <point x="1488" y="2128"/>
    </contour>
    <contour>
      <point x="1360" y="1296" type="curve" smooth="yes"/>
      <point x="1360" y="2160"/>
      <point x="1960" y="3888"/>
      <point x="3088" y="3888" type="curve" smooth="yes"/>
      <point x="3640" y="3888"/>
      <point x="4360" y="3568"/>
      <point x="4360" y="2528" type="curve" smooth="yes"/>
      <point x="4360" y="928"/>
      <point x="3104" y="56"/>
      <point x="2312" y="56" type="curve" smooth="yes"/>
      <point x="1704" y="56"/>
      <point x="1360" y="560"/>
    </contour>
    <contour>
      <point x="-600" y="-1840" type="line"/>
      <point x="1200" y="-1840" type="line"/>
      <point x="1200" y="-2000" type="line"/>
      <point x="-600" y="-2000" type="line"/>
    </contour>
    <contour>
      <point x="1712" y="5840" type="line"/>
      <point x="1176" y="5840" type="line"/>
      <point x="1176" y="6000" type="line"/>
      <point x="2472" y="6000" type="line"/>
      <point x="1640" y="2352" type="line"/>
      <point x="1440" y="1704" type="line"/>
      <point x="1392" y="1216" type="line"/>
      <point x="640" y="-2000" type="line"/>
      <point x="-80" y="-2000" type="line"/>
    </contour>
  </outline>
</glyph>
<glyph name="dotlessi" format="2">
  <advance width="2552"/>
  <unicode hex="0131"/>
  <outline>
    <contour>
      <point x="2392" y="1304" type="line"/>
      <point x="2088" y="504"/>
      <point x="1616" y="-80"/>
      <point x="968" y="-80" type="curve" smooth="yes"/>
      <point x="592" y="-80"/>
      <point x="400" y="104"/>
      <point x="400" y="504" type="curve" smooth="yes"/>
      <point x="400" y="544"/>
      <point x="408" y="632"/>
      <point x="416" y="680" type="curve" smooth="yes"/>
      <point x="1056" y="3520" type="line"/>
      <point x="520" y="3520" type="line"/>
      <point x="520" y="3680" type="line"/>
      <point x="1816" y="3680" type="line"/>
      <point x="1064" y="448" type="line" smooth="yes"/>
      <point x="1056" y="400"/>
      <point x="1048" y="344"/>
      <point x="1048" y="304" type="curve" smooth="yes"/>
      <point x="1048" y="216"/>
      <point x="1088" y="152"/>
      <point x="1192" y="152" type="curve" smooth="yes"/>
      <point x="1624" y="152"/>
      <point x="2048" y="824"/>
      <point x="2232" y="1352" type="curve"/>
    </contour>
  </outline>
</glyph>
<glyph name="dotlessi" format="1">
  <advance width="319"/>
  <unicode hex="0131"/>
  <outline>
    <contour>
      <point x="299" y="163" type="line"/>
      <point x="261" y="63"/>
      <point x="202" y="-10"/>
      <point x="121" y="-10" type="curve" smooth="yes"/>
      <point x="74" y="-10"/>
      <point x="50" y="13"/>
      <point x="50" y="63" type="curve" smooth="yes"/>
      <point x="50" y="68"/>
      <point x="51" y="79"/>
      <point x="52" y="85" type="curve" smooth="yes"/>
      <point x="132" y="440" type="line"/>
      <point x="65" y="440" type="line"/>
      <point x="65" y="460" type="line"/>
      <point x="227" y="460" type="line"/>
      <point x="133" y="56" type="line" smooth="yes"/>
      <point x="132" y="50"/>
      <point x="131" y="43"/>
      <point x="131" y="38" type="curve" smooth="yes"/>
      <point x="131" y="27"/>
      <point x="136" y="19"/>
      <point x="149" y="19" type="curve" smooth="yes"/>
      <point x="203" y="19"/>
      <point x="256" y="103"/>
      <point x="279" y="169" type="curve"/>
    </contour>
  </outline>
</glyph>
<glyph name="kgreenlandic" format="2">
  <advance width="4416"/>
  <unicode hex="0138"/>
  <outline>
    <contour>
      <point x="4256" y="1304" type="line"/>
      <point x="3952" y="504"/>
      <point x="3480" y="-80"/>
      <point x="2832" y="-80" type="curve" smooth="yes"/>
      <point x="2456" y="-80"/>
      <point x="2288" y="104"/>
      <point x="2288" y="504" type="curve" smooth="yes"/>
      <point x="2288" y="544"/>
      <point x="2296" y="632"/>
      <point x="2304" y="680" type="curve" smooth="yes"/>
      <point x="2400" y="1120" type="line" smooth="yes"/>
      <point x="2504" y="1584"/>
      <point x="2776" y="2168"/>
      <point x="2184" y="2168" type="curve" smooth="yes"/>
      <point x="1616" y="2168"/>
      <point x="1504" y="1792"/>
      <point x="1432" y="1520" type="curve"/>
      <point x="1312" y="1520" type="line"/>
      <point x="1488" y="2256"/>
      <point x="1920" y="2312"/>
      <point x="2248" y="2312" type="curve" smooth="yes"/>
      <point x="2800" y="2312"/>
      <point x="3296" y="2008"/>
      <point x="3056" y="968" type="curve" smooth="yes"/>
      <point x="2912" y="352" type="line" smooth="yes"/>
      <point x="2912" y="336"/>
      <point x="2904" y="296"/>
      <point x="2904" y="280" type="curve" smooth="yes"/>
      <point x="2904" y="192"/>
      <point x="2960" y="152"/>
      <point x="3064" y="152" type="curve" smooth="yes"/>
      <point x="3488" y="152"/>
      <point x="3912" y="824"/>
      <point x="4096" y="1352" type="curve"/>
    </contour>
    <contour>
      <point x="1304" y="2584" type="curve"/>
      <point x="1496" y="2496" type="line"/>
      <point x="1520" y="2256"/>
      <point x="1640" y="2088"/>
      <point x="1896" y="2088" type="curve" smooth="yes"/>
      <point x="2216" y="2088"/>
      <point x="2376" y="2384"/>
      <point x="2584" y="2896" type="curve" smooth="yes"/>
      <point x="2808" y="3440"/>
      <point x="3080" y="3760"/>
      <point x="3480" y="3760" type="curve" smooth="yes"/>
      <point x="3840" y="3760"/>
      <point x="4136" y="3528"/>
      <point x="4136" y="3112" type="curve" smooth="yes"/>
      <point x="4136" y="2752"/>
      <point x="3928" y="2632"/>
      <point x="3728" y="2632" type="curve" smooth="yes"/>
      <point x="3528" y="2632"/>
      <point x="3328" y="2768"/>
      <point x="3328" y="3032" type="curve" smooth="yes"/>
      <point x="3328" y="3256"/>
      <point x="3488" y="3408"/>
      <point x="3712" y="3408" type="curve" smooth="yes"/>
      <point x="3800" y="3408"/>
      <point x="3856" y="3376"/>
      <point x="3888" y="3360" type="curve"/>
      <point x="3840" y="3544"/>
      <point x="3648" y="3600"/>
      <point x="3504" y="3600" type="curve" smooth="yes"/>
      <point x="3160" y="3600"/>
      <point x="2960" y="3368"/>
      <point x="2752" y="2848" type="curve" smooth="yes"/>
      <point x="2536" y="2304"/>
      <point x="2296" y="1936"/>
      <point x="1896" y="1936" type="curve" smooth="yes"/>
      <point x="1568" y="1936"/>
      <point x="1304" y="2168"/>
    </contour>
    <contour>
      <point x="1176" y="3520" type="line"/>
      <point x="496" y="3520" type="line"/>
      <point x="496" y="3680" type="line"/>
      <point x="1936" y="3680" type="line"/>
      <point x="1080" y="0" type="line"/>
      <point x="360" y="0" type="line"/>
    </contour>
  </outline>
</glyph>
<glyph name="lslash" format="2">
  <advance width="2552"/>
  <unicode hex="0142"/>
  <outline>
    <contour>
      <point x="320" y="3200" type="line"/>
      <point x="2600" y="4640" type="line"/>
      <point x="2600" y="4424" type="line"/>
      <point x="320" y="2984" type="line"/>
    </contour>
    <component base="l"/>
  </outline>
</glyph>
<glyph name="uni0213" format="2">
  <advance width="405"/>
  <unicode hex="0213"/>
  <outline>
    <contour>
      <point x="373" y="530" type="line"/>
      <point x="383" y="579"/>
      <point x="357" y="604"/>
      <point x="303" y="604" type="curve" smooth="yes"/>
      <point x="249" y="604"/>
      <point x="203" y="579"/>
      <point x="193" y="530" type="curve"/>
      <point x="173" y="530" type="line"/>
      <point x="183" y="591"/>
      <point x="223" y="659"/>
      <point x="313" y="659" type="curve" smooth="yes"/>
      <point x="403" y="659"/>
      <point x="403" y="591"/>
      <point x="393" y="530" type="curve"/>
    </contour>
    <component base="r"/>
  </outline>
</glyph>
<glyph name="uni0237" format="2">
  <advance width="2096"/>
  <unicode hex="0237"/>
  <outline>
    <contour>
      <point x="-1160" y="-1560" type="curve"/>
      <point x="-1064" y="-1744"/>
      <point x="-872" y="-1920"/>
      <point x="-616" y="-1920" type="curve" smooth="yes"/>
      <point x="104" y="-1920"/>
      <point x="136" y="-800"/>
      <point x="360" y="160" type="curve" smooth="yes"/>
      <point x="1144" y="3520" type="line"/>
      <point x="424" y="3520" type="line"/>
      <point x="424" y="3680" type="line"/>
      <point x="1864" y="3680" type="line"/>
      <point x="1080" y="-96" type="line" smooth="yes"/>
      <point x="872" y="-1096"/>
      <point x="464" y="-2080"/>
      <point x="-576" y="-2080" type="curve" smooth="yes"/>
      <point x="-1144" y="-2080"/>
      <point x="-1400" y="-1544"/>
      <point x="-1400" y="-1248" type="curve" smooth="yes"/>
      <point x="-1400" y="-920"/>
      <point x="-1144" y="-712"/>
      <point x="-904" y="-712" type="curve" smooth="yes"/>
      <point x="-704" y="-712"/>
      <point x="-496" y="-848"/>
      <point x="-496" y="-1144" type="curve" smooth="yes"/>
      <point x="-496" y="-1440"/>
      <point x="-728" y="-1592"/>
      <point x="-1000" y="-1592" type="curve" smooth="yes"/>
      <point x="-1024" y="-1592"/>
      <point x="-1112" y="-1584"/>
    </contour>
  </outline>
</glyph>
<glyph name="uni0237" format="1">
  <advance width="262"/>
  <unicode hex="0237"/>
  <outline>
    <contour>
      <point x="-145" y="-195" type="curve"/>
      <point x="-133" y="-218"/>
      <point x="-109" y="-240"/>
      <point x="-77" y="-240" type="curve" smooth="yes"/>
      <point x="13" y="-240"/>
      <point x="17" y="-100"/>
      <point x="45" y="20" type="curve" smooth="yes"/>
      <point x="143" y="440" type="line"/>
      <point x="53" y="440" type="line"/>
      <point x="53" y="460" type="line"/>
      <point x="233" y="460" type="line"/>
      <point x="135" y="-12" type="line" smooth="yes"/>
      <point x="109" y="-137"/>
      <point x="58" y="-260"/>
      <point x="-72" y="-260" type="curve" smooth="yes"/>
      <point x="-143" y="-260"/>
      <point x="-175" y="-193"/>
      <point x="-175" y="-156" type="curve" smooth="yes"/>
      <point x="-175" y="-115"/>
      <point x="-143" y="-89"/>
      <point x="-113" y="-89" type="curve" smooth="yes"/>
      <point x="-88" y="-89"/>
      <point x="-62" y="-106"/>
      <point x="-62" y="-143" type="curve" smooth="yes"/>
      <point x="-62" y="-180"/>
      <point x="-91" y="-199"/>
      <point x="-125" y="-199" type="curve" smooth="yes"/>
      <point x="-128" y="-199"/>
      <point x="-139" y="-198"/>
    </contour>
  </outline>
</glyph>
<glyph name="ogonek" format="1">
  <advance width="550"/>
  <unicode hex="02DB"/>
  <outline>
    <contour>
      <point x="318" y="-113" type="line"/>
      <point x="303" y="-141"/>
      <point x="274" y="-186"/>
      <point x="203" y="-186" type="curve" smooth="yes"/>
      <point x="152" y="-186"/>
      <point x="100" y="-170"/>
      <point x="100" y="-110" type="curve" smooth="yes"/>
      <point x="100" y="-30"/>
      <point x="213" y="23"/>
      <point x="274" y="43" type="curve"/>
      <point x="278" y="32" type="line"/>
      <point x="247" y="15"/>
      <point x="193" y="-22"/>
      <point x="193" y="-95" type="curve" smooth="yes"/>
      <point x="193" y="-132"/>
      <point x="212" y="-155"/>
      <point x="236" y="-155" type="curve" smooth="yes"/>
      <point x="272" y="-155"/>
      <point x="291" y="-127"/>
      <point x="302" y="-106" type="curve"/>
    </contour>
  </outline>
</glyph>
<glyph name="pi" format="2">
  <advance width="4648"/>
  <unicode hex="03C0"/>
  <outline>
    <contour>
      <point x="592" y="-80" type="curve" smooth="yes"/>
      <point x="264" y="-80"/>
      <point x="120" y="104"/>
      <point x="120" y="304" type="curve" smooth="yes"/>
      <point x="120" y="848"/>
      <point x="1040" y="768"/>
      <point x="1440" y="2232" type="curve" smooth="yes"/>
      <point x="1816" y="3600" type="line"/>
      <point x="2264" y="3600" type="line"/>
      <point x="1824" y="1944" type="line" smooth="yes"/>
      <point x="1512" y="760"/>
      <point x="1136" y="-80"/>
    </contour>
    <contour>
      <point x="4208" y="824" type="line"/>
      <point x="4024" y="264"/>
      <point x="3688" y="-80"/>
      <point x="3184" y="-80" type="curve" smooth="yes"/>
      <point x="2888" y="-80"/>
      <point x="2520" y="144"/>
      <point x="2648" y="664" type="curve" smooth="yes"/>
      <point x="3328" y="3360" type="line"/>
      <point x="4048" y="3360" type="line"/>
      <point x="3384" y="888" type="line" smooth="yes"/>
      <point x="3304" y="592"/>
      <point x="3432" y="520"/>
      <point x="3624" y="520" type="curve" smooth="yes"/>
      <point x="3768" y="520"/>
      <point x="3936" y="616"/>
      <point x="4088" y="888" type="curve"/>
    </contour>
    <contour>
      <point x="4768" y="3680" type="line"/>
      <point x="4528" y="2960" type="line"/>
      <point x="848" y="2960" type="line"/>
      <point x="704" y="2360" type="line"/>
      <point x="544" y="2360" type="line"/>
      <point x="856" y="3680" type="line"/>
    </contour>
  </outline>
</glyph>
<glyph name="uni1E9E" format="2">
  <advance width="6408"/>
  <unicode hex="1E9E"/>
  <outline>
    <contour>
      <point x="2360" y="1088" type="curve" smooth="yes"/>
      <point x="2360" y="1416"/>
      <point x="2560" y="1608"/>
      <point x="2840" y="1608" type="curve" smooth="yes"/>
      <point x="3080" y="1608"/>
      <point x="3272" y="1448"/>
      <point x="3272" y="1160" type="curve" smooth="yes"/>
      <point x="3272" y="904"/>
      <point x="3048" y="720"/>
      <point x="2816" y="720" type="curve" smooth="yes"/>
      <point x="2728" y="720"/>
      <point x="2632" y="760"/>
      <point x="2600" y="768" type="curve"/>
      <point x="2640" y="544"/>
      <point x="2928" y="136"/>
      <point x="3688" y="136" type="curve" smooth="yes"/>
      <point x="4800" y="136"/>
      <point x="5320" y="928"/>
      <point x="5320" y="1840" type="curve" smooth="yes"/>
      <point x="5320" y="2432"/>
      <point x="5136" y="3168"/>
      <point x="4104" y="3168" type="curve"/>
      <point x="4104" y="3280" type="line"/>
      <point x="5712" y="3280"/>
      <point x="6168" y="2720"/>
      <point x="6168" y="1840" type="curve" smooth="yes"/>
      <point x="6168" y="640"/>
      <point x="5136" y="-80"/>
      <point x="3848" y="-80" type="curve" smooth="yes"/>
      <point x="2712" y="-80"/>
      <point x="2360" y="512"/>
    </contour>
    <contour>
      <point x="-200" y="160" type="line"/>
      <point x="2040" y="160" type="line"/>
      <point x="2040" y="0" type="line"/>
      <point x="-200" y="0" type="line"/>
    </contour>
    <contour>
      <point x="4104" y="3208" type="curve"/>
      <point x="4104" y="3320" type="line"/>
      <point x="5536" y="3320"/>
      <point x="5800" y="4456"/>
      <point x="5800" y="4968" type="curve" smooth="yes"/>
      <point x="5800" y="5384"/>
      <point x="5656" y="5944"/>
      <point x="4504" y="5944" type="curve" smooth="yes"/>
      <point x="3112" y="5944"/>
      <point x="2424" y="4752"/>
      <point x="2120" y="3448" type="curve" smooth="yes"/>
      <point x="1320" y="0" type="line"/>
      <point x="520" y="0" type="line"/>
      <point x="1320" y="3528" type="line" smooth="yes"/>
      <point x="1672" y="5072"/>
      <point x="2880" y="6080"/>
      <point x="4504" y="6080" type="curve" smooth="yes"/>
      <point x="6048" y="6080"/>
      <point x="6648" y="5552"/>
      <point x="6648" y="4888" type="curve" smooth="yes"/>
      <point x="6648" y="4248"/>
      <point x="6112" y="3208"/>
    </contour>
  </outline>
</glyph>
<glyph name="uni2031" format="2">
  <advance width="1950"/>
  <unicode hex="2031"/>
  <outline>
    <contour>
      <point x="1690" y="-10" type="curve" smooth="yes"/>
      <point x="1597" y="-10"/>
      <point x="1540" y="37"/>
      <point x="1540" y="140" type="curve" smooth="yes"/>
      <point x="1540" y="303"/>
      <point x="1647" y="430"/>
      <point x="1780" y="430" type="curve" smooth="yes"/>
      <point x="1873" y="430"/>
      <point x="1930" y="383"/>
      <point x="1930" y="280" type="curve" smooth="yes"/>
      <point x="1930" y="117"/>
      <point x="1823" y="-10"/>
    </contour>
    <contour>
      <point x="1780" y="410" type="curve" smooth="yes"/>
      <point x="1706" y="410"/>
      <point x="1640" y="252"/>
      <point x="1640" y="120" type="curve" smooth="yes"/>
      <point x="1640" y="58"/>
      <point x="1656" y="10"/>
      <point x="1690" y="10" type="curve" smooth="yes"/>
      <point x="1764" y="10"/>
      <point x="1830" y="168"/>
      <point x="1830" y="300" type="curve" smooth="yes"/>
      <point x="1830" y="362"/>
      <point x="1814" y="410"/>
    </contour>
    <contour>
      <point x="1200" y="-10" type="curve" smooth="yes"/>
      <point x="1107" y="-10"/>
      <point x="1050" y="37"/>
      <point x="1050" y="140" type="curve" smooth="yes"/>
      <point x="1050" y="303"/>
      <point x="1157" y="430"/>
      <point x="1290" y="430" type="curve" smooth="yes"/>
      <point x="1383" y="430"/>
      <point x="1440" y="383"/>
      <point x="1440" y="280" type="curve" smooth="yes"/>
      <point x="1440" y="117"/>
      <point x="1333" y="-10"/>
    </contour>
    <contour>
      <point x="1290" y="410" type="curve" smooth="yes"/>
      <point x="1216" y="410"/>
      <point x="1150" y="252"/>
      <point x="1150" y="120" type="curve" smooth="yes"/>
      <point x="1150" y="58"/>
      <point x="1166" y="10"/>
      <point x="1200" y="10" type="curve" smooth="yes"/>
      <point x="1274" y="10"/>
      <point x="1340" y="168"/>
      <point x="1340" y="300" type="curve" smooth="yes"/>
      <point x="1340" y="362"/>
      <point x="1324" y="410"/>
    </contour>
    <contour>
      <point x="730" y="-10" type="curve" smooth="yes"/>
      <point x="637" y="-10"/>
      <point x="580" y="37"/>
      <point x="580" y="140" type="curve" smooth="yes"/>
      <point x="580" y="303"/>
      <point x="687" y="430"/>
      <point x="820" y="430" type="curve" smooth="yes"/>
      <point x="913" y="430"/>
      <point x="970" y="383"/>
      <point x="970" y="280" type="curve" smooth="yes"/>
      <point x="970" y="117"/>
      <point x="863" y="-10"/>
    </contour>
    <contour>
      <point x="820" y="410" type="curve" smooth="yes"/>
      <point x="746" y="410"/>
      <point x="680" y="252"/>
      <point x="680" y="120" type="curve" smooth="yes"/>
      <point x="680" y="58"/>
      <point x="696" y="10"/>
      <point x="730" y="10" type="curve" smooth="yes"/>
      <point x="804" y="10"/>
      <point x="870" y="168"/>
      <point x="870" y="300" type="curve" smooth="yes"/>
      <point x="870" y="362"/>
      <point x="854" y="410"/>
    </contour>
    <contour>
      <point x="868" y="750" type="line"/>
      <point x="895" y="750" type="line"/>
      <point x="220" y="0" type="line"/>
      <point x="193" y="0" type="line"/>
    </contour>
    <contour>
      <point x="275" y="320" type="curve" smooth="yes"/>
      <point x="182" y="320"/>
      <point x="125" y="367"/>
      <point x="125" y="470" type="curve" smooth="yes"/>
      <point x="125" y="633"/>
      <point x="232" y="760"/>
      <point x="365" y="760" type="curve" smooth="yes"/>
      <point x="458" y="760"/>
      <point x="515" y="713"/>
      <point x="515" y="610" type="curve" smooth="yes"/>
      <point x="515" y="447"/>
      <point x="408" y="320"/>
    </contour>
    <contour>
      <point x="365" y="740" type="curve" smooth="yes"/>
      <point x="291" y="740"/>
      <point x="225" y="582"/>
      <point x="225" y="450" type="curve" smooth="yes"/>
      <point x="225" y="388"/>
      <point x="241" y="340"/>
      <point x="275" y="340" type="curve" smooth="yes"/>
      <point x="349" y="340"/>
      <point x="415" y="498"/>
      <point x="415" y="630" type="curve" smooth="yes"/>
      <point x="415" y="692"/>
      <point x="399" y="740"/>
    </contour>
  </outline>
</glyph>
<glyph name="uni203D" format="2">
  <advance width="560"/>
  <unicode hex="203D"/>
  <outline>
    <contour>
      <point x="418" y="529" type="curve" smooth="yes"/>
      <point x="398" y="423"/>
      <point x="319" y="358"/>
      <point x="279" y="208" type="curve"/>
      <point x="259" y="208" type="line"/>
      <point x="289" y="358"/>
      <point x="300" y="423"/>
      <point x="300" y="499" type="curve" smooth="yes"/>
      <point x="300" y="555"/>
      <point x="315" y="598"/>
      <point x="364" y="598" type="curve" smooth="yes"/>
      <point x="399" y="598"/>
      <point x="426" y="570"/>
    </contour>
    <contour>
      <point x="504" y="610" type="curve" smooth="yes"/>
      <point x="504" y="684"/>
      <point x="465" y="739"/>
      <point x="376" y="739" type="curve" smooth="yes"/>
      <point x="272" y="739"/>
      <point x="205" y="674"/>
      <point x="195" y="636" type="curve"/>
      <point x="199" y="637"/>
      <point x="206" y="640"/>
      <point x="217" y="640" type="curve" smooth="yes"/>
      <point x="246" y="640"/>
      <point x="274" y="620"/>
      <point x="274" y="585" type="curve" smooth="yes"/>
      <point x="274" y="545"/>
      <point x="242" y="529"/>
      <point x="217" y="529" type="curve" smooth="yes"/>
      <point x="187" y="529"/>
      <point x="160" y="550"/>
      <point x="160" y="591" type="curve" smooth="yes"/>
      <point x="160" y="673"/>
      <point x="254" y="760"/>
      <point x="386" y="760" type="curve" smooth="yes"/>
      <point x="497" y="760"/>
      <point x="605" y="710"/>
      <point x="605" y="590" type="curve" smooth="yes"/>
      <point x="605" y="450"/>
      <point x="458" y="335"/>
      <point x="297" y="335" type="curve"/>
      <point x="297" y="349" type="line"/>
      <point x="414" y="380"/>
      <point x="504" y="487"/>
    </contour>
    <component base="period" xOffset="159"/>
  </outline>
</glyph>
<glyph name="Euro" format="2">
  <advance width="710"/>
  <unicode hex="20AC"/>
  <outline>
    <contour>
      <point x="720" y="661" type="curve"/>
      <point x="720" y="676"/>
      <point x="673" y="739"/>
      <point x="589" y="739" type="curve" smooth="yes"/>
      <point x="400" y="739"/>
      <point x="269" y="489"/>
      <point x="269" y="245" type="curve" smooth="yes"/>
      <point x="269" y="131"/>
      <point x="296" y="13"/>
      <point x="405" y="13" type="curve" smooth="yes"/>
      <point x="500" y="13"/>
      <point x="596" y="95"/>
      <point x="631" y="178" type="curve"/>
      <point x="653" y="178" type="line"/>
      <point x="617" y="81"/>
      <point x="514" y="-10"/>
      <point x="393" y="-10" type="curve" smooth="yes"/>
      <point x="272" y="-10"/>
      <point x="155" y="75"/>
      <point x="155" y="275" type="curve" smooth="yes"/>
      <point x="155" y="535"/>
      <point x="358" y="760"/>
      <point x="579" y="760" type="curve" smooth="yes"/>
      <point x="701" y="760"/>
      <point x="755" y="668"/>
      <point x="755" y="616" type="curve" smooth="yes"/>
      <point x="755" y="575"/>
      <point x="728" y="554"/>
      <point x="698" y="554" type="curve" smooth="yes"/>
      <point x="673" y="554"/>
      <point x="641" y="570"/>
      <point x="641" y="610" type="curve" smooth="yes"/>
      <point x="641" y="645"/>
      <point x="669" y="665"/>
      <point x="698" y="665" type="curve" smooth="yes"/>
      <point x="709" y="665"/>
      <point x="716" y="662"/>
    </contour>
    <component base="equal" xOffset="-30" yOffset="-70"/>
  </outline>
</glyph>
<glyph name="uniFB00" format="2">
  <advance width="4928"/>
  <unicode hex="FB00"/>
  <outline>
    <contour>
      <point x="416" y="3680" type="line"/>
      <point x="5216" y="3680" type="line"/>
      <point x="5216" y="3520" type="line"/>
      <point x="416" y="3520" type="line"/>
    </contour>
    <contour>
      <point x="5920" y="5648" type="curve"/>
      <point x="5848" y="5744"/>
      <point x="5720" y="5920"/>
      <point x="5304" y="5920" type="curve" smooth="yes"/>
      <point x="4744" y="5920"/>
      <point x="4352" y="5296"/>
      <point x="4176" y="4320" type="curve" smooth="yes"/>
      <point x="3456" y="304" type="line" smooth="yes"/>
      <point x="3272" y="-704"/>
      <point x="2632" y="-1680"/>
      <point x="1512" y="-1680" type="curve" smooth="yes"/>
      <point x="784" y="-1680"/>
      <point x="528" y="-1224"/>
      <point x="528" y="-888" type="curve" smooth="yes"/>
      <point x="528" y="-560"/>
      <point x="744" y="-392"/>
      <point x="984" y="-392" type="curve" smooth="yes"/>
      <point x="1184" y="-392"/>
      <point x="1432" y="-504"/>
      <point x="1432" y="-824" type="curve" smooth="yes"/>
      <point x="1432" y="-1144"/>
      <point x="1184" y="-1272"/>
      <point x="952" y="-1272" type="curve" smooth="yes"/>
      <point x="872" y="-1272"/>
      <point x="832" y="-1248"/>
      <point x="816" y="-1248" type="curve"/>
      <point x="888" y="-1344"/>
      <point x="1016" y="-1520"/>
      <point x="1512" y="-1520" type="curve" smooth="yes"/>
      <point x="2152" y="-1520"/>
      <point x="2552" y="-896"/>
      <point x="2720" y="80" type="curve" smooth="yes"/>
      <point x="3400" y="4096" type="line" smooth="yes"/>
      <point x="3568" y="5104"/>
      <point x="4264" y="6080"/>
      <point x="5304" y="6080" type="curve" smooth="yes"/>
      <point x="5952" y="6080"/>
      <point x="6208" y="5624"/>
      <point x="6208" y="5288" type="curve" smooth="yes"/>
      <point x="6208" y="4960"/>
      <point x="5992" y="4792"/>
      <point x="5752" y="4792" type="curve" smooth="yes"/>
      <point x="5552" y="4792"/>
      <point x="5304" y="4904"/>
      <point x="5304" y="5224" type="curve" smooth="yes"/>
      <point x="5304" y="5544"/>
      <point x="5552" y="5672"/>
      <point x="5784" y="5672" type="curve" smooth="yes"/>
      <point x="5864" y="5672"/>
      <point x="5904" y="5648"/>
    </contour>
    <contour>
      <point x="3752" y="5248" type="curve"/>
      <point x="3680" y="5344"/>
      <point x="3552" y="5520"/>
      <point x="3056" y="5520" type="curve" smooth="yes"/>
      <point x="2416" y="5520"/>
      <point x="2024" y="4896"/>
      <point x="1848" y="3920" type="curve" smooth="yes"/>
      <point x="1128" y="-96" type="line" smooth="yes"/>
      <point x="944" y="-1104"/>
      <point x="304" y="-2080"/>
      <point x="-736" y="-2080" type="curve" smooth="yes"/>
      <point x="-1384" y="-2080"/>
      <point x="-1640" y="-1624"/>
      <point x="-1640" y="-1288" type="curve" smooth="yes"/>
      <point x="-1640" y="-960"/>
      <point x="-1424" y="-792"/>
      <point x="-1184" y="-792" type="curve" smooth="yes"/>
      <point x="-984" y="-792"/>
      <point x="-736" y="-904"/>
      <point x="-736" y="-1224" type="curve" smooth="yes"/>
      <point x="-736" y="-1544"/>
      <point x="-984" y="-1672"/>
      <point x="-1216" y="-1672" type="curve" smooth="yes"/>
      <point x="-1296" y="-1672"/>
      <point x="-1336" y="-1648"/>
      <point x="-1352" y="-1648" type="curve"/>
      <point x="-1280" y="-1744"/>
      <point x="-1152" y="-1920"/>
      <point x="-736" y="-1920" type="curve" smooth="yes"/>
      <point x="-176" y="-1920"/>
      <point x="224" y="-1296"/>
      <point x="392" y="-320" type="curve" smooth="yes"/>
      <point x="1072" y="3696" type="line" smooth="yes"/>
      <point x="1240" y="4704"/>
      <point x="1936" y="5680"/>
      <point x="3056" y="5680" type="curve" smooth="yes"/>
      <point x="3784" y="5680"/>
      <point x="4040" y="5224"/>
      <point x="4040" y="4888" type="curve" smooth="yes"/>
      <point x="4040" y="4560"/>
      <point x="3824" y="4392"/>
      <point x="3584" y="4392" type="curve" smooth="yes"/>
      <point x="3384" y="4392"/>
      <point x="3136" y="4504"/>
      <point x="3136" y="4824" type="curve" smooth="yes"/>
      <point x="3136" y="5144"/>
      <point x="3384" y="5272"/>
      <point x="3616" y="5272" type="curve" smooth="yes"/>
      <point x="3696" y="5272"/>
      <point x="3736" y="5248"/>
    </contour>
  </outline>
</glyph>
<glyph name="uniFB01" format="2">
  <advance width="593"/>
  <unicode hex="FB01"/>
  <outline>
    <contour>
      <point x="573" y="163" type="line"/>
      <point x="535" y="63"/>
      <point x="476" y="-10"/>
      <point x="395" y="-10" type="curve" smooth="yes"/>
      <point x="348" y="-10"/>
      <point x="324" y="13"/>
      <point x="324" y="63" type="curve" smooth="yes"/>
      <point x="324" y="68"/>
      <point x="325" y="79"/>
      <point x="326" y="85" type="curve" smooth="yes"/>
      <point x="406" y="440" type="line"/>
      <point x="52" y="440" type="line"/>
      <point x="52" y="460" type="line"/>
      <point x="501" y="460" type="line"/>
      <point x="407" y="56" type="line" smooth="yes"/>
      <point x="406" y="50"/>
      <point x="405" y="43"/>
      <point x="405" y="38" type="curve" smooth="yes"/>
      <point x="405" y="27"/>
      <point x="410" y="19"/>
      <point x="423" y="19" type="curve" smooth="yes"/>
      <point x="477" y="19"/>
      <point x="530" y="103"/>
      <point x="553" y="169" type="curve"/>
    </contour>
    <contour>
      <point x="500" y="706" type="curve"/>
      <point x="491" y="718"/>
      <point x="475" y="740"/>
      <point x="403" y="740" type="curve" smooth="yes"/>
      <point x="313" y="740"/>
      <point x="264" y="662"/>
      <point x="242" y="540" type="curve" smooth="yes"/>
      <point x="141" y="-12" type="line" smooth="yes"/>
      <point x="118" y="-137"/>
      <point x="38" y="-260"/>
      <point x="-92" y="-260" type="curve" smooth="yes"/>
      <point x="-173" y="-260"/>
      <point x="-205" y="-203"/>
      <point x="-205" y="-161" type="curve" smooth="yes"/>
      <point x="-205" y="-120"/>
      <point x="-178" y="-99"/>
      <point x="-148" y="-99" type="curve" smooth="yes"/>
      <point x="-123" y="-99"/>
      <point x="-92" y="-113"/>
      <point x="-92" y="-153" type="curve" smooth="yes"/>
      <point x="-92" y="-193"/>
      <point x="-123" y="-209"/>
      <point x="-152" y="-209" type="curve" smooth="yes"/>
      <point x="-162" y="-209"/>
      <point x="-167" y="-206"/>
      <point x="-169" y="-206" type="curve"/>
      <point x="-160" y="-218"/>
      <point x="-144" y="-240"/>
      <point x="-92" y="-240" type="curve" smooth="yes"/>
      <point x="-22" y="-240"/>
      <point x="28" y="-162"/>
      <point x="49" y="-40" type="curve" smooth="yes"/>
      <point x="145" y="512" type="line" smooth="yes"/>
      <point x="167" y="638"/>
      <point x="253" y="760"/>
      <point x="403" y="760" type="curve" smooth="yes"/>
      <point x="504" y="760"/>
      <point x="536" y="703"/>
      <point x="536" y="661" type="curve" smooth="yes"/>
      <point x="536" y="620"/>
      <point x="509" y="599"/>
      <point x="479" y="599" type="curve" smooth="yes"/>
      <point x="454" y="599"/>
      <point x="423" y="613"/>
      <point x="423" y="653" type="curve" smooth="yes"/>
      <point x="423" y="693"/>
      <point x="454" y="709"/>
      <point x="483" y="709" type="curve" smooth="yes"/>
      <point x="493" y="709"/>
      <point x="498" y="706"/>
    </contour>
  </outline>
</glyph>
<glyph name="uniFB02" format="2">
  <advance width="619"/>
  <unicode hex="FB02"/>
  <outline>
    <contour>
      <point x="599" y="163" type="line"/>
      <point x="561" y="63"/>
      <point x="502" y="-10"/>
      <point x="421" y="-10" type="curve" smooth="yes"/>
      <point x="374" y="-10"/>
      <point x="350" y="13"/>
      <point x="350" y="63" type="curve" smooth="yes"/>
      <point x="350" y="68"/>
      <point x="351" y="79"/>
      <point x="352" y="85" type="curve" smooth="yes"/>
      <point x="500" y="730" type="line"/>
      <point x="599" y="770" type="line"/>
      <point x="433" y="56" type="line" smooth="yes"/>
      <point x="432" y="50"/>
      <point x="431" y="43"/>
      <point x="431" y="38" type="curve" smooth="yes"/>
      <point x="431" y="27"/>
      <point x="436" y="19"/>
      <point x="449" y="19" type="curve" smooth="yes"/>
      <point x="503" y="19"/>
      <point x="556" y="103"/>
      <point x="579" y="169" type="curve"/>
    </contour>
    <contour>
      <point x="52" y="460" type="line"/>
      <point x="372" y="460" type="line"/>
      <point x="372" y="440" type="line"/>
      <point x="52" y="440" type="line"/>
    </contour>
    <contour>
      <point x="526" y="661" type="curve" smooth="yes"/>
      <point x="526" y="620"/>
      <point x="499" y="599"/>
      <point x="469" y="599" type="curve" smooth="yes"/>
      <point x="444" y="599"/>
      <point x="413" y="613"/>
      <point x="413" y="653" type="curve" smooth="yes"/>
      <point x="413" y="693"/>
      <point x="444" y="709"/>
      <point x="473" y="709" type="curve" smooth="yes"/>
      <point x="483" y="709"/>
      <point x="488" y="706"/>
      <point x="490" y="706" type="curve"/>
      <point x="481" y="718"/>
      <point x="465" y="740"/>
      <point x="413" y="740" type="curve" smooth="yes"/>
      <point x="333" y="740"/>
      <point x="264" y="662"/>
      <point x="242" y="540" type="curve" smooth="yes"/>
      <point x="141" y="-12" type="line" smooth="yes"/>
      <point x="118" y="-137"/>
      <point x="38" y="-260"/>
      <point x="-92" y="-260" type="curve" smooth="yes"/>
      <point x="-173" y="-260"/>
      <point x="-205" y="-203"/>
      <point x="-205" y="-161" type="curve" smooth="yes"/>
      <point x="-205" y="-120"/>
      <point x="-178" y="-99"/>
      <point x="-148" y="-99" type="curve" smooth="yes"/>
      <point x="-123" y="-99"/>
      <point x="-92" y="-113"/>
      <point x="-92" y="-153" type="curve" smooth="yes"/>
      <point x="-92" y="-193"/>
      <point x="-123" y="-209"/>
      <point x="-152" y="-209" type="curve" smooth="yes"/>
      <point x="-162" y="-209"/>
      <point x="-167" y="-206"/>
      <point x="-169" y="-206" type="curve"/>
      <point x="-160" y="-218"/>
      <point x="-144" y="-240"/>
      <point x="-92" y="-240" type="curve" smooth="yes"/>
      <point x="-22" y="-240"/>
      <point x="28" y="-162"/>
      <point x="49" y="-40" type="curve" smooth="yes"/>
      <point x="145" y="512" type="line" smooth="yes"/>
      <point x="167" y="638"/>
      <point x="273" y="760"/>
      <point x="413" y="760" type="curve" smooth="yes"/>
      <point x="504" y="760"/>
      <point x="526" y="703"/>
    </contour>
  </outline>
</glyph>
<glyph name="uniFB03" format="2">
  <advance width="6984"/>
  <unicode hex="FB03"/>
  <outline>
    <contour>
      <point x="6824" y="1304" type="line"/>
      <point x="6520" y="504"/>
      <point x="6048" y="-80"/>
      <point x="5400" y="-80" type="curve" smooth="yes"/>
      <point x="5024" y="-80"/>
      <point x="4832" y="104"/>
      <point x="4832" y="504" type="curve" smooth="yes"/>
      <point x="4832" y="544"/>
      <point x="4840" y="632"/>
      <point x="4848" y="680" type="curve" smooth="yes"/>
      <point x="5488" y="3520" type="line"/>
      <point x="416" y="3520" type="line"/>
      <point x="416" y="3680" type="line"/>
      <point x="6248" y="3680" type="line"/>
      <point x="5496" y="448" type="line" smooth="yes"/>
      <point x="5488" y="400"/>
      <point x="5480" y="344"/>
      <point x="5480" y="304" type="curve" smooth="yes"/>
      <point x="5480" y="216"/>
      <point x="5520" y="152"/>
      <point x="5624" y="152" type="curve" smooth="yes"/>
      <point x="6056" y="152"/>
      <point x="6480" y="824"/>
      <point x="6664" y="1352" type="curve"/>
    </contour>
    <contour>
      <point x="6528" y="5288" type="curve" smooth="yes"/>
      <point x="6528" y="4960"/>
      <point x="6312" y="4792"/>
      <point x="6072" y="4792" type="curve" smooth="yes"/>
      <point x="5872" y="4792"/>
      <point x="5624" y="4904"/>
      <point x="5624" y="5224" type="curve" smooth="yes"/>
      <point x="5624" y="5544"/>
      <point x="5872" y="5672"/>
      <point x="6104" y="5672" type="curve" smooth="yes"/>
      <point x="6184" y="5672"/>
      <point x="6224" y="5648"/>
      <point x="6240" y="5648" type="curve"/>
      <point x="6168" y="5744"/>
      <point x="6040" y="5920"/>
      <point x="5464" y="5920" type="curve" smooth="yes"/>
      <point x="4744" y="5920"/>
      <point x="4352" y="5296"/>
      <point x="4176" y="4320" type="curve" smooth="yes"/>
      <point x="3456" y="304" type="line" smooth="yes"/>
      <point x="3280" y="-696"/>
      <point x="2632" y="-1680"/>
      <point x="1512" y="-1680" type="curve" smooth="yes"/>
      <point x="784" y="-1680"/>
      <point x="528" y="-1224"/>
      <point x="528" y="-888" type="curve" smooth="yes"/>
      <point x="528" y="-560"/>
      <point x="744" y="-392"/>
      <point x="984" y="-392" type="curve" smooth="yes"/>
      <point x="1184" y="-392"/>
      <point x="1432" y="-504"/>
      <point x="1432" y="-824" type="curve" smooth="yes"/>
      <point x="1432" y="-1144"/>
      <point x="1184" y="-1272"/>
      <point x="952" y="-1272" type="curve" smooth="yes"/>
      <point x="872" y="-1272"/>
      <point x="832" y="-1248"/>
      <point x="816" y="-1248" type="curve"/>
      <point x="888" y="-1344"/>
      <point x="1016" y="-1520"/>
      <point x="1512" y="-1520" type="curve" smooth="yes"/>
      <point x="2152" y="-1520"/>
      <point x="2552" y="-896"/>
      <point x="2720" y="80" type="curve" smooth="yes"/>
      <point x="3400" y="4096" type="line" smooth="yes"/>
      <point x="3568" y="5104"/>
      <point x="4264" y="6080"/>
      <point x="5464" y="6080" type="curve" smooth="yes"/>
      <point x="6272" y="6080"/>
      <point x="6528" y="5624"/>
    </contour>
    <contour>
      <point x="3752" y="5248" type="curve"/>
      <point x="3680" y="5344"/>
      <point x="3552" y="5520"/>
      <point x="3056" y="5520" type="curve" smooth="yes"/>
      <point x="2416" y="5520"/>
      <point x="2024" y="4896"/>
      <point x="1848" y="3920" type="curve" smooth="yes"/>
      <point x="1128" y="-96" type="line" smooth="yes"/>
      <point x="944" y="-1104"/>
      <point x="304" y="-2080"/>
      <point x="-736" y="-2080" type="curve" smooth="yes"/>
      <point x="-1384" y="-2080"/>
      <point x="-1640" y="-1624"/>
      <point x="-1640" y="-1288" type="curve" smooth="yes"/>
      <point x="-1640" y="-960"/>
      <point x="-1424" y="-792"/>
      <point x="-1184" y="-792" type="curve" smooth="yes"/>
      <point x="-984" y="-792"/>
      <point x="-736" y="-904"/>
      <point x="-736" y="-1224" type="curve" smooth="yes"/>
      <point x="-736" y="-1544"/>
      <point x="-984" y="-1672"/>
      <point x="-1216" y="-1672" type="curve" smooth="yes"/>
      <point x="-1296" y="-1672"/>
      <point x="-1336" y="-1648"/>
      <point x="-1352" y="-1648" type="curve"/>
      <point x="-1280" y="-1744"/>
      <point x="-1152" y="-1920"/>
      <point x="-736" y="-1920" type="curve" smooth="yes"/>
      <point x="-176" y="-1920"/>
      <point x="224" y="-1296"/>
      <point x="392" y="-320" type="curve" smooth="yes"/>
      <point x="1072" y="3696" type="line" smooth="yes"/>
      <point x="1240" y="4704"/>
      <point x="1936" y="5680"/>
      <point x="3056" y="5680" type="curve" smooth="yes"/>
      <point x="3784" y="5680"/>
      <point x="4040" y="5224"/>
      <point x="4040" y="4888" type="curve" smooth="yes"/>
      <point x="4040" y="4560"/>
      <point x="3824" y="4392"/>
      <point x="3584" y="4392" type="curve" smooth="yes"/>
      <point x="3384" y="4392"/>
      <point x="3136" y="4504"/>
      <point x="3136" y="4824" type="curve" smooth="yes"/>
      <point x="3136" y="5144"/>
      <point x="3384" y="5272"/>
      <point x="3616" y="5272" type="curve" smooth="yes"/>
      <point x="3696" y="5272"/>
      <point x="3736" y="5248"/>
    </contour>
  </outline>
</glyph>
<glyph name="J.alt" format="2">
  <advance width="4288"/>
  <outline>
    <contour>
      <point x="2688" y="6000" type="line"/>
      <point x="5208" y="6000" type="line"/>
      <point x="5208" y="5840" type="line"/>
      <point x="2688" y="5840" type="line"/>
    </contour>
    <contour>
      <point x="3648" y="6000" type="line"/>
      <point x="4408" y="6000" type="line"/>
      <point x="3528" y="2240" type="line" smooth="yes"/>
      <point x="3240" y="1024"/>
      <point x="2496" y="-80"/>
      <point x="1208" y="-80" type="curve" smooth="yes"/>
      <point x="352" y="-80"/>
      <point x="40" y="520"/>
      <point x="40" y="1080" type="curve" smooth="yes"/>
      <point x="40" y="1656"/>
      <point x="336" y="1920"/>
      <point x="656" y="1920" type="curve" smooth="yes"/>
      <point x="936" y="1920"/>
      <point x="1184" y="1776"/>
      <point x="1184" y="1408" type="curve" smooth="yes"/>
      <point x="1184" y="1128"/>
      <point x="968" y="904"/>
      <point x="616" y="904" type="curve" smooth="yes"/>
      <point x="440" y="904"/>
      <point x="280" y="1024"/>
      <point x="208" y="1160" type="curve"/>
      <point x="208" y="672"/>
      <point x="424" y="80"/>
      <point x="1208" y="80" type="curve" smooth="yes"/>
      <point x="2176" y="80"/>
      <point x="2536" y="928"/>
      <point x="2768" y="2000" type="curve" smooth="yes"/>
    </contour>
  </outline>
</glyph>
<glyph name="fj.lig" format="2">
  <advance width="4256"/>
  <outline>
    <contour>
      <point x="2664" y="80" type="curve" smooth="yes"/>
      <point x="3304" y="3520" type="line"/>
      <point x="416" y="3520" type="line"/>
      <point x="416" y="3680" type="line"/>
      <point x="4024" y="3680" type="line"/>
      <point x="3400" y="304" type="line" smooth="yes"/>
      <point x="3216" y="-704"/>
      <point x="2576" y="-1680"/>
      <point x="1456" y="-1680" type="curve" smooth="yes"/>
      <point x="728" y="-1680"/>
      <point x="472" y="-1224"/>
      <point x="472" y="-888" type="curve" smooth="yes"/>
      <point x="472" y="-560"/>
      <point x="688" y="-392"/>
      <point x="928" y="-392" type="curve" smooth="yes"/>
      <point x="1128" y="-392"/>
      <point x="1376" y="-504"/>
      <point x="1376" y="-824" type="curve" smooth="yes"/>
      <point x="1376" y="-1144"/>
      <point x="1128" y="-1272"/>
      <point x="896" y="-1272" type="curve" smooth="yes"/>
      <point x="816" y="-1272"/>
      <point x="776" y="-1248"/>
      <point x="760" y="-1248" type="curve"/>
      <point x="832" y="-1344"/>
      <point x="1040" y="-1520"/>
      <point x="1456" y="-1520" type="curve" smooth="yes"/>
      <point x="2096" y="-1520"/>
      <point x="2480" y="-888"/>
    </contour>
    <contour>
      <point x="4000" y="5648" type="curve"/>
      <point x="3928" y="5744"/>
      <point x="3800" y="5920"/>
      <point x="3224" y="5920" type="curve" smooth="yes"/>
      <point x="2504" y="5920"/>
      <point x="2112" y="5296"/>
      <point x="1936" y="4320" type="curve" smooth="yes"/>
      <point x="1128" y="-96" type="line" smooth="yes"/>
      <point x="944" y="-1096"/>
      <point x="304" y="-2080"/>
      <point x="-736" y="-2080" type="curve" smooth="yes"/>
      <point x="-1384" y="-2080"/>
      <point x="-1640" y="-1624"/>
      <point x="-1640" y="-1288" type="curve" smooth="yes"/>
      <point x="-1640" y="-960"/>
      <point x="-1424" y="-792"/>
      <point x="-1184" y="-792" type="curve" smooth="yes"/>
      <point x="-984" y="-792"/>
      <point x="-736" y="-904"/>
      <point x="-736" y="-1224" type="curve" smooth="yes"/>
      <point x="-736" y="-1544"/>
      <point x="-984" y="-1672"/>
      <point x="-1216" y="-1672" type="curve" smooth="yes"/>
      <point x="-1296" y="-1672"/>
      <point x="-1336" y="-1648"/>
      <point x="-1352" y="-1648" type="curve"/>
      <point x="-1280" y="-1744"/>
      <point x="-1152" y="-1920"/>
      <point x="-736" y="-1920" type="curve" smooth="yes"/>
      <point x="-176" y="-1920"/>
      <point x="224" y="-1296"/>
      <point x="392" y="-320" type="curve" smooth="yes"/>
      <point x="1160" y="4096" type="line" smooth="yes"/>
      <point x="1336" y="5104"/>
      <point x="2024" y="6080"/>
      <point x="3224" y="6080" type="curve" smooth="yes"/>
      <point x="4032" y="6080"/>
      <point x="4288" y="5624"/>
      <point x="4288" y="5288" type="curve" smooth="yes"/>
      <point x="4288" y="4960"/>
      <point x="4072" y="4792"/>
      <point x="3832" y="4792" type="curve" smooth="yes"/>
      <point x="3632" y="4792"/>
      <point x="3384" y="4904"/>
      <point x="3384" y="5224" type="curve" smooth="yes"/>
      <point x="3384" y="5544"/>
      <point x="3632" y="5672"/>
      <point x="3864" y="5672" type="curve" smooth="yes"/>
      <point x="3944" y="5672"/>
      <point x="3984" y="5648"/>
    </contour>
  </outline>
</glyph>
<glyph name="four.alt" format="2">
  <advance width="4760"/>
  <outline>
    <contour>
      <point x="4160" y="3984" type="curve"/>
      <point x="3272" y="-8" type="line"/>
      <point x="2512" y="-8" type="line"/>
      <point x="3360" y="3824" type="line"/>
      <point x="3600" y="3824"/>
      <point x="4000" y="3904"/>
    </contour>
    <contour>
      <point x="3936" y="160" type="line"/>
      <point x="3936" y="0" type="line"/>
      <point x="1816" y="0" type="line"/>
      <point x="1816" y="160" type="line"/>
    </contour>
    <contour>
      <point x="424" y="1640" type="curve"/>
      <point x="4360" y="1640" type="line"/>
      <point x="4360" y="1480" type="line"/>
      <point x="120" y="1480" type="line"/>
      <point x="1240" y="3080"/>
      <point x="3600" y="4800"/>
      <point x="3760" y="6000" type="curve"/>
      <point x="4544" y="6000" type="line"/>
      <point x="4392" y="4840"/>
      <point x="1624" y="3192"/>
    </contour>
  </outline>
</glyph>
<glyph name="v.alt" format="2">
  <advance width="456"/>
  <outline>
    <contour>
      <point x="165" y="475" type="curve"/>
      <point x="172" y="462" type="line"/>
      <point x="131" y="439"/>
      <point x="115" y="413"/>
      <point x="115" y="373" type="curve" smooth="yes"/>
      <point x="115" y="300"/>
      <point x="214" y="259"/>
      <point x="214" y="135" type="curve" smooth="yes"/>
      <point x="214" y="118"/>
      <point x="210" y="76"/>
      <point x="208" y="53" type="curve"/>
      <point x="349" y="131"/>
      <point x="431" y="222"/>
      <point x="431" y="344" type="curve" smooth="yes"/>
      <point x="431" y="371"/>
      <point x="428" y="388"/>
      <point x="423" y="400" type="curve"/>
      <point x="420" y="381"/>
      <point x="401" y="355"/>
      <point x="368" y="355" type="curve" smooth="yes"/>
      <point x="328" y="355"/>
      <point x="312" y="387"/>
      <point x="312" y="412" type="curve" smooth="yes"/>
      <point x="312" y="442"/>
      <point x="336" y="469"/>
      <point x="373" y="469" type="curve" smooth="yes"/>
      <point x="436" y="469"/>
      <point x="451" y="405"/>
      <point x="451" y="344" type="curve" smooth="yes"/>
      <point x="451" y="175"/>
      <point x="316" y="83"/>
      <point x="121" y="-12" type="curve"/>
      <point x="108" y="4" type="line"/>
      <point x="110" y="26"/>
      <point x="123" y="86"/>
      <point x="123" y="106" type="curve" smooth="yes"/>
      <point x="123" y="183"/>
      <point x="30" y="249"/>
      <point x="30" y="323" type="curve" smooth="yes"/>
      <point x="30" y="403"/>
      <point x="115" y="451"/>
    </contour>
  </outline>
</glyph>
